  0
SECTION
  2
HEADER
  9
$ACADVER
  1
AC1014
  9
$HANDSEED
  5
FFFF
  9
$MEASUREMENT
 70
     1
  0
ENDSEC
  0
SECTION
  2
TABLES
  0
TABLE
  2
VPORT
  5
8
330
0
100
AcDbSymbolTable
 70
     4
  0
VPORT
  5
2E
330
8
100
AcDbSymbolTableRecord
100
AcDbViewportTableRecord
  2
*ACTIVE
 70
     0
 10
0.0
 20
0.0
 11
1.0
 21
1.0
 12
210.0
 22
148.5
 13
0.0
 23
0.0
 14
10.0
 24
10.0
 15
10.0
 25
10.0
 16
0.0
 26
0.0
 36
1.0
 17
0.0
 27
0.0
 37
0.0
 40
341.0
 41
1.24
 42
50.0
 43
0.0
 44
0.0
 50
0.0
 51
0.0
 71
     0
 72
   100
 73
     1
 74
     3
 75
     0
 76
     0
 77
     0
 78
     0
  0
ENDTAB
  0
TABLE
  2
LTYPE
  5
5
330
0
100
AcDbSymbolTable
 70
     1
  0
LTYPE
  5
14
330
5
100
AcDbSymbolTableRecord
100
AcDbLinetypeTableRecord
  2
BYBLOCK
 70
     0
  3

 72
    65
 73
     0
 40
0.0
  0
LTYPE
  5
15
330
5
100
AcDbSymbolTableRecord
100
AcDbLinetypeTableRecord
  2
BYLAYER
 70
     0
  3

 72
    65
 73
     0
 40
0.0
  0
LTYPE
  5
16
330
5
100
AcDbSymbolTableRecord
100
AcDbLinetypeTableRecord
  2
CONTINUOUS
 70
     0
  3
Solid line
 72
    65
 73
     0
 40
0.0
  0
ENDTAB
  0
TABLE
  2
LAYER
  5
2
100
AcDbSymbolTable
 70
2
  0
LAYER
  5
50
100
AcDbSymbolTableRecord
100
AcDbLayerTableRecord
  2
0
 70
0
  6
CONTINUOUS
  0
LAYER
  5
51
100
AcDbSymbolTableRecord
100
AcDbLayerTableRecord
  2
Layer_1
 70
0
  6
CONTINUOUS
  0
ENDTAB
  0
TABLE
  2
STYLE
  5
3
330
0
100
AcDbSymbolTable
 70
     1
  0
STYLE
  5
11
330
3
100
AcDbSymbolTableRecord
100
AcDbTextStyleTableRecord
  2
STANDARD
 70
     0
 40
0.0
 41
1.0
 50
0.0
 71
     0
 42
2.5
  3
txt
  4

  0
ENDTAB
  0
TABLE
  2
VIEW
  5
6
330
0
100
AcDbSymbolTable
 70
     0
  0
ENDTAB
  0
TABLE
  2
UCS
  5
7
330
0
100
AcDbSymbolTable
 70
     0
  0
ENDTAB
  0
TABLE
  2
APPID
  5
9
330
0
100
AcDbSymbolTable
 70
     2
  0
APPID
  5
12
330
9
100
AcDbSymbolTableRecord
100
AcDbRegAppTableRecord
  2
ACAD
 70
     0
  0
ENDTAB
  0
TABLE
  2
DIMSTYLE
  5
A
330
0
100
AcDbSymbolTable
 70
     1
  0
DIMSTYLE
105
27
330
A
100
AcDbSymbolTableRecord
100
AcDbDimStyleTableRecord
  2
ISO-25
 70
     0
  3

  4

  5

  6

  7

 40
1.0
 41
2.5
 42
0.625
 43
3.75
 44
1.25
 45
0.0
 46
0.0
 47
0.0
 48
0.0
140
2.5
141
2.5
142
0.0
143
0.03937007874016
144
1.0
145
0.0
146
1.0
147
0.625
 71
     0
 72
     0
 73
     0
 74
     0
 75
     0
 76
     0
 77
     1
 78
     8
170
     0
171
     3
172
     1
173
     0
174
     0
175
     0
176
     0
177
     0
178
     0
270
     2
271
     2
272
     2
273
     2
274
     3
340
11
275
     0
280
     0
281
     0
282
     0
283
     0
284
     8
285
     0
286
     0
287
     3
288
     0
  0
ENDTAB
  0
TABLE
  2
BLOCK_RECORD
  5
1
330
0
100
AcDbSymbolTable
 70
     1
  0
BLOCK_RECORD
  5
1F
330
1
100
AcDbSymbolTableRecord
100
AcDbBlockTableRecord
  2
*MODEL_SPACE
  0
BLOCK_RECORD
  5
1B
330
1
100
AcDbSymbolTableRecord
100
AcDbBlockTableRecord
  2
*PAPER_SPACE
  0
ENDTAB
  0
ENDSEC
  0
SECTION
  2
BLOCKS
  0
BLOCK
  5
20
330
1F
100
AcDbEntity
  8
0
100
AcDbBlockBegin
  2
*MODEL_SPACE
 70
     0
 10
0.0
 20
0.0
 30
0.0
  3
*MODEL_SPACE
  1

  0
ENDBLK
  5
21
330
1F
100
AcDbEntity
  8
0
100
AcDbBlockEnd
  0
BLOCK
  5
1C
330
1B
100
AcDbEntity
 67
     1
  8
0
100
AcDbBlockBegin
  2
*PAPER_SPACE
  1

  0
ENDBLK
  5
1D
330
1B
100
AcDbEntity
 67
     1
  8
0
100
AcDbBlockEnd
  0
ENDSEC
  0
SECTION
  2
ENTITIES
  0
SPLINE
  5
100
100
AcDbEntity
  8
Layer_1
 62
7
100
AcDbSpline
 70
8
 71
3
 72
8
 73
4
 74
0
 40
0
 40
0
 40
0
 40
0
 40
1
 40
1
 40
1
 40
1
 10
12.185790
 20
19.309041
 30
0.0
 10
12.092775
 20
19.308202
 30
0.0
 10
12.003717
 20
19.295253
 30
0.0
 10
11.895060
 20
19.269959
 30
0.0
  0
SPLINE
  5
101
100
AcDbEntity
  8
Layer_1
 62
7
100
AcDbSpline
 70
8
 71
3
 72
8
 73
4
 74
0
 40
0
 40
0
 40
0
 40
0
 40
1
 40
1
 40
1
 40
1
 10
11.895060
 20
19.269959
 30
0.0
 10
11.378362
 20
19.149677
 30
0.0
 10
10.692322
 20
18.659378
 30
0.0
 10
10.692322
 20
18.410400
 30
0.0
  0
SPLINE
  5
102
100
AcDbEntity
  8
Layer_1
 62
7
100
AcDbSpline
 70
8
 71
3
 72
8
 73
4
 74
0
 40
0
 40
0
 40
0
 40
0
 40
1
 40
1
 40
1
 40
1
 10
10.692322
 20
18.410400
 30
0.0
 10
10.692322
 20
18.386593
 30
0.0
 10
10.779196
 20
18.327896
 30
0.0
 10
10.885376
 20
18.279948
 30
0.0
  0
SPLINE
  5
103
100
AcDbEntity
  8
Layer_1
 62
7
100
AcDbSpline
 70
8
 71
3
 72
8
 73
4
 74
0
 40
0
 40
0
 40
0
 40
0
 40
1
 40
1
 40
1
 40
1
 10
10.885376
 20
18.279948
 30
0.0
 10
10.991553
 20
18.232002
 30
0.0
 10
11.085404
 20
18.187615
 30
0.0
 10
11.093912
 20
18.181335
 30
0.0
  0
SPLINE
  5
104
100
AcDbEntity
  8
Layer_1
 62
7
100
AcDbSpline
 70
8
 71
3
 72
8
 73
4
 74
0
 40
0
 40
0
 40
0
 40
0
 40
1
 40
1
 40
1
 40
1
 10
11.093912
 20
18.181335
 30
0.0
 10
11.102430
 20
18.175044
 30
0.0
 10
11.069499
 20
18.069522
 30
0.0
 10
11.020752
 20
17.946838
 30
0.0
  0
SPLINE
  5
105
100
AcDbEntity
  8
Layer_1
 62
7
100
AcDbSpline
 70
8
 71
3
 72
8
 73
4
 74
0
 40
0
 40
0
 40
0
 40
0
 40
1
 40
1
 40
1
 40
1
 10
11.020752
 20
17.946838
 30
0.0
 10
10.972000
 20
17.824155
 30
0.0
 10
10.889481
 20
17.517834
 30
0.0
 10
10.837361
 20
17.266134
 30
0.0
  0
SPLINE
  5
106
100
AcDbEntity
  8
Layer_1
 62
7
100
AcDbSpline
 70
8
 71
3
 72
8
 73
4
 74
0
 40
0
 40
0
 40
0
 40
0
 40
1
 40
1
 40
1
 40
1
 10
10.837361
 20
17.266134
 30
0.0
 10
10.678110
 20
16.497050
 30
0.0
 10
10.576884
 20
16.245985
 30
0.0
 10
10.342468
 20
16.038635
 30
0.0
  0
SPLINE
  5
107
100
AcDbEntity
  8
Layer_1
 62
7
100
AcDbSpline
 70
8
 71
3
 72
8
 73
4
 74
0
 40
0
 40
0
 40
0
 40
0
 40
1
 40
1
 40
1
 40
1
 10
10.342468
 20
16.038635
 30
0.0
 10
9.945742
 20
15.687712
 30
0.0
 10
9.223053
 20
15.515376
 30
0.0
 10
7.603495
 20
15.385498
 30
0.0
  0
SPLINE
  5
108
100
AcDbEntity
  8
Layer_1
 62
7
100
AcDbSpline
 70
8
 71
3
 72
8
 73
4
 74
0
 40
0
 40
0
 40
0
 40
0
 40
1
 40
1
 40
1
 40
1
 10
7.603495
 20
15.385498
 30
0.0
 10
6.229572
 20
15.275318
 30
0.0
 10
5.789467
 20
15.218069
 30
0.0
 10
5.079142
 20
15.057088
 30
0.0
  0
SPLINE
  5
109
100
AcDbEntity
  8
Layer_1
 62
7
100
AcDbSpline
 70
8
 71
3
 72
8
 73
4
 74
0
 40
0
 40
0
 40
0
 40
0
 40
1
 40
1
 40
1
 40
1
 10
5.079142
 20
15.057088
 30
0.0
 10
4.594597
 20
14.947275
 30
0.0
 10
4.403318
 20
14.928271
 30
0.0
 10
4.039652
 20
14.953796
 30
0.0
  0
SPLINE
  5
10a
100
AcDbEntity
  8
Layer_1
 62
7
100
AcDbSpline
 70
8
 71
3
 72
8
 73
4
 74
0
 40
0
 40
0
 40
0
 40
0
 40
1
 40
1
 40
1
 40
1
 10
4.039652
 20
14.953796
 30
0.0
 10
2.891032
 20
15.034419
 30
0.0
 10
1.841541
 20
15.554814
 30
0.0
 10
1.636617
 20
16.145365
 30
0.0
  0
SPLINE
  5
10b
100
AcDbEntity
  8
Layer_1
 62
7
100
AcDbSpline
 70
8
 71
3
 72
8
 73
4
 74
0
 40
0
 40
0
 40
0
 40
0
 40
1
 40
1
 40
1
 40
1
 10
1.636617
 20
16.145365
 30
0.0
 10
1.560144
 20
16.365735
 30
0.0
 10
1.552559
 20
16.372443
 30
0.0
 10
1.548787
 20
16.223023
 30
0.0
  0
SPLINE
  5
10c
100
AcDbEntity
  8
Layer_1
 62
7
100
AcDbSpline
 70
8
 71
3
 72
8
 73
4
 74
0
 40
0
 40
0
 40
0
 40
0
 40
1
 40
1
 40
1
 40
1
 10
1.548787
 20
16.223023
 30
0.0
 10
1.538783
 20
15.827601
 30
0.0
 10
1.763745
 20
15.502143
 30
0.0
 10
2.242472
 20
15.219482
 30
0.0
  0
SPLINE
  5
10d
100
AcDbEntity
  8
Layer_1
 62
7
100
AcDbSpline
 70
8
 71
3
 72
8
 73
4
 74
0
 40
0
 40
0
 40
0
 40
0
 40
1
 40
1
 40
1
 40
1
 10
2.242472
 20
15.219482
 30
0.0
 10
2.803126
 20
14.888446
 30
0.0
 10
3.426464
 20
14.716166
 30
0.0
 10
4.175496
 20
14.685201
 30
0.0
  0
SPLINE
  5
10e
100
AcDbEntity
  8
Layer_1
 62
7
100
AcDbSpline
 70
8
 71
3
 72
8
 73
4
 74
0
 40
0
 40
0
 40
0
 40
0
 40
1
 40
1
 40
1
 40
1
 10
4.175496
 20
14.685201
 30
0.0
 10
4.528008
 20
14.670629
 30
0.0
 10
4.807611
 20
14.643980
 30
0.0
 10
4.796834
 20
14.625997
 30
0.0
  0
SPLINE
  5
10f
100
AcDbEntity
  8
Layer_1
 62
7
100
AcDbSpline
 70
8
 71
3
 72
8
 73
4
 74
0
 40
0
 40
0
 40
0
 40
0
 40
1
 40
1
 40
1
 40
1
 10
4.796834
 20
14.625997
 30
0.0
 10
4.272517
 20
13.750831
 30
0.0
 10
4.159528
 20
13.376291
 30
0.0
 10
4.158630
 20
12.509969
 30
0.0
  0
SPLINE
  5
110
100
AcDbEntity
  8
Layer_1
 62
7
100
AcDbSpline
 70
8
 71
3
 72
8
 73
4
 74
0
 40
0
 40
0
 40
0
 40
0
 40
1
 40
1
 40
1
 40
1
 10
4.158630
 20
12.509969
 30
0.0
 10
4.158136
 20
12.043415
 30
0.0
 10
4.048552
 20
11.302751
 30
0.0
 10
3.944031
 20
11.059530
 30
0.0
  0
SPLINE
  5
111
100
AcDbEntity
  8
Layer_1
 62
7
100
AcDbSpline
 70
8
 71
3
 72
8
 73
4
 74
0
 40
0
 40
0
 40
0
 40
0
 40
1
 40
1
 40
1
 40
1
 10
3.944031
 20
11.059530
 30
0.0
 10
3.919099
 20
11.001513
 30
0.0
 10
3.823459
 20
10.844623
 30
0.0
 10
3.731486
 20
10.710877
 30
0.0
  0
SPLINE
  5
112
100
AcDbEntity
  8
Layer_1
 62
7
100
AcDbSpline
 70
8
 71
3
 72
8
 73
4
 74
0
 40
0
 40
0
 40
0
 40
0
 40
1
 40
1
 40
1
 40
1
 10
3.731486
 20
10.710877
 30
0.0
 10
3.578795
 20
10.488825
 30
0.0
 10
3.563963
 20
10.422390
 30
0.0
 10
3.560730
 20
9.946106
 30
0.0
  0
SPLINE
  5
113
100
AcDbEntity
  8
Layer_1
 62
7
100
AcDbSpline
 70
8
 71
3
 72
8
 73
4
 74
0
 40
0
 40
0
 40
0
 40
0
 40
1
 40
1
 40
1
 40
1
 10
3.560730
 20
9.946106
 30
0.0
 10
3.558781
 20
9.659229
 30
0.0
 10
3.535995
 20
9.310060
 30
0.0
 10
3.510091
 20
9.170166
 30
0.0
  0
SPLINE
  5
114
100
AcDbEntity
  8
Layer_1
 62
7
100
AcDbSpline
 70
8
 71
3
 72
8
 73
4
 74
0
 40
0
 40
0
 40
0
 40
0
 40
1
 40
1
 40
1
 40
1
 10
3.510091
 20
9.170166
 30
0.0
 10
3.459433
 20
8.896576
 30
0.0
 10
3.498265
 20
8.648546
 30
0.0
 10
3.598145
 20
8.465983
 30
0.0
  0
SPLINE
  5
115
100
AcDbEntity
  8
Layer_1
 62
7
100
AcDbSpline
 70
8
 71
3
 72
8
 73
4
 74
0
 40
0
 40
0
 40
0
 40
0
 40
1
 40
1
 40
1
 40
1
 10
2.935527
 20
8.465983
 30
0.0
 10
2.935653
 20
8.465838
 30
0.0
 10
2.935767
 20
8.465672
 30
0.0
 10
2.935893
 20
8.465516
 30
0.0
  0
LWPOLYLINE
  5
116
100
AcDbEntity
  8
Layer_1
 62
7
100
AcDbPolyline
 90
2
 70
0
 10
3.598145
 20
8.465983
 30
0.0
 10
2.935527
 20
8.465983
 30
0.0
  0
SPLINE
  5
117
100
AcDbEntity
  8
Layer_1
 62
7
100
AcDbSpline
 70
8
 71
3
 72
8
 73
4
 74
0
 40
0
 40
0
 40
0
 40
0
 40
1
 40
1
 40
1
 40
1
 10
2.213338
 20
8.465516
 30
0.0
 10
1.684519
 20
8.465516
 30
0.0
 10
1.258809
 20
8.039783
 30
0.0
 10
1.258809
 20
7.510966
 30
0.0
  0
LWPOLYLINE
  5
118
100
AcDbEntity
  8
Layer_1
 62
7
100
AcDbPolyline
 90
2
 70
0
 10
2.935893
 20
8.465516
 30
0.0
 10
2.213338
 20
8.465516
 30
0.0
  0
SPLINE
  5
119
100
AcDbEntity
  8
Layer_1
 62
7
100
AcDbSpline
 70
8
 71
3
 72
8
 73
4
 74
0
 40
0
 40
0
 40
0
 40
0
 40
1
 40
1
 40
1
 40
1
 10
1.258809
 20
6.420044
 30
0.0
 10
1.258809
 20
5.891226
 30
0.0
 10
1.684519
 20
5.465514
 30
0.0
 10
2.213338
 20
5.465516
 30
0.0
  0
LWPOLYLINE
  5
11a
100
AcDbEntity
  8
Layer_1
 62
7
100
AcDbPolyline
 90
2
 70
0
 10
1.258809
 20
7.510966
 30
0.0
 10
1.258809
 20
6.420044
 30
0.0
  0
SPLINE
  5
11b
100
AcDbEntity
  8
Layer_1
 62
7
100
AcDbSpline
 70
8
 71
3
 72
8
 73
4
 74
0
 40
0
 40
0
 40
0
 40
0
 40
1
 40
1
 40
1
 40
1
 10
14.304260
 20
5.465414
 30
0.0
 10
14.833077
 20
5.465413
 30
0.0
 10
15.258809
 20
5.891125
 30
0.0
 10
15.258809
 20
6.419943
 30
0.0
  0
LWPOLYLINE
  5
11c
100
AcDbEntity
  8
Layer_1
 62
7
100
AcDbPolyline
 90
20
 70
0
 10
2.213338
 20
5.465516
 30
0.0
 10
2.951375
 20
5.465516
 30
0.0
 10
2.951375
 20
1.181763
 30
0.0
 10
2.817891
 20
1.181641
 30
0.0
 10
3.105204
 20
0.870199
 30
0.0
 10
3.392517
 20
0.558737
 30
0.0
 10
3.678935
 20
0.870524
 30
0.0
 10
3.965352
 20
1.182292
 30
0.0
 10
3.831889
 20
1.182170
 30
0.0
 10
3.831889
 20
5.465454
 30
0.0
 10
12.743042
 20
5.465454
 30
0.0
 10
12.743042
 20
1.181702
 30
0.0
 10
12.609558
 20
1.181600
 30
0.0
 10
12.896871
 20
0.870159
 30
0.0
 10
13.184183
 20
0.558696
 30
0.0
 10
13.470601
 20
0.870464
 30
0.0
 10
13.757019
 20
1.182251
 30
0.0
 10
13.623555
 20
1.182129
 30
0.0
 10
13.623555
 20
5.465414
 30
0.0
 10
14.304260
 20
5.465414
 30
0.0
  0
SPLINE
  5
11d
100
AcDbEntity
  8
Layer_1
 62
7
100
AcDbSpline
 70
8
 71
3
 72
8
 73
4
 74
0
 40
0
 40
0
 40
0
 40
0
 40
1
 40
1
 40
1
 40
1
 10
15.258809
 20
7.510865
 30
0.0
 10
15.258809
 20
8.039682
 30
0.0
 10
14.833077
 20
8.465414
 30
0.0
 10
14.304260
 20
8.465414
 30
0.0
  0
LWPOLYLINE
  5
11e
100
AcDbEntity
  8
Layer_1
 62
7
100
AcDbPolyline
 90
2
 70
0
 10
15.258809
 20
6.419943
 30
0.0
 10
15.258809
 20
7.510865
 30
0.0
  0
SPLINE
  5
11f
100
AcDbEntity
  8
Layer_1
 62
7
100
AcDbSpline
 70
8
 71
3
 72
8
 73
4
 74
0
 40
0
 40
0
 40
0
 40
0
 40
1
 40
1
 40
1
 40
1
 10
13.755330
 20
8.465414
 30
0.0
 10
13.810571
 20
8.596510
 30
0.0
 10
13.687644
 20
8.738650
 30
0.0
 10
13.402628
 20
8.872904
 30
0.0
  0
SPLINE
  5
120
100
AcDbEntity
  8
Layer_1
 62
7
100
AcDbSpline
 70
8
 71
3
 72
8
 73
4
 74
0
 40
0
 40
0
 40
0
 40
0
 40
1
 40
1
 40
1
 40
1
 10
13.402628
 20
8.872904
 30
0.0
 10
13.164179
 20
8.985224
 30
0.0
 10
13.126657
 20
9.029149
 30
0.0
 10
13.042969
 20
9.293987
 30
0.0
  0
SPLINE
  5
121
100
AcDbEntity
  8
Layer_1
 62
7
100
AcDbSpline
 70
8
 71
3
 72
8
 73
4
 74
0
 40
0
 40
0
 40
0
 40
0
 40
1
 40
1
 40
1
 40
1
 10
13.042969
 20
9.293987
 30
0.0
 10
12.873464
 20
9.830383
 30
0.0
 10
12.938307
 20
11.392842
 30
0.0
 10
13.185180
 20
12.720927
 30
0.0
  0
SPLINE
  5
122
100
AcDbEntity
  8
Layer_1
 62
7
100
AcDbSpline
 70
8
 71
3
 72
8
 73
4
 74
0
 40
0
 40
0
 40
0
 40
0
 40
1
 40
1
 40
1
 40
1
 10
13.185180
 20
12.720927
 30
0.0
 10
13.366765
 20
13.697789
 30
0.0
 10
13.377973
 20
13.959339
 30
0.0
 10
13.274496
 20
14.804281
 30
0.0
  0
SPLINE
  5
123
100
AcDbEntity
  8
Layer_1
 62
7
100
AcDbSpline
 70
8
 71
3
 72
8
 73
4
 74
0
 40
0
 40
0
 40
0
 40
0
 40
1
 40
1
 40
1
 40
1
 10
13.274496
 20
14.804281
 30
0.0
 10
13.221204
 20
15.239408
 30
0.0
 10
13.164360
 20
15.820895
 30
0.0
 10
13.148173
 20
16.096476
 30
0.0
  0
SPLINE
  5
124
100
AcDbEntity
  8
Layer_1
 62
7
100
AcDbSpline
 70
8
 71
3
 72
8
 73
4
 74
0
 40
0
 40
0
 40
0
 40
0
 40
1
 40
1
 40
1
 40
1
 10
13.148173
 20
16.096476
 30
0.0
 10
13.121690
 20
16.547264
 30
0.0
 10
13.132608
 20
16.621281
 30
0.0
 10
13.256897
 20
16.834290
 30
0.0
  0
SPLINE
  5
125
100
AcDbEntity
  8
Layer_1
 62
7
100
AcDbSpline
 70
8
 71
3
 72
8
 73
4
 74
0
 40
0
 40
0
 40
0
 40
0
 40
1
 40
1
 40
1
 40
1
 10
13.256897
 20
16.834290
 30
0.0
 10
13.389948
 20
17.062314
 30
0.0
 10
13.412345
 20
17.075271
 30
0.0
 10
13.863891
 20
17.185425
 30
0.0
  0
SPLINE
  5
126
100
AcDbEntity
  8
Layer_1
 62
7
100
AcDbSpline
 70
8
 71
3
 72
8
 73
4
 74
0
 40
0
 40
0
 40
0
 40
0
 40
1
 40
1
 40
1
 40
1
 10
13.863891
 20
17.185425
 30
0.0
 10
14.535231
 20
17.349199
 30
0.0
 10
14.607380
 20
17.394723
 30
0.0
 10
14.800069
 20
17.775981
 30
0.0
  0
SPLINE
  5
127
100
AcDbEntity
  8
Layer_1
 62
7
100
AcDbSpline
 70
8
 71
3
 72
8
 73
4
 74
0
 40
0
 40
0
 40
0
 40
0
 40
1
 40
1
 40
1
 40
1
 10
14.800069
 20
17.775981
 30
0.0
 10
14.893065
 20
17.959990
 30
0.0
 10
14.969157
 20
18.128884
 30
0.0
 10
14.969157
 20
18.151306
 30
0.0
  0
SPLINE
  5
128
100
AcDbEntity
  8
Layer_1
 62
7
100
AcDbSpline
 70
8
 71
3
 72
8
 73
4
 74
0
 40
0
 40
0
 40
0
 40
0
 40
1
 40
1
 40
1
 40
1
 10
14.969157
 20
18.151306
 30
0.0
 10
14.969157
 20
18.173730
 30
0.0
 10
14.708530
 20
18.266271
 30
0.0
 10
14.389995
 20
18.356954
 30
0.0
  0
SPLINE
  5
129
100
AcDbEntity
  8
Layer_1
 62
7
100
AcDbSpline
 70
8
 71
3
 72
8
 73
4
 74
0
 40
0
 40
0
 40
0
 40
0
 40
1
 40
1
 40
1
 40
1
 10
14.389995
 20
18.356954
 30
0.0
 10
13.713639
 20
18.549502
 30
0.0
 10
13.706264
 20
18.553255
 30
0.0
 10
13.597270
 20
18.759989
 30
0.0
  0
SPLINE
  5
12a
100
AcDbEntity
  8
Layer_1
 62
7
100
AcDbSpline
 70
8
 71
3
 72
8
 73
4
 74
0
 40
0
 40
0
 40
0
 40
0
 40
1
 40
1
 40
1
 40
1
 10
13.597270
 20
18.759989
 30
0.0
 10
13.498779
 20
18.946806
 30
0.0
 10
12.995814
 20
19.183125
 30
0.0
 10
12.500305
 20
19.275411
 30
0.0
  0
SPLINE
  5
12b
100
AcDbEntity
  8
Layer_1
 62
7
100
AcDbSpline
 70
8
 71
3
 72
8
 73
4
 74
0
 40
0
 40
0
 40
0
 40
0
 40
1
 40
1
 40
1
 40
1
 10
12.500305
 20
19.275411
 30
0.0
 10
12.375784
 20
19.298601
 30
0.0
 10
12.278807
 20
19.309881
 30
0.0
 10
12.185790
 20
19.309041
 30
0.0
  0
LWPOLYLINE
  5
12c
100
AcDbEntity
  8
Layer_1
 62
7
100
AcDbPolyline
 90
2
 70
0
 10
14.304260
 20
8.465414
 30
0.0
 10
13.755330
 20
8.465414
 30
0.0
  0
LWPOLYLINE
  5
12d
100
AcDbEntity
  8
Layer_1
 62
7
100
AcDbPolyline
 90
1
 70
1
 10
12.185790
 20
19.309041
 30
0.0
  0
SPLINE
  5
12e
100
AcDbEntity
  8
Layer_1
 62
7
100
AcDbSpline
 70
8
 71
3
 72
8
 73
4
 74
0
 40
0
 40
0
 40
0
 40
0
 40
1
 40
1
 40
1
 40
1
 10
12.206258
 20
15.215617
 30
0.0
 10
12.223474
 20
15.215586
 30
0.0
 10
12.233675
 20
15.214166
 30
0.0
 10
12.252645
 20
15.210144
 30
0.0
  0
SPLINE
  5
12f
100
AcDbEntity
  8
Layer_1
 62
7
100
AcDbSpline
 70
8
 71
3
 72
8
 73
4
 74
0
 40
0
 40
0
 40
0
 40
0
 40
1
 40
1
 40
1
 40
1
 10
12.252645
 20
15.210144
 30
0.0
 10
12.298921
 20
15.200333
 30
0.0
 10
12.344038
 20
15.181412
 30
0.0
 10
12.378763
 20
15.157267
 30
0.0
  0
SPLINE
  5
130
100
AcDbEntity
  8
Layer_1
 62
7
100
AcDbSpline
 70
8
 71
3
 72
8
 73
4
 74
0
 40
0
 40
0
 40
0
 40
0
 40
1
 40
1
 40
1
 40
1
 10
12.378763
 20
15.157267
 30
0.0
 10
12.432897
 20
15.119629
 30
0.0
 10
12.487899
 20
15.053015
 30
0.0
 10
12.523458
 20
14.982056
 30
0.0
  0
SPLINE
  5
131
100
AcDbEntity
  8
Layer_1
 62
7
100
AcDbSpline
 70
8
 71
3
 72
8
 73
4
 74
0
 40
0
 40
0
 40
0
 40
0
 40
1
 40
1
 40
1
 40
1
 10
12.523458
 20
14.982056
 30
0.0
 10
12.529279
 20
14.970434
 30
0.0
 10
12.549656
 20
14.922378
 30
0.0
 10
12.549968
 20
14.919535
 30
0.0
  0
SPLINE
  5
132
100
AcDbEntity
  8
Layer_1
 62
7
100
AcDbSpline
 70
8
 71
3
 72
8
 73
4
 74
0
 40
0
 40
0
 40
0
 40
0
 40
1
 40
1
 40
1
 40
1
 10
12.549968
 20
14.919535
 30
0.0
 10
12.550164
 20
14.917761
 30
0.0
 10
12.551628
 20
14.913069
 30
0.0
 10
12.554179
 20
14.906006
 30
0.0
  0
SPLINE
  5
133
100
AcDbEntity
  8
Layer_1
 62
7
100
AcDbSpline
 70
8
 71
3
 72
8
 73
4
 74
0
 40
0
 40
0
 40
0
 40
0
 40
1
 40
1
 40
1
 40
1
 10
12.554179
 20
14.906006
 30
0.0
 10
12.555714
 20
14.901755
 30
0.0
 10
12.556660
 20
14.897659
 30
0.0
 10
12.556295
 20
14.896912
 30
0.0
  0
SPLINE
  5
134
100
AcDbEntity
  8
Layer_1
 62
7
100
AcDbSpline
 70
8
 71
3
 72
8
 73
4
 74
0
 40
0
 40
0
 40
0
 40
0
 40
1
 40
1
 40
1
 40
1
 10
12.556295
 20
14.896912
 30
0.0
 10
12.555901
 20
14.896165
 30
0.0
 10
12.556174
 20
14.895549
 30
0.0
 10
12.556925
 20
14.895549
 30
0.0
  0
SPLINE
  5
135
100
AcDbEntity
  8
Layer_1
 62
7
100
AcDbSpline
 70
8
 71
3
 72
8
 73
4
 74
0
 40
0
 40
0
 40
0
 40
0
 40
1
 40
1
 40
1
 40
1
 10
12.556925
 20
14.895549
 30
0.0
 10
12.557646
 20
14.895549
 30
0.0
 10
12.557901
 20
14.894902
 30
0.0
 10
12.557515
 20
14.894104
 30
0.0
  0
SPLINE
  5
136
100
AcDbEntity
  8
Layer_1
 62
7
100
AcDbSpline
 70
8
 71
3
 72
8
 73
4
 74
0
 40
0
 40
0
 40
0
 40
0
 40
1
 40
1
 40
1
 40
1
 10
12.557515
 20
14.894104
 30
0.0
 10
12.557118
 20
14.893303
 30
0.0
 10
12.557355
 20
14.892660
 30
0.0
 10
12.558024
 20
14.892660
 30
0.0
  0
SPLINE
  5
137
100
AcDbEntity
  8
Layer_1
 62
7
100
AcDbSpline
 70
8
 71
3
 72
8
 73
4
 74
0
 40
0
 40
0
 40
0
 40
0
 40
1
 40
1
 40
1
 40
1
 10
12.558024
 20
14.892660
 30
0.0
 10
12.558701
 20
14.892660
 30
0.0
 10
12.559245
 20
14.891473
 30
0.0
 10
12.559245
 20
14.890035
 30
0.0
  0
SPLINE
  5
138
100
AcDbEntity
  8
Layer_1
 62
7
100
AcDbSpline
 70
8
 71
3
 72
8
 73
4
 74
0
 40
0
 40
0
 40
0
 40
0
 40
1
 40
1
 40
1
 40
1
 10
12.559245
 20
14.890035
 30
0.0
 10
12.559245
 20
14.888597
 30
0.0
 10
12.559715
 20
14.886807
 30
0.0
 10
12.560303
 20
14.886047
 30
0.0
  0
SPLINE
  5
139
100
AcDbEntity
  8
Layer_1
 62
7
100
AcDbSpline
 70
8
 71
3
 72
8
 73
4
 74
0
 40
0
 40
0
 40
0
 40
0
 40
1
 40
1
 40
1
 40
1
 10
12.560303
 20
14.886047
 30
0.0
 10
12.560874
 20
14.885286
 30
0.0
 10
12.562120
 20
14.881066
 30
0.0
 10
12.563049
 20
14.876668
 30
0.0
  0
SPLINE
  5
13a
100
AcDbEntity
  8
Layer_1
 62
7
100
AcDbSpline
 70
8
 71
3
 72
8
 73
4
 74
0
 40
0
 40
0
 40
0
 40
0
 40
1
 40
1
 40
1
 40
1
 10
12.563049
 20
14.876668
 30
0.0
 10
12.563975
 20
14.872271
 30
0.0
 10
12.566369
 20
14.860953
 30
0.0
 10
12.568359
 20
14.851522
 30
0.0
  0
SPLINE
  5
13b
100
AcDbEntity
  8
Layer_1
 62
7
100
AcDbSpline
 70
8
 71
3
 72
8
 73
4
 74
0
 40
0
 40
0
 40
0
 40
0
 40
1
 40
1
 40
1
 40
1
 10
12.568359
 20
14.851522
 30
0.0
 10
12.572017
 20
14.834185
 30
0.0
 10
12.576045
 20
14.807852
 30
0.0
 10
12.577087
 20
14.794515
 30
0.0
  0
SPLINE
  5
13c
100
AcDbEntity
  8
Layer_1
 62
7
100
AcDbSpline
 70
8
 71
3
 72
8
 73
4
 74
0
 40
0
 40
0
 40
0
 40
0
 40
1
 40
1
 40
1
 40
1
 10
12.577087
 20
14.794515
 30
0.0
 10
12.577362
 20
14.790517
 30
0.0
 10
12.578200
 20
14.781366
 30
0.0
 10
12.578857
 20
14.774170
 30
0.0
  0
SPLINE
  5
13d
100
AcDbEntity
  8
Layer_1
 62
7
100
AcDbSpline
 70
8
 71
3
 72
8
 73
4
 74
0
 40
0
 40
0
 40
0
 40
0
 40
1
 40
1
 40
1
 40
1
 10
12.578857
 20
14.774170
 30
0.0
 10
12.581810
 20
14.742101
 30
0.0
 10
12.578370
 20
14.681776
 30
0.0
 10
12.571371
 20
14.643168
 30
0.0
  0
SPLINE
  5
13e
100
AcDbEntity
  8
Layer_1
 62
7
100
AcDbSpline
 70
8
 71
3
 72
8
 73
4
 74
0
 40
0
 40
0
 40
0
 40
0
 40
1
 40
1
 40
1
 40
1
 10
12.571371
 20
14.643168
 30
0.0
 10
12.567712
 20
14.622991
 30
0.0
 10
12.562680
 20
14.598835
 30
0.0
 10
12.561625
 20
14.596395
 30
0.0
  0
SPLINE
  5
13f
100
AcDbEntity
  8
Layer_1
 62
7
100
AcDbSpline
 70
8
 71
3
 72
8
 73
4
 74
0
 40
0
 40
0
 40
0
 40
0
 40
1
 40
1
 40
1
 40
1
 10
12.561625
 20
14.596395
 30
0.0
 10
12.561030
 20
14.595018
 30
0.0
 10
12.558894
 20
14.587362
 30
0.0
 10
12.556864
 20
14.579366
 30
0.0
  0
SPLINE
  5
140
100
AcDbEntity
  8
Layer_1
 62
7
100
AcDbSpline
 70
8
 71
3
 72
8
 73
4
 74
0
 40
0
 40
0
 40
0
 40
0
 40
1
 40
1
 40
1
 40
1
 10
12.556864
 20
14.579366
 30
0.0
 10
12.554836
 20
14.571371
 30
0.0
 10
12.552820
 20
14.564175
 30
0.0
 10
12.552388
 20
14.563375
 30
0.0
  0
SPLINE
  5
141
100
AcDbEntity
  8
Layer_1
 62
7
100
AcDbSpline
 70
8
 71
3
 72
8
 73
4
 74
0
 40
0
 40
0
 40
0
 40
0
 40
1
 40
1
 40
1
 40
1
 10
12.552388
 20
14.563375
 30
0.0
 10
12.551951
 20
14.562574
 30
0.0
 10
12.550131
 20
14.557002
 30
0.0
 10
12.548339
 20
14.551005
 30
0.0
  0
SPLINE
  5
142
100
AcDbEntity
  8
Layer_1
 62
7
100
AcDbSpline
 70
8
 71
3
 72
8
 73
4
 74
0
 40
0
 40
0
 40
0
 40
0
 40
1
 40
1
 40
1
 40
1
 10
12.548339
 20
14.551005
 30
0.0
 10
12.543338
 20
14.534266
 30
0.0
 10
12.522587
 20
14.481357
 30
0.0
 10
12.512431
 20
14.459432
 30
0.0
  0
SPLINE
  5
143
100
AcDbEntity
  8
Layer_1
 62
7
100
AcDbSpline
 70
8
 71
3
 72
8
 73
4
 74
0
 40
0
 40
0
 40
0
 40
0
 40
1
 40
1
 40
1
 40
1
 10
12.512431
 20
14.459432
 30
0.0
 10
12.504485
 20
14.442279
 30
0.0
 10
12.496356
 20
14.426283
 30
0.0
 10
12.481730
 20
14.399089
 30
0.0
  0
SPLINE
  5
144
100
AcDbEntity
  8
Layer_1
 62
7
100
AcDbSpline
 70
8
 71
3
 72
8
 73
4
 74
0
 40
0
 40
0
 40
0
 40
0
 40
1
 40
1
 40
1
 40
1
 10
12.481730
 20
14.399089
 30
0.0
 10
12.479580
 20
14.395091
 30
0.0
 10
12.474486
 20
14.386252
 30
0.0
 10
12.470419
 20
14.379456
 30
0.0
  0
SPLINE
  5
145
100
AcDbEntity
  8
Layer_1
 62
7
100
AcDbSpline
 70
8
 71
3
 72
8
 73
4
 74
0
 40
0
 40
0
 40
0
 40
0
 40
1
 40
1
 40
1
 40
1
 10
12.470419
 20
14.379456
 30
0.0
 10
12.466350
 20
14.372659
 30
0.0
 10
12.461904
 20
14.365197
 30
0.0
 10
12.460530
 20
14.362854
 30
0.0
  0
SPLINE
  5
146
100
AcDbEntity
  8
Layer_1
 62
7
100
AcDbSpline
 70
8
 71
3
 72
8
 73
4
 74
0
 40
0
 40
0
 40
0
 40
0
 40
1
 40
1
 40
1
 40
1
 10
12.460530
 20
14.362854
 30
0.0
 10
12.449937
 20
14.344786
 30
0.0
 10
12.408100
 20
14.281581
 30
0.0
 10
12.389771
 20
14.255961
 30
0.0
  0
SPLINE
  5
147
100
AcDbEntity
  8
Layer_1
 62
7
100
AcDbSpline
 70
8
 71
3
 72
8
 73
4
 74
0
 40
0
 40
0
 40
0
 40
0
 40
1
 40
1
 40
1
 40
1
 10
12.389771
 20
14.255961
 30
0.0
 10
12.350780
 20
14.201462
 30
0.0
 10
12.313303
 20
14.156523
 30
0.0
 10
12.270935
 20
14.113424
 30
0.0
  0
SPLINE
  5
148
100
AcDbEntity
  8
Layer_1
 62
7
100
AcDbSpline
 70
8
 71
3
 72
8
 73
4
 74
0
 40
0
 40
0
 40
0
 40
0
 40
1
 40
1
 40
1
 40
1
 10
12.270935
 20
14.113424
 30
0.0
 10
12.230162
 20
14.071946
 30
0.0
 10
12.206868
 20
14.048619
 30
0.0
 10
12.172242
 20
14.014567
 30
0.0
  0
SPLINE
  5
149
100
AcDbEntity
  8
Layer_1
 62
7
100
AcDbSpline
 70
8
 71
3
 72
8
 73
4
 74
0
 40
0
 40
0
 40
0
 40
0
 40
1
 40
1
 40
1
 40
1
 10
12.172242
 20
14.014567
 30
0.0
 10
12.149970
 20
13.992665
 30
0.0
 10
12.131503
 20
13.974382
 30
0.0
 10
12.131185
 20
13.973938
 30
0.0
  0
SPLINE
  5
14a
100
AcDbEntity
  8
Layer_1
 62
7
100
AcDbSpline
 70
8
 71
3
 72
8
 73
4
 74
0
 40
0
 40
0
 40
0
 40
0
 40
1
 40
1
 40
1
 40
1
 10
12.131185
 20
13.973938
 30
0.0
 10
12.130830
 20
13.973494
 30
0.0
 10
12.126701
 20
13.969204
 30
0.0
 10
12.121928
 20
13.964417
 30
0.0
  0
SPLINE
  5
14b
100
AcDbEntity
  8
Layer_1
 62
7
100
AcDbSpline
 70
8
 71
3
 72
8
 73
4
 74
0
 40
0
 40
0
 40
0
 40
0
 40
1
 40
1
 40
1
 40
1
 10
12.121928
 20
13.964417
 30
0.0
 10
12.105611
 20
13.948050
 30
0.0
 10
12.085482
 20
13.926946
 30
0.0
 10
12.083455
 20
13.924072
 30
0.0
  0
SPLINE
  5
14c
100
AcDbEntity
  8
Layer_1
 62
7
100
AcDbSpline
 70
8
 71
3
 72
8
 73
4
 74
0
 40
0
 40
0
 40
0
 40
0
 40
1
 40
1
 40
1
 40
1
 10
12.083455
 20
13.924072
 30
0.0
 10
12.082342
 20
13.922494
 30
0.0
 10
12.081421
 20
13.921546
 30
0.0
 10
12.081421
 20
13.921977
 30
0.0
  0
SPLINE
  5
14d
100
AcDbEntity
  8
Layer_1
 62
7
100
AcDbSpline
 70
8
 71
3
 72
8
 73
4
 74
0
 40
0
 40
0
 40
0
 40
0
 40
1
 40
1
 40
1
 40
1
 10
12.081421
 20
13.921977
 30
0.0
 10
12.081421
 20
13.922407
 30
0.0
 10
12.079240
 20
13.920360
 30
0.0
 10
12.076579
 20
13.917420
 30
0.0
  0
SPLINE
  5
14e
100
AcDbEntity
  8
Layer_1
 62
7
100
AcDbSpline
 70
8
 71
3
 72
8
 73
4
 74
0
 40
0
 40
0
 40
0
 40
0
 40
1
 40
1
 40
1
 40
1
 10
12.076579
 20
13.917420
 30
0.0
 10
12.038368
 20
13.875281
 30
0.0
 10
11.995471
 20
13.820366
 30
0.0
 10
11.962239
 20
13.771057
 30
0.0
  0
SPLINE
  5
14f
100
AcDbEntity
  8
Layer_1
 62
7
100
AcDbSpline
 70
8
 71
3
 72
8
 73
4
 74
0
 40
0
 40
0
 40
0
 40
0
 40
1
 40
1
 40
1
 40
1
 10
11.962239
 20
13.771057
 30
0.0
 10
11.956850
 20
13.763061
 30
0.0
 10
11.951913
 20
13.755815
 30
0.0
 10
11.951274
 20
13.754944
 30
0.0
  0
SPLINE
  5
150
100
AcDbEntity
  8
Layer_1
 62
7
100
AcDbSpline
 70
8
 71
3
 72
8
 73
4
 74
0
 40
0
 40
0
 40
0
 40
0
 40
1
 40
1
 40
1
 40
1
 10
11.951274
 20
13.754944
 30
0.0
 10
11.945139
 20
13.746596
 30
0.0
 10
11.911372
 20
13.692692
 30
0.0
 10
11.903259
 20
13.678304
 30
0.0
  0
SPLINE
  5
151
100
AcDbEntity
  8
Layer_1
 62
7
100
AcDbSpline
 70
8
 71
3
 72
8
 73
4
 74
0
 40
0
 40
0
 40
0
 40
0
 40
1
 40
1
 40
1
 40
1
 10
11.903259
 20
13.678304
 30
0.0
 10
11.899763
 20
13.672097
 30
0.0
 10
11.893286
 20
13.660663
 30
0.0
 10
11.888875
 20
13.652893
 30
0.0
  0
SPLINE
  5
152
100
AcDbEntity
  8
Layer_1
 62
7
100
AcDbSpline
 70
8
 71
3
 72
8
 73
4
 74
0
 40
0
 40
0
 40
0
 40
0
 40
1
 40
1
 40
1
 40
1
 10
11.888875
 20
13.652893
 30
0.0
 10
11.858467
 20
13.599334
 30
0.0
 10
11.829120
 20
13.533150
 30
0.0
 10
11.808167
 20
13.470846
 30
0.0
  0
SPLINE
  5
153
100
AcDbEntity
  8
Layer_1
 62
7
100
AcDbSpline
 70
8
 71
3
 72
8
 73
4
 74
0
 40
0
 40
0
 40
0
 40
0
 40
1
 40
1
 40
1
 40
1
 10
11.808167
 20
13.470846
 30
0.0
 10
11.805611
 20
13.463249
 30
0.0
 10
11.801244
 20
13.450958
 30
0.0
 10
11.798442
 20
13.443522
 30
0.0
  0
SPLINE
  5
154
100
AcDbEntity
  8
Layer_1
 62
7
100
AcDbSpline
 70
8
 71
3
 72
8
 73
4
 74
0
 40
0
 40
0
 40
0
 40
0
 40
1
 40
1
 40
1
 40
1
 10
11.798442
 20
13.443522
 30
0.0
 10
11.795643
 20
13.436087
 30
0.0
 10
11.793335
 20
13.429530
 30
0.0
 10
11.793335
 20
13.428955
 30
0.0
  0
SPLINE
  5
155
100
AcDbEntity
  8
Layer_1
 62
7
100
AcDbSpline
 70
8
 71
3
 72
8
 73
4
 74
0
 40
0
 40
0
 40
0
 40
0
 40
1
 40
1
 40
1
 40
1
 10
11.793335
 20
13.428955
 30
0.0
 10
11.793335
 20
13.428381
 30
0.0
 10
11.792006
 20
13.425435
 30
0.0
 10
11.790364
 20
13.422404
 30
0.0
  0
SPLINE
  5
156
100
AcDbEntity
  8
Layer_1
 62
7
100
AcDbSpline
 70
8
 71
3
 72
8
 73
4
 74
0
 40
0
 40
0
 40
0
 40
0
 40
1
 40
1
 40
1
 40
1
 10
11.790364
 20
13.422404
 30
0.0
 10
11.787924
 20
13.417888
 30
0.0
 10
11.787077
 20
13.417210
 30
0.0
 10
11.785705
 20
13.418640
 30
0.0
  0
SPLINE
  5
157
100
AcDbEntity
  8
Layer_1
 62
7
100
AcDbSpline
 70
8
 71
3
 72
8
 73
4
 74
0
 40
0
 40
0
 40
0
 40
0
 40
1
 40
1
 40
1
 40
1
 10
11.785705
 20
13.418640
 30
0.0
 10
11.784320
 20
13.420086
 30
0.0
 10
11.784170
 20
13.419900
 30
0.0
 10
11.784851
 20
13.417623
 30
0.0
  0
SPLINE
  5
158
100
AcDbEntity
  8
Layer_1
 62
7
100
AcDbSpline
 70
8
 71
3
 72
8
 73
4
 74
0
 40
0
 40
0
 40
0
 40
0
 40
1
 40
1
 40
1
 40
1
 10
11.784851
 20
13.417623
 30
0.0
 10
11.785592
 20
13.415110
 30
0.0
 10
11.785498
 20
13.415061
 30
0.0
 10
11.783549
 20
13.417053
 30
0.0
  0
SPLINE
  5
159
100
AcDbEntity
  8
Layer_1
 62
7
100
AcDbSpline
 70
8
 71
3
 72
8
 73
4
 74
0
 40
0
 40
0
 40
0
 40
0
 40
1
 40
1
 40
1
 40
1
 10
11.783549
 20
13.417053
 30
0.0
 10
11.781915
 20
13.418716
 30
0.0
 10
11.781274
 20
13.418805
 30
0.0
 10
11.780904
 20
13.417420
 30
0.0
  0
SPLINE
  5
15a
100
AcDbEntity
  8
Layer_1
 62
7
100
AcDbSpline
 70
8
 71
3
 72
8
 73
4
 74
0
 40
0
 40
0
 40
0
 40
0
 40
1
 40
1
 40
1
 40
1
 10
11.780904
 20
13.417420
 30
0.0
 10
11.780384
 20
13.415464
 30
0.0
 10
11.775286
 20
13.414887
 30
0.0
 10
11.774434
 20
13.416687
 30
0.0
  0
SPLINE
  5
15b
100
AcDbEntity
  8
Layer_1
 62
7
100
AcDbSpline
 70
8
 71
3
 72
8
 73
4
 74
0
 40
0
 40
0
 40
0
 40
0
 40
1
 40
1
 40
1
 40
1
 10
11.774434
 20
13.416687
 30
0.0
 10
11.774158
 20
13.417287
 30
0.0
 10
11.771808
 20
13.424004
 30
0.0
 10
11.769247
 20
13.431600
 30
0.0
  0
SPLINE
  5
15c
100
AcDbEntity
  8
Layer_1
 62
7
100
AcDbSpline
 70
8
 71
3
 72
8
 73
4
 74
0
 40
0
 40
0
 40
0
 40
0
 40
1
 40
1
 40
1
 40
1
 10
11.769247
 20
13.431600
 30
0.0
 10
11.752635
 20
13.480816
 30
0.0
 10
11.725410
 20
13.549972
 30
0.0
 10
11.707072
 20
13.589518
 30
0.0
  0
SPLINE
  5
15d
100
AcDbEntity
  8
Layer_1
 62
7
100
AcDbSpline
 70
8
 71
3
 72
8
 73
4
 74
0
 40
0
 40
0
 40
0
 40
0
 40
1
 40
1
 40
1
 40
1
 10
11.707072
 20
13.589518
 30
0.0
 10
11.648972
 20
13.714813
 30
0.0
 10
11.547184
 20
13.862447
 30
0.0
 10
11.457112
 20
13.952047
 30
0.0
  0
SPLINE
  5
15e
100
AcDbEntity
  8
Layer_1
 62
7
100
AcDbSpline
 70
8
 71
3
 72
8
 73
4
 74
0
 40
0
 40
0
 40
0
 40
0
 40
1
 40
1
 40
1
 40
1
 10
11.457112
 20
13.952047
 30
0.0
 10
11.455101
 20
13.954045
 30
0.0
 10
11.445828
 20
13.963400
 30
0.0
 10
11.436503
 20
13.972819
 30
0.0
  0
SPLINE
  5
15f
100
AcDbEntity
  8
Layer_1
 62
7
100
AcDbSpline
 70
8
 71
3
 72
8
 73
4
 74
0
 40
0
 40
0
 40
0
 40
0
 40
1
 40
1
 40
1
 40
1
 10
11.436503
 20
13.972819
 30
0.0
 10
11.427177
 20
13.982237
 30
0.0
 10
11.403287
 20
14.005743
 30
0.0
 10
11.383423
 20
14.025065
 30
0.0
  0
SPLINE
  5
160
100
AcDbEntity
  8
Layer_1
 62
7
100
AcDbSpline
 70
8
 71
3
 72
8
 73
4
 74
0
 40
0
 40
0
 40
0
 40
0
 40
1
 40
1
 40
1
 40
1
 10
11.383423
 20
14.025065
 30
0.0
 10
11.363557
 20
14.044387
 30
0.0
 10
11.340847
 20
14.066769
 30
0.0
 10
11.332947
 20
14.074809
 30
0.0
  0
SPLINE
  5
161
100
AcDbEntity
  8
Layer_1
 62
7
100
AcDbSpline
 70
8
 71
3
 72
8
 73
4
 74
0
 40
0
 40
0
 40
0
 40
0
 40
1
 40
1
 40
1
 40
1
 10
11.332947
 20
14.074809
 30
0.0
 10
11.325047
 20
14.082849
 30
0.0
 10
11.315417
 20
14.092649
 30
0.0
 10
11.311544
 20
14.096578
 30
0.0
  0
SPLINE
  5
162
100
AcDbEntity
  8
Layer_1
 62
7
100
AcDbSpline
 70
8
 71
3
 72
8
 73
4
 74
0
 40
0
 40
0
 40
0
 40
0
 40
1
 40
1
 40
1
 40
1
 10
11.311544
 20
14.096578
 30
0.0
 10
11.271389
 20
14.137326
 30
0.0
 10
11.207664
 20
14.212733
 30
0.0
 10
11.171977
 20
14.261739
 30
0.0
  0
SPLINE
  5
163
100
AcDbEntity
  8
Layer_1
 62
7
100
AcDbSpline
 70
8
 71
3
 72
8
 73
4
 74
0
 40
0
 40
0
 40
0
 40
0
 40
1
 40
1
 40
1
 40
1
 10
11.171977
 20
14.261739
 30
0.0
 10
11.112838
 20
14.342946
 30
0.0
 10
11.069311
 20
14.417310
 30
0.0
 10
11.035440
 20
14.495036
 30
0.0
  0
SPLINE
  5
164
100
AcDbEntity
  8
Layer_1
 62
7
100
AcDbSpline
 70
8
 71
3
 72
8
 73
4
 74
0
 40
0
 40
0
 40
0
 40
0
 40
1
 40
1
 40
1
 40
1
 10
11.035440
 20
14.495036
 30
0.0
 10
11.004480
 20
14.566081
 30
0.0
 10
10.987512
 20
14.631928
 30
0.0
 10
10.981160
 20
14.705627
 30
0.0
  0
SPLINE
  5
165
100
AcDbEntity
  8
Layer_1
 62
7
100
AcDbSpline
 70
8
 71
3
 72
8
 73
4
 74
0
 40
0
 40
0
 40
0
 40
0
 40
1
 40
1
 40
1
 40
1
 10
10.981160
 20
14.705627
 30
0.0
 10
10.979514
 20
14.724700
 30
0.0
 10
10.979476
 20
14.774593
 30
0.0
 10
10.981058
 20
14.794515
 30
0.0
  0
SPLINE
  5
166
100
AcDbEntity
  8
Layer_1
 62
7
100
AcDbSpline
 70
8
 71
3
 72
8
 73
4
 74
0
 40
0
 40
0
 40
0
 40
0
 40
1
 40
1
 40
1
 40
1
 10
10.981058
 20
14.794515
 30
0.0
 10
10.988700
 20
14.889231
 30
0.0
 10
11.015832
 20
14.967065
 30
0.0
 10
11.067729
 20
15.043111
 30
0.0
  0
SPLINE
  5
167
100
AcDbEntity
  8
Layer_1
 62
7
100
AcDbSpline
 70
8
 71
3
 72
8
 73
4
 74
0
 40
0
 40
0
 40
0
 40
0
 40
1
 40
1
 40
1
 40
1
 10
11.067729
 20
15.043111
 30
0.0
 10
11.145964
 20
15.157757
 30
0.0
 10
11.244967
 20
15.215983
 30
0.0
 10
11.360839
 20
15.215515
 30
0.0
  0
SPLINE
  5
168
100
AcDbEntity
  8
Layer_1
 62
7
100
AcDbSpline
 70
8
 71
3
 72
8
 73
4
 74
0
 40
0
 40
0
 40
0
 40
0
 40
1
 40
1
 40
1
 40
1
 10
11.360839
 20
15.215515
 30
0.0
 10
11.388255
 20
15.215397
 30
0.0
 10
11.397697
 20
15.214226
 30
0.0
 10
11.425964
 20
15.207316
 30
0.0
  0
SPLINE
  5
169
100
AcDbEntity
  8
Layer_1
 62
7
100
AcDbSpline
 70
8
 71
3
 72
8
 73
4
 74
0
 40
0
 40
0
 40
0
 40
0
 40
1
 40
1
 40
1
 40
1
 10
11.425964
 20
15.207316
 30
0.0
 10
11.572130
 20
15.171582
 30
0.0
 10
11.679064
 20
15.072309
 30
0.0
 10
11.772379
 20
14.885742
 30
0.0
  0
SPLINE
  5
16a
100
AcDbEntity
  8
Layer_1
 62
7
100
AcDbSpline
 70
8
 71
3
 72
8
 73
4
 74
0
 40
0
 40
0
 40
0
 40
0
 40
1
 40
1
 40
1
 40
1
 10
11.772379
 20
14.885742
 30
0.0
 10
11.774478
 20
14.881545
 30
0.0
 10
11.776525
 20
14.878112
 30
0.0
 10
11.776936
 20
14.878113
 30
0.0
  0
SPLINE
  5
16b
100
AcDbEntity
  8
Layer_1
 62
7
100
AcDbSpline
 70
8
 71
3
 72
8
 73
4
 74
0
 40
0
 40
0
 40
0
 40
0
 40
1
 40
1
 40
1
 40
1
 10
11.776936
 20
14.878113
 30
0.0
 10
11.777354
 20
14.878114
 30
0.0
 10
11.784522
 20
14.891029
 30
0.0
 10
11.792887
 20
14.906820
 30
0.0
  0
SPLINE
  5
16c
100
AcDbEntity
  8
Layer_1
 62
7
100
AcDbSpline
 70
8
 71
3
 72
8
 73
4
 74
0
 40
0
 40
0
 40
0
 40
0
 40
1
 40
1
 40
1
 40
1
 10
11.792887
 20
14.906820
 30
0.0
 10
11.821686
 20
14.961183
 30
0.0
 10
11.844362
 20
14.997110
 30
0.0
 10
11.873657
 20
15.034831
 30
0.0
  0
SPLINE
  5
16d
100
AcDbEntity
  8
Layer_1
 62
7
100
AcDbSpline
 70
8
 71
3
 72
8
 73
4
 74
0
 40
0
 40
0
 40
0
 40
0
 40
1
 40
1
 40
1
 40
1
 10
11.873657
 20
15.034831
 30
0.0
 10
11.948632
 20
15.131368
 30
0.0
 10
12.031722
 20
15.185954
 30
0.0
 10
12.140971
 20
15.210429
 30
0.0
  0
SPLINE
  5
16e
100
AcDbEntity
  8
Layer_1
 62
7
100
AcDbSpline
 70
8
 71
3
 72
8
 73
4
 74
0
 40
0
 40
0
 40
0
 40
0
 40
1
 40
1
 40
1
 40
1
 10
12.140971
 20
15.210429
 30
0.0
 10
12.155201
 20
15.213618
 30
0.0
 10
12.163326
 20
15.214495
 30
0.0
 10
12.186096
 20
15.215230
 30
0.0
  0
SPLINE
  5
16f
100
AcDbEntity
  8
Layer_1
 62
7
100
AcDbSpline
 70
8
 71
3
 72
8
 73
4
 74
0
 40
0
 40
0
 40
0
 40
0
 40
1
 40
1
 40
1
 40
1
 10
12.186096
 20
15.215230
 30
0.0
 10
12.193977
 20
15.215486
 30
0.0
 10
12.200500
 20
15.215629
 30
0.0
 10
12.206237
 20
15.215617
 30
0.0
  0
LWPOLYLINE
  5
170
100
AcDbEntity
  8
Layer_1
 62
7
100
AcDbPolyline
 90
2
 70
1
 10
12.206237
 20
15.215617
 30
0.0
 10
12.206258
 20
15.215617
 30
0.0
  0
SPLINE
  5
171
100
AcDbEntity
  8
Layer_1
 62
7
100
AcDbSpline
 70
8
 71
3
 72
8
 73
4
 74
0
 40
0
 40
0
 40
0
 40
0
 40
1
 40
1
 40
1
 40
1
 10
7.811401
 20
12.704732
 30
0.0
 10
8.007422
 20
12.690033
 30
0.0
 10
8.515289
 20
12.578705
 30
0.0
 10
8.940002
 20
12.457316
 30
0.0
  0
SPLINE
  5
172
100
AcDbEntity
  8
Layer_1
 62
7
100
AcDbSpline
 70
8
 71
3
 72
8
 73
4
 74
0
 40
0
 40
0
 40
0
 40
0
 40
1
 40
1
 40
1
 40
1
 10
8.940002
 20
12.457316
 30
0.0
 10
9.485724
 20
12.301342
 30
0.0
 10
9.842877
 20
12.230962
 30
0.0
 10
10.157715
 20
12.217387
 30
0.0
  0
SPLINE
  5
173
100
AcDbEntity
  8
Layer_1
 62
7
100
AcDbSpline
 70
8
 71
3
 72
8
 73
4
 74
0
 40
0
 40
0
 40
0
 40
0
 40
1
 40
1
 40
1
 40
1
 10
10.157715
 20
12.217387
 30
0.0
 10
10.570484
 20
12.199588
 30
0.0
 10
10.604433
 20
12.189285
 30
0.0
 10
10.619812
 20
12.077169
 30
0.0
  0
SPLINE
  5
174
100
AcDbEntity
  8
Layer_1
 62
7
100
AcDbSpline
 70
8
 71
3
 72
8
 73
4
 74
0
 40
0
 40
0
 40
0
 40
0
 40
1
 40
1
 40
1
 40
1
 10
10.619812
 20
12.077169
 30
0.0
 10
10.628943
 20
12.010615
 30
0.0
 10
10.676094
 20
11.801898
 30
0.0
 10
10.724588
 20
11.613342
 30
0.0
  0
SPLINE
  5
175
100
AcDbEntity
  8
Layer_1
 62
7
100
AcDbSpline
 70
8
 71
3
 72
8
 73
4
 74
0
 40
0
 40
0
 40
0
 40
0
 40
1
 40
1
 40
1
 40
1
 10
10.724588
 20
11.613342
 30
0.0
 10
10.773082
 20
11.424787
 30
0.0
 10
10.852034
 20
10.849056
 30
0.0
 10
10.900024
 20
10.333944
 30
0.0
  0
SPLINE
  5
176
100
AcDbEntity
  8
Layer_1
 62
7
100
AcDbSpline
 70
8
 71
3
 72
8
 73
4
 74
0
 40
0
 40
0
 40
0
 40
0
 40
1
 40
1
 40
1
 40
1
 10
10.900024
 20
10.333944
 30
0.0
 10
10.997752
 20
9.284986
 30
0.0
 10
11.023212
 20
9.158103
 30
0.0
 10
11.169738
 20
8.989991
 30
0.0
  0
SPLINE
  5
177
100
AcDbEntity
  8
Layer_1
 62
7
100
AcDbSpline
 70
8
 71
3
 72
8
 73
4
 74
0
 40
0
 40
0
 40
0
 40
0
 40
1
 40
1
 40
1
 40
1
 10
11.169738
 20
8.989991
 30
0.0
 10
11.226330
 20
8.925062
 30
0.0
 10
11.290256
 20
8.758920
 30
0.0
 10
11.311808
 20
8.620789
 30
0.0
  0
SPLINE
  5
178
100
AcDbEntity
  8
Layer_1
 62
7
100
AcDbSpline
 70
8
 71
3
 72
8
 73
4
 74
0
 40
0
 40
0
 40
0
 40
0
 40
1
 40
1
 40
1
 40
1
 10
11.311808
 20
8.620789
 30
0.0
 10
11.320638
 20
8.564202
 30
0.0
 10
11.330759
 20
8.513669
 30
0.0
 10
11.341471
 20
8.465902
 30
0.0
  0
LWPOLYLINE
  5
179
100
AcDbEntity
  8
Layer_1
 62
7
100
AcDbPolyline
 90
2
 70
0
 10
7.454997
 20
12.731466
 30
0.0
 10
7.811401
 20
12.704732
 30
0.0
  0
SPLINE
  5
17a
100
AcDbEntity
  8
Layer_1
 62
7
100
AcDbSpline
 70
8
 71
3
 72
8
 73
4
 74
0
 40
0
 40
0
 40
0
 40
0
 40
1
 40
1
 40
1
 40
1
 10
4.258036
 20
8.465963
 30
0.0
 10
4.230500
 20
8.516732
 30
0.0
 10
4.196601
 20
8.573883
 30
0.0
 10
4.151957
 20
8.643168
 30
0.0
  0
SPLINE
  5
17b
100
AcDbEntity
  8
Layer_1
 62
7
100
AcDbSpline
 70
8
 71
3
 72
8
 73
4
 74
0
 40
0
 40
0
 40
0
 40
0
 40
1
 40
1
 40
1
 40
1
 10
4.151957
 20
8.643168
 30
0.0
 10
3.983519
 20
8.904585
 30
0.0
 10
3.969318
 20
8.962693
 30
0.0
 10
3.989075
 20
9.310242
 30
0.0
  0
SPLINE
  5
17c
100
AcDbEntity
  8
Layer_1
 62
7
100
AcDbSpline
 70
8
 71
3
 72
8
 73
4
 74
0
 40
0
 40
0
 40
0
 40
0
 40
1
 40
1
 40
1
 40
1
 10
3.989075
 20
9.310242
 30
0.0
 10
4.007989
 20
9.642806
 30
0.0
 10
4.051994
 20
9.767020
 30
0.0
 10
4.336955
 20
10.292277
 30
0.0
  0
SPLINE
  5
17d
100
AcDbEntity
  8
Layer_1
 62
7
100
AcDbSpline
 70
8
 71
3
 72
8
 73
4
 74
0
 40
0
 40
0
 40
0
 40
0
 40
1
 40
1
 40
1
 40
1
 10
4.336955
 20
10.292277
 30
0.0
 10
4.516378
 20
10.622997
 30
0.0
 10
4.817697
 20
11.071498
 30
0.0
 10
5.006571
 20
11.288941
 30
0.0
  0
SPLINE
  5
17e
100
AcDbEntity
  8
Layer_1
 62
7
100
AcDbSpline
 70
8
 71
3
 72
8
 73
4
 74
0
 40
0
 40
0
 40
0
 40
0
 40
1
 40
1
 40
1
 40
1
 10
5.006571
 20
11.288941
 30
0.0
 10
5.195447
 20
11.506383
 30
0.0
 10
5.430721
 20
11.834456
 30
0.0
 10
5.529378
 20
12.018006
 30
0.0
  0
SPLINE
  5
17f
100
AcDbEntity
  8
Layer_1
 62
7
100
AcDbSpline
 70
8
 71
3
 72
8
 73
4
 74
0
 40
0
 40
0
 40
0
 40
0
 40
1
 40
1
 40
1
 40
1
 10
5.529378
 20
12.018006
 30
0.0
 10
5.628037
 20
12.201555
 30
0.0
 10
5.718523
 20
12.351725
 30
0.0
 10
5.730489
 20
12.351725
 30
0.0
  0
SPLINE
  5
180
100
AcDbEntity
  8
Layer_1
 62
7
100
AcDbSpline
 70
8
 71
3
 72
8
 73
4
 74
0
 40
0
 40
0
 40
0
 40
0
 40
1
 40
1
 40
1
 40
1
 10
5.730489
 20
12.351725
 30
0.0
 10
5.742448
 20
12.351725
 30
0.0
 10
5.780476
 20
12.234782
 30
0.0
 10
5.815002
 20
12.091838
 30
0.0
  0
SPLINE
  5
181
100
AcDbEntity
  8
Layer_1
 62
7
100
AcDbSpline
 70
8
 71
3
 72
8
 73
4
 74
0
 40
0
 40
0
 40
0
 40
0
 40
1
 40
1
 40
1
 40
1
 10
5.815002
 20
12.091838
 30
0.0
 10
5.893700
 20
11.766003
 30
0.0
 10
5.807851
 20
11.491174
 30
0.0
 10
5.503214
 20
11.093791
 30
0.0
  0
SPLINE
  5
182
100
AcDbEntity
  8
Layer_1
 62
7
100
AcDbSpline
 70
8
 71
3
 72
8
 73
4
 74
0
 40
0
 40
0
 40
0
 40
0
 40
1
 40
1
 40
1
 40
1
 10
5.503214
 20
11.093791
 30
0.0
 10
5.291591
 20
10.817732
 30
0.0
 10
5.286886
 20
10.800607
 30
0.0
 10
5.286886
 20
10.306966
 30
0.0
  0
SPLINE
  5
183
100
AcDbEntity
  8
Layer_1
 62
7
100
AcDbSpline
 70
8
 71
3
 72
8
 73
4
 74
0
 40
0
 40
0
 40
0
 40
0
 40
1
 40
1
 40
1
 40
1
 10
5.286886
 20
10.306966
 30
0.0
 10
5.286886
 20
9.582269
 30
0.0
 10
5.383931
 20
9.145619
 30
0.0
 10
5.584615
 20
8.967427
 30
0.0
  0
SPLINE
  5
184
100
AcDbEntity
  8
Layer_1
 62
7
100
AcDbSpline
 70
8
 71
3
 72
8
 73
4
 74
0
 40
0
 40
0
 40
0
 40
0
 40
1
 40
1
 40
1
 40
1
 10
5.584615
 20
8.967427
 30
0.0
 10
5.778442
 20
8.795324
 30
0.0
 10
6.018933
 20
8.732327
 30
0.0
 10
6.230204
 20
8.798299
 30
0.0
  0
SPLINE
  5
185
100
AcDbEntity
  8
Layer_1
 62
7
100
AcDbSpline
 70
8
 71
3
 72
8
 73
4
 74
0
 40
0
 40
0
 40
0
 40
0
 40
1
 40
1
 40
1
 40
1
 10
6.230204
 20
8.798299
 30
0.0
 10
6.477309
 20
8.875461
 30
0.0
 10
6.451770
 20
9.001707
 30
0.0
 10
6.152038
 20
9.184815
 30
0.0
  0
SPLINE
  5
186
100
AcDbEntity
  8
Layer_1
 62
7
100
AcDbSpline
 70
8
 71
3
 72
8
 73
4
 74
0
 40
0
 40
0
 40
0
 40
0
 40
1
 40
1
 40
1
 40
1
 10
6.152038
 20
9.184815
 30
0.0
 10
5.843536
 20
9.373286
 30
0.0
 10
5.791599
 20
9.494020
 30
0.0
 10
5.847656
 20
9.892395
 30
0.0
  0
SPLINE
  5
187
100
AcDbEntity
  8
Layer_1
 62
7
100
AcDbSpline
 70
8
 71
3
 72
8
 73
4
 74
0
 40
0
 40
0
 40
0
 40
0
 40
1
 40
1
 40
1
 40
1
 10
5.847656
 20
9.892395
 30
0.0
 10
5.919585
 20
10.403568
 30
0.0
 10
6.040403
 20
10.655228
 30
0.0
 10
6.377970
 20
10.996969
 30
0.0
  0
SPLINE
  5
188
100
AcDbEntity
  8
Layer_1
 62
7
100
AcDbSpline
 70
8
 71
3
 72
8
 73
4
 74
0
 40
0
 40
0
 40
0
 40
0
 40
1
 40
1
 40
1
 40
1
 10
6.377970
 20
10.996969
 30
0.0
 10
6.842192
 20
11.466930
 30
0.0
 10
7.074398
 20
11.802671
 30
0.0
 10
7.276794
 20
12.296590
 30
0.0
  0
LWPOLYLINE
  5
189
100
AcDbEntity
  8
Layer_1
 62
7
100
AcDbPolyline
 90
2
 70
0
 10
11.341471
 20
8.465902
 30
0.0
 10
4.258036
 20
8.465963
 30
0.0
  0
SPLINE
  5
18a
100
AcDbEntity
  8
Layer_1
 62
7
100
AcDbSpline
 70
8
 71
3
 72
8
 73
4
 74
0
 40
0
 40
0
 40
0
 40
0
 40
1
 40
1
 40
1
 40
1
 10
12.007059
 20
12.062968
 30
0.0
 10
12.120844
 20
12.063089
 30
0.0
 10
12.249947
 20
11.123478
 30
0.0
 10
12.249511
 20
10.268392
 30
0.0
  0
SPLINE
  5
18b
100
AcDbEntity
  8
Layer_1
 62
7
100
AcDbSpline
 70
8
 71
3
 72
8
 73
4
 74
0
 40
0
 40
0
 40
0
 40
0
 40
1
 40
1
 40
1
 40
1
 10
12.249511
 20
10.268392
 30
0.0
 10
12.249177
 20
9.612430
 30
0.0
 10
12.269610
 20
9.350543
 30
0.0
 10
12.325602
 20
9.292664
 30
0.0
  0
SPLINE
  5
18c
100
AcDbEntity
  8
Layer_1
 62
7
100
AcDbSpline
 70
8
 71
3
 72
8
 73
4
 74
0
 40
0
 40
0
 40
0
 40
0
 40
1
 40
1
 40
1
 40
1
 10
12.325602
 20
9.292664
 30
0.0
 10
12.367695
 20
9.249151
 30
0.0
 10
12.450669
 20
9.075127
 30
0.0
 10
12.510009
 20
8.905945
 30
0.0
  0
SPLINE
  5
18d
100
AcDbEntity
  8
Layer_1
 62
7
100
AcDbSpline
 70
8
 71
3
 72
8
 73
4
 74
0
 40
0
 40
0
 40
0
 40
0
 40
1
 40
1
 40
1
 40
1
 10
12.510009
 20
8.905945
 30
0.0
 10
12.599464
 20
8.650905
 30
0.0
 10
12.699390
 20
8.529605
 30
0.0
 10
12.937032
 20
8.465881
 30
0.0
  0
LWPOLYLINE
  5
18e
100
AcDbEntity
  8
Layer_1
 62
7
100
AcDbPolyline
 90
3
 70
0
 10
7.276794
 20
12.296590
 30
0.0
 10
7.454997
 20
12.731466
 30
0.0
 10
7.454997
 20
12.731466
 30
0.0
  0
SPLINE
  5
18f
100
AcDbEntity
  8
Layer_1
 62
7
100
AcDbSpline
 70
8
 71
3
 72
8
 73
4
 74
0
 40
0
 40
0
 40
0
 40
0
 40
1
 40
1
 40
1
 40
1
 10
12.322754
 20
8.465881
 30
0.0
 10
11.698929
 20
8.905335
 30
0.0
 10
11.602420
 20
9.187913
 30
0.0
 10
11.658610
 20
10.371623
 30
0.0
  0
SPLINE
  5
190
100
AcDbEntity
  8
Layer_1
 62
7
100
AcDbSpline
 70
8
 71
3
 72
8
 73
4
 74
0
 40
0
 40
0
 40
0
 40
0
 40
1
 40
1
 40
1
 40
1
 10
11.658610
 20
10.371623
 30
0.0
 10
11.689603
 20
11.024539
 30
0.0
 10
11.884319
 20
11.998640
 30
0.0
 10
11.996094
 20
12.059977
 30
0.0
  0
SPLINE
  5
191
100
AcDbEntity
  8
Layer_1
 62
7
100
AcDbSpline
 70
8
 71
3
 72
8
 73
4
 74
0
 40
0
 40
0
 40
0
 40
0
 40
1
 40
1
 40
1
 40
1
 10
11.996094
 20
12.059977
 30
0.0
 10
11.999727
 20
12.061971
 30
0.0
 10
12.003389
 20
12.062964
 30
0.0
 10
12.007059
 20
12.062968
 30
0.0
  0
LWPOLYLINE
  5
192
100
AcDbEntity
  8
Layer_1
 62
7
100
AcDbPolyline
 90
2
 70
0
 10
12.937032
 20
8.465881
 30
0.0
 10
12.322754
 20
8.465881
 30
0.0
  0
SPLINE
  5
193
100
AcDbEntity
  8
Layer_1
 62
7
100
AcDbSpline
 70
8
 71
3
 72
8
 73
4
 74
0
 40
0
 40
0
 40
0
 40
0
 40
1
 40
1
 40
1
 40
1
 10
2.224894
 20
7.855631
 30
0.0
 10
2.228879
 20
7.855631
 30
0.0
 10
2.236702
 20
7.854091
 30
0.0
 10
2.248576
 20
7.850891
 30
0.0
  0
SPLINE
  5
194
100
AcDbEntity
  8
Layer_1
 62
7
100
AcDbSpline
 70
8
 71
3
 72
8
 73
4
 74
0
 40
0
 40
0
 40
0
 40
0
 40
1
 40
1
 40
1
 40
1
 10
2.248576
 20
7.850891
 30
0.0
 10
2.281867
 20
7.841918
 30
0.0
 10
2.327256
 20
7.809832
 30
0.0
 10
2.344665
 20
7.782960
 30
0.0
  0
SPLINE
  5
195
100
AcDbEntity
  8
Layer_1
 62
7
100
AcDbSpline
 70
8
 71
3
 72
8
 73
4
 74
0
 40
0
 40
0
 40
0
 40
0
 40
1
 40
1
 40
1
 40
1
 10
2.344665
 20
7.782960
 30
0.0
 10
2.349914
 20
7.774858
 30
0.0
 10
2.367908
 20
7.767378
 30
0.0
 10
2.392517
 20
7.763082
 30
0.0
  0
SPLINE
  5
196
100
AcDbEntity
  8
Layer_1
 62
7
100
AcDbSpline
 70
8
 71
3
 72
8
 73
4
 74
0
 40
0
 40
0
 40
0
 40
0
 40
1
 40
1
 40
1
 40
1
 10
2.392517
 20
7.763082
 30
0.0
 10
2.414214
 20
7.759295
 30
0.0
 10
2.446548
 20
7.746767
 30
0.0
 10
2.464376
 20
7.735250
 30
0.0
  0
SPLINE
  5
197
100
AcDbEntity
  8
Layer_1
 62
7
100
AcDbSpline
 70
8
 71
3
 72
8
 73
4
 74
0
 40
0
 40
0
 40
0
 40
0
 40
1
 40
1
 40
1
 40
1
 10
2.464376
 20
7.735250
 30
0.0
 10
2.492417
 20
7.717137
 30
0.0
 10
2.502477
 20
7.705553
 30
0.0
 10
2.538900
 20
7.649332
 30
0.0
  0
SPLINE
  5
198
100
AcDbEntity
  8
Layer_1
 62
7
100
AcDbSpline
 70
8
 71
3
 72
8
 73
4
 74
0
 40
0
 40
0
 40
0
 40
0
 40
1
 40
1
 40
1
 40
1
 10
2.538900
 20
7.649332
 30
0.0
 10
2.578929
 20
7.587540
 30
0.0
 10
2.581354
 20
7.581802
 30
0.0
 10
2.588074
 20
7.532755
 30
0.0
  0
SPLINE
  5
199
100
AcDbEntity
  8
Layer_1
 62
7
100
AcDbSpline
 70
8
 71
3
 72
8
 73
4
 74
0
 40
0
 40
0
 40
0
 40
0
 40
1
 40
1
 40
1
 40
1
 10
2.588074
 20
7.532755
 30
0.0
 10
2.596194
 20
7.473488
 30
0.0
 10
2.586920
 20
7.412388
 30
0.0
 10
2.564311
 20
7.376180
 30
0.0
  0
SPLINE
  5
19a
100
AcDbEntity
  8
Layer_1
 62
7
100
AcDbSpline
 70
8
 71
3
 72
8
 73
4
 74
0
 40
0
 40
0
 40
0
 40
0
 40
1
 40
1
 40
1
 40
1
 10
2.564311
 20
7.376180
 30
0.0
 10
2.542152
 20
7.340693
 30
0.0
 10
2.495077
 20
7.311485
 30
0.0
 10
2.456502
 20
7.309286
 30
0.0
  0
SPLINE
  5
19b
100
AcDbEntity
  8
Layer_1
 62
7
100
AcDbSpline
 70
8
 71
3
 72
8
 73
4
 74
0
 40
0
 40
0
 40
0
 40
0
 40
1
 40
1
 40
1
 40
1
 10
2.456502
 20
7.309286
 30
0.0
 10
2.389695
 20
7.305478
 30
0.0
 10
2.324529
 20
7.346198
 30
0.0
 10
2.274923
 20
7.422770
 30
0.0
  0
SPLINE
  5
19c
100
AcDbEntity
  8
Layer_1
 62
7
100
AcDbSpline
 70
8
 71
3
 72
8
 73
4
 74
0
 40
0
 40
0
 40
0
 40
0
 40
1
 40
1
 40
1
 40
1
 10
2.274923
 20
7.422770
 30
0.0
 10
2.206913
 20
7.527749
 30
0.0
 10
2.205916
 20
7.654128
 30
0.0
 10
2.272481
 20
7.725891
 30
0.0
  0
SPLINE
  5
19d
100
AcDbEntity
  8
Layer_1
 62
7
100
AcDbSpline
 70
8
 71
3
 72
8
 73
4
 74
0
 40
0
 40
0
 40
0
 40
0
 40
1
 40
1
 40
1
 40
1
 10
2.272481
 20
7.725891
 30
0.0
 10
2.293259
 20
7.748291
 30
0.0
 10
2.293595
 20
7.750191
 30
0.0
 10
2.281698
 20
7.776347
 30
0.0
  0
SPLINE
  5
19e
100
AcDbEntity
  8
Layer_1
 62
7
100
AcDbSpline
 70
8
 71
3
 72
8
 73
4
 74
0
 40
0
 40
0
 40
0
 40
0
 40
1
 40
1
 40
1
 40
1
 10
2.281698
 20
7.776347
 30
0.0
 10
2.270549
 20
7.800857
 30
0.0
 10
2.253009
 20
7.823570
 30
0.0
 10
2.224264
 20
7.850668
 30
0.0
  0
SPLINE
  5
19f
100
AcDbEntity
  8
Layer_1
 62
7
100
AcDbSpline
 70
8
 71
3
 72
8
 73
4
 74
0
 40
0
 40
0
 40
0
 40
0
 40
1
 40
1
 40
1
 40
1
 10
2.224264
 20
7.850668
 30
0.0
 10
2.220783
 20
7.853947
 30
0.0
 10
2.220910
 20
7.855594
 30
0.0
 10
2.224894
 20
7.855631
 30
0.0
  0
LWPOLYLINE
  5
1a0
100
AcDbEntity
  8
Layer_1
 62
7
100
AcDbPolyline
 90
1
 70
1
 10
12.007059
 20
12.062968
 30
0.0
  0
SPLINE
  5
1a1
100
AcDbEntity
  8
Layer_1
 62
7
100
AcDbSpline
 70
8
 71
3
 72
8
 73
4
 74
0
 40
0
 40
0
 40
0
 40
0
 40
1
 40
1
 40
1
 40
1
 10
14.251058
 20
7.855631
 30
0.0
 10
14.255044
 20
7.855631
 30
0.0
 10
14.255199
 20
7.853947
 30
0.0
 10
14.251709
 20
7.850668
 30
0.0
  0
SPLINE
  5
1a2
100
AcDbEntity
  8
Layer_1
 62
7
100
AcDbSpline
 70
8
 71
3
 72
8
 73
4
 74
0
 40
0
 40
0
 40
0
 40
0
 40
1
 40
1
 40
1
 40
1
 10
14.251709
 20
7.850668
 30
0.0
 10
14.222963
 20
7.823570
 30
0.0
 10
14.205404
 20
7.800857
 30
0.0
 10
14.194254
 20
7.776347
 30
0.0
  0
SPLINE
  5
1a3
100
AcDbEntity
  8
Layer_1
 62
7
100
AcDbSpline
 70
8
 71
3
 72
8
 73
4
 74
0
 40
0
 40
0
 40
0
 40
0
 40
1
 40
1
 40
1
 40
1
 10
14.194254
 20
7.776347
 30
0.0
 10
14.182357
 20
7.750191
 30
0.0
 10
14.182713
 20
7.748291
 30
0.0
 10
14.203491
 20
7.725891
 30
0.0
  0
SPLINE
  5
1a4
100
AcDbEntity
  8
Layer_1
 62
7
100
AcDbSpline
 70
8
 71
3
 72
8
 73
4
 74
0
 40
0
 40
0
 40
0
 40
0
 40
1
 40
1
 40
1
 40
1
 10
14.203491
 20
7.725891
 30
0.0
 10
14.270056
 20
7.654128
 30
0.0
 10
14.269016
 20
7.527749
 30
0.0
 10
14.201009
 20
7.422770
 30
0.0
  0
SPLINE
  5
1a5
100
AcDbEntity
  8
Layer_1
 62
7
100
AcDbSpline
 70
8
 71
3
 72
8
 73
4
 74
0
 40
0
 40
0
 40
0
 40
0
 40
1
 40
1
 40
1
 40
1
 10
14.201009
 20
7.422770
 30
0.0
 10
14.151403
 20
7.346198
 30
0.0
 10
14.086256
 20
7.305477
 30
0.0
 10
14.019450
 20
7.309286
 30
0.0
  0
SPLINE
  5
1a6
100
AcDbEntity
  8
Layer_1
 62
7
100
AcDbSpline
 70
8
 71
3
 72
8
 73
4
 74
0
 40
0
 40
0
 40
0
 40
0
 40
1
 40
1
 40
1
 40
1
 10
14.019450
 20
7.309286
 30
0.0
 10
13.980875
 20
7.311487
 30
0.0
 10
13.933800
 20
7.340693
 30
0.0
 10
13.911641
 20
7.376180
 30
0.0
  0
SPLINE
  5
1a7
100
AcDbEntity
  8
Layer_1
 62
7
100
AcDbSpline
 70
8
 71
3
 72
8
 73
4
 74
0
 40
0
 40
0
 40
0
 40
0
 40
1
 40
1
 40
1
 40
1
 10
13.911641
 20
7.376180
 30
0.0
 10
13.889033
 20
7.412388
 30
0.0
 10
13.879738
 20
7.473488
 30
0.0
 10
13.887858
 20
7.532755
 30
0.0
  0
SPLINE
  5
1a8
100
AcDbEntity
  8
Layer_1
 62
7
100
AcDbSpline
 70
8
 71
3
 72
8
 73
4
 74
0
 40
0
 40
0
 40
0
 40
0
 40
1
 40
1
 40
1
 40
1
 10
13.887858
 20
7.532755
 30
0.0
 10
13.894579
 20
7.581802
 30
0.0
 10
13.897000
 20
7.587540
 30
0.0
 10
13.937032
 20
7.649332
 30
0.0
  0
SPLINE
  5
1a9
100
AcDbEntity
  8
Layer_1
 62
7
100
AcDbSpline
 70
8
 71
3
 72
8
 73
4
 74
0
 40
0
 40
0
 40
0
 40
0
 40
1
 40
1
 40
1
 40
1
 10
13.937032
 20
7.649332
 30
0.0
 10
13.973453
 20
7.705553
 30
0.0
 10
13.983515
 20
7.717137
 30
0.0
 10
14.011556
 20
7.735250
 30
0.0
  0
SPLINE
  5
1aa
100
AcDbEntity
  8
Layer_1
 62
7
100
AcDbSpline
 70
8
 71
3
 72
8
 73
4
 74
0
 40
0
 40
0
 40
0
 40
0
 40
1
 40
1
 40
1
 40
1
 10
14.011556
 20
7.735250
 30
0.0
 10
14.029385
 20
7.746767
 30
0.0
 10
14.061738
 20
7.759295
 30
0.0
 10
14.083435
 20
7.763082
 30
0.0
  0
SPLINE
  5
1ab
100
AcDbEntity
  8
Layer_1
 62
7
100
AcDbSpline
 70
8
 71
3
 72
8
 73
4
 74
0
 40
0
 40
0
 40
0
 40
0
 40
1
 40
1
 40
1
 40
1
 10
14.083435
 20
7.763082
 30
0.0
 10
14.108044
 20
7.767378
 30
0.0
 10
14.126057
 20
7.774858
 30
0.0
 10
14.131307
 20
7.782960
 30
0.0
  0
SPLINE
  5
1ac
100
AcDbEntity
  8
Layer_1
 62
7
100
AcDbSpline
 70
8
 71
3
 72
8
 73
4
 74
0
 40
0
 40
0
 40
0
 40
0
 40
1
 40
1
 40
1
 40
1
 10
14.131307
 20
7.782960
 30
0.0
 10
14.148715
 20
7.809832
 30
0.0
 10
14.194105
 20
7.841918
 30
0.0
 10
14.227397
 20
7.850891
 30
0.0
  0
SPLINE
  5
1ad
100
AcDbEntity
  8
Layer_1
 62
7
100
AcDbSpline
 70
8
 71
3
 72
8
 73
4
 74
0
 40
0
 40
0
 40
0
 40
0
 40
1
 40
1
 40
1
 40
1
 10
14.227397
 20
7.850891
 30
0.0
 10
14.239271
 20
7.854091
 30
0.0
 10
14.247074
 20
7.855670
 30
0.0
 10
14.251058
 20
7.855631
 30
0.0
  0
LWPOLYLINE
  5
1ae
100
AcDbEntity
  8
Layer_1
 62
7
100
AcDbPolyline
 90
1
 70
1
 10
2.224894
 20
7.855631
 30
0.0
  0
LWPOLYLINE
  5
1af
100
AcDbEntity
  8
Layer_1
 62
7
100
AcDbPolyline
 90
1
 70
1
 10
14.251058
 20
7.855631
 30
0.0
  0
SPLINE
  5
1b0
100
AcDbEntity
  8
Layer_1
 62
7
100
AcDbSpline
 70
8
 71
3
 72
8
 73
4
 74
0
 40
0
 40
0
 40
0
 40
0
 40
1
 40
1
 40
1
 40
1
 10
2.803446
 20
7.749471
 30
0.0
 10
2.805282
 20
7.749117
 30
0.0
 10
2.808317
 20
7.747583
 30
0.0
 10
2.812541
 20
7.745300
 30
0.0
  0
SPLINE
  5
1b1
100
AcDbEntity
  8
Layer_1
 62
7
100
AcDbSpline
 70
8
 71
3
 72
8
 73
4
 74
0
 40
0
 40
0
 40
0
 40
0
 40
1
 40
1
 40
1
 40
1
 10
2.812541
 20
7.745300
 30
0.0
 10
2.842730
 20
7.728982
 30
0.0
 10
2.877219
 20
7.689141
 30
0.0
 10
2.889262
 20
7.656718
 30
0.0
  0
SPLINE
  5
1b2
100
AcDbEntity
  8
Layer_1
 62
7
100
AcDbSpline
 70
8
 71
3
 72
8
 73
4
 74
0
 40
0
 40
0
 40
0
 40
0
 40
1
 40
1
 40
1
 40
1
 10
2.889262
 20
7.656718
 30
0.0
 10
2.899124
 20
7.630170
 30
0.0
 10
2.903906
 20
7.624543
 30
0.0
 10
2.928345
 20
7.610596
 30
0.0
  0
SPLINE
  5
1b3
100
AcDbEntity
  8
Layer_1
 62
7
100
AcDbSpline
 70
8
 71
3
 72
8
 73
4
 74
0
 40
0
 40
0
 40
0
 40
0
 40
1
 40
1
 40
1
 40
1
 10
2.928345
 20
7.610596
 30
0.0
 10
2.960442
 20
7.592279
 30
0.0
 10
3.005630
 20
7.528944
 30
0.0
 10
3.019287
 20
7.483154
 30
0.0
  0
SPLINE
  5
1b4
100
AcDbEntity
  8
Layer_1
 62
7
100
AcDbSpline
 70
8
 71
3
 72
8
 73
4
 74
0
 40
0
 40
0
 40
0
 40
0
 40
1
 40
1
 40
1
 40
1
 10
3.019287
 20
7.483154
 30
0.0
 10
3.039270
 20
7.416157
 30
0.0
 10
3.025290
 20
7.321430
 30
0.0
 10
2.988790
 20
7.276530
 30
0.0
  0
SPLINE
  5
1b5
100
AcDbEntity
  8
Layer_1
 62
7
100
AcDbSpline
 70
8
 71
3
 72
8
 73
4
 74
0
 40
0
 40
0
 40
0
 40
0
 40
1
 40
1
 40
1
 40
1
 10
2.988790
 20
7.276530
 30
0.0
 10
2.955988
 20
7.236179
 30
0.0
 10
2.909416
 20
7.220161
 30
0.0
 10
2.856079
 20
7.230794
 30
0.0
  0
SPLINE
  5
1b6
100
AcDbEntity
  8
Layer_1
 62
7
100
AcDbSpline
 70
8
 71
3
 72
8
 73
4
 74
0
 40
0
 40
0
 40
0
 40
0
 40
1
 40
1
 40
1
 40
1
 10
2.856079
 20
7.230794
 30
0.0
 10
2.788928
 20
7.244208
 30
0.0
 10
2.724795
 20
7.329824
 30
0.0
 10
2.713867
 20
7.420635
 30
0.0
  0
SPLINE
  5
1b7
100
AcDbEntity
  8
Layer_1
 62
7
100
AcDbSpline
 70
8
 71
3
 72
8
 73
4
 74
0
 40
0
 40
0
 40
0
 40
0
 40
1
 40
1
 40
1
 40
1
 10
2.713867
 20
7.420635
 30
0.0
 10
2.702592
 20
7.514336
 30
0.0
 10
2.744142
 20
7.602638
 30
0.0
 10
2.810933
 20
7.626913
 30
0.0
  0
LWPOLYLINE
  5
1b8
100
AcDbEntity
  8
Layer_1
 62
7
100
AcDbPolyline
 90
2
 70
1
 10
2.803426
 20
7.749492
 30
0.0
 10
2.803426
 20
7.749471
 30
0.0
  0
SPLINE
  5
1b9
100
AcDbEntity
  8
Layer_1
 62
7
100
AcDbSpline
 70
8
 71
3
 72
8
 73
4
 74
0
 40
0
 40
0
 40
0
 40
0
 40
1
 40
1
 40
1
 40
1
 10
2.834717
 20
7.662882
 30
0.0
 10
2.832134
 20
7.676970
 30
0.0
 10
2.822497
 20
7.703212
 30
0.0
 10
2.813293
 20
7.721212
 30
0.0
  0
SPLINE
  5
1ba
100
AcDbEntity
  8
Layer_1
 62
7
100
AcDbSpline
 70
8
 71
3
 72
8
 73
4
 74
0
 40
0
 40
0
 40
0
 40
0
 40
1
 40
1
 40
1
 40
1
 10
2.813293
 20
7.721212
 30
0.0
 10
2.803440
 20
7.740486
 30
0.0
 10
2.799725
 20
7.748260
 30
0.0
 10
2.802002
 20
7.749390
 30
0.0
  0
SPLINE
  5
1bb
100
AcDbEntity
  8
Layer_1
 62
7
100
AcDbSpline
 70
8
 71
3
 72
8
 73
4
 74
0
 40
0
 40
0
 40
0
 40
0
 40
1
 40
1
 40
1
 40
1
 10
2.802002
 20
7.749390
 30
0.0
 10
2.802351
 20
7.749546
 30
0.0
 10
2.802825
 20
7.749586
 30
0.0
 10
2.803426
 20
7.749492
 30
0.0
  0
LWPOLYLINE
  5
1bc
100
AcDbEntity
  8
Layer_1
 62
7
100
AcDbPolyline
 90
3
 70
0
 10
2.810933
 20
7.626913
 30
0.0
 10
2.839416
 20
7.637268
 30
0.0
 10
2.834717
 20
7.662882
 30
0.0
  0
SPLINE
  5
1bd
100
AcDbEntity
  8
Layer_1
 62
7
100
AcDbSpline
 70
8
 71
3
 72
8
 73
4
 74
0
 40
0
 40
0
 40
0
 40
0
 40
1
 40
1
 40
1
 40
1
 10
13.672505
 20
7.749471
 30
0.0
 10
13.673099
 20
7.749586
 30
0.0
 10
13.673593
 20
7.749578
 30
0.0
 10
13.673930
 20
7.749370
 30
0.0
  0
SPLINE
  5
1be
100
AcDbEntity
  8
Layer_1
 62
7
100
AcDbSpline
 70
8
 71
3
 72
8
 73
4
 74
0
 40
0
 40
0
 40
0
 40
0
 40
1
 40
1
 40
1
 40
1
 10
13.673930
 20
7.749370
 30
0.0
 10
13.676206
 20
7.748240
 30
0.0
 10
13.672494
 20
7.740465
 30
0.0
 10
13.662638
 20
7.721192
 30
0.0
  0
SPLINE
  5
1bf
100
AcDbEntity
  8
Layer_1
 62
7
100
AcDbSpline
 70
8
 71
3
 72
8
 73
4
 74
0
 40
0
 40
0
 40
0
 40
0
 40
1
 40
1
 40
1
 40
1
 10
13.662638
 20
7.721192
 30
0.0
 10
13.653434
 20
7.703192
 30
0.0
 10
13.643796
 20
7.676950
 30
0.0
 10
13.641214
 20
7.662863
 30
0.0
  0
LWPOLYLINE
  5
1c0
100
AcDbEntity
  8
Layer_1
 62
7
100
AcDbPolyline
 90
1
 70
1
 10
2.803426
 20
7.749492
 30
0.0
  0
SPLINE
  5
1c1
100
AcDbEntity
  8
Layer_1
 62
7
100
AcDbSpline
 70
8
 71
3
 72
8
 73
4
 74
0
 40
0
 40
0
 40
0
 40
0
 40
1
 40
1
 40
1
 40
1
 10
13.664998
 20
7.626892
 30
0.0
 10
13.731788
 20
7.602617
 30
0.0
 10
13.773338
 20
7.514315
 30
0.0
 10
13.762064
 20
7.420614
 30
0.0
  0
SPLINE
  5
1c2
100
AcDbEntity
  8
Layer_1
 62
7
100
AcDbSpline
 70
8
 71
3
 72
8
 73
4
 74
0
 40
0
 40
0
 40
0
 40
0
 40
1
 40
1
 40
1
 40
1
 10
13.762064
 20
7.420614
 30
0.0
 10
13.751135
 20
7.329803
 30
0.0
 10
13.687004
 20
7.244189
 30
0.0
 10
13.619853
 20
7.230774
 30
0.0
  0
SPLINE
  5
1c3
100
AcDbEntity
  8
Layer_1
 62
7
100
AcDbSpline
 70
8
 71
3
 72
8
 73
4
 74
0
 40
0
 40
0
 40
0
 40
0
 40
1
 40
1
 40
1
 40
1
 10
13.619853
 20
7.230774
 30
0.0
 10
13.566516
 20
7.220121
 30
0.0
 10
13.519944
 20
7.236158
 30
0.0
 10
13.487141
 20
7.276510
 30
0.0
  0
SPLINE
  5
1c4
100
AcDbEntity
  8
Layer_1
 62
7
100
AcDbSpline
 70
8
 71
3
 72
8
 73
4
 74
0
 40
0
 40
0
 40
0
 40
0
 40
1
 40
1
 40
1
 40
1
 10
13.487141
 20
7.276510
 30
0.0
 10
13.450641
 20
7.321410
 30
0.0
 10
13.436661
 20
7.416138
 30
0.0
 10
13.456645
 20
7.483135
 30
0.0
  0
SPLINE
  5
1c5
100
AcDbEntity
  8
Layer_1
 62
7
100
AcDbSpline
 70
8
 71
3
 72
8
 73
4
 74
0
 40
0
 40
0
 40
0
 40
0
 40
1
 40
1
 40
1
 40
1
 10
13.456645
 20
7.483135
 30
0.0
 10
13.470302
 20
7.528924
 30
0.0
 10
13.515509
 20
7.592258
 30
0.0
 10
13.547607
 20
7.610575
 30
0.0
  0
SPLINE
  5
1c6
100
AcDbEntity
  8
Layer_1
 62
7
100
AcDbSpline
 70
8
 71
3
 72
8
 73
4
 74
0
 40
0
 40
0
 40
0
 40
0
 40
1
 40
1
 40
1
 40
1
 10
13.547607
 20
7.610575
 30
0.0
 10
13.572045
 20
7.624522
 30
0.0
 10
13.576807
 20
7.630150
 30
0.0
 10
13.586670
 20
7.656698
 30
0.0
  0
SPLINE
  5
1c7
100
AcDbEntity
  8
Layer_1
 62
7
100
AcDbSpline
 70
8
 71
3
 72
8
 73
4
 74
0
 40
0
 40
0
 40
0
 40
0
 40
1
 40
1
 40
1
 40
1
 10
13.586670
 20
7.656698
 30
0.0
 10
13.598711
 20
7.689121
 30
0.0
 10
13.633201
 20
7.728962
 30
0.0
 10
13.663390
 20
7.745280
 30
0.0
  0
SPLINE
  5
1c8
100
AcDbEntity
  8
Layer_1
 62
7
100
AcDbSpline
 70
8
 71
3
 72
8
 73
4
 74
0
 40
0
 40
0
 40
0
 40
0
 40
1
 40
1
 40
1
 40
1
 10
13.663390
 20
7.745280
 30
0.0
 10
13.667613
 20
7.747567
 30
0.0
 10
13.670652
 20
7.749106
 30
0.0
 10
13.672485
 20
7.749451
 30
0.0
  0
LWPOLYLINE
  5
1c9
100
AcDbEntity
  8
Layer_1
 62
7
100
AcDbPolyline
 90
3
 70
0
 10
13.641214
 20
7.662863
 30
0.0
 10
13.636515
 20
7.637248
 30
0.0
 10
13.664998
 20
7.626892
 30
0.0
  0
LWPOLYLINE
  5
1ca
100
AcDbEntity
  8
Layer_1
 62
7
100
AcDbPolyline
 90
2
 70
1
 10
13.672485
 20
7.749451
 30
0.0
 10
13.672505
 20
7.749471
 30
0.0
  0
SPLINE
  5
1cb
100
AcDbEntity
  8
Layer_1
 62
7
100
AcDbSpline
 70
8
 71
3
 72
8
 73
4
 74
0
 40
0
 40
0
 40
0
 40
0
 40
1
 40
1
 40
1
 40
1
 10
1.745036
 20
7.510905
 30
0.0
 10
1.760960
 20
7.486665
 30
0.0
 10
1.781560
 20
7.463080
 30
0.0
 10
1.794739
 20
7.454020
 30
0.0
  0
SPLINE
  5
1cc
100
AcDbEntity
  8
Layer_1
 62
7
100
AcDbSpline
 70
8
 71
3
 72
8
 73
4
 74
0
 40
0
 40
0
 40
0
 40
0
 40
1
 40
1
 40
1
 40
1
 10
1.794739
 20
7.454020
 30
0.0
 10
1.815780
 20
7.439554
 30
0.0
 10
1.818821
 20
7.439603
 30
0.0
 10
1.841451
 20
7.454183
 30
0.0
  0
SPLINE
  5
1cd
100
AcDbEntity
  8
Layer_1
 62
7
100
AcDbSpline
 70
8
 71
3
 72
8
 73
4
 74
0
 40
0
 40
0
 40
0
 40
0
 40
1
 40
1
 40
1
 40
1
 10
1.841451
 20
7.454183
 30
0.0
 10
1.908207
 20
7.497214
 30
0.0
 10
2.021737
 20
7.474272
 30
0.0
 10
2.100647
 20
7.401836
 30
0.0
  0
SPLINE
  5
1ce
100
AcDbEntity
  8
Layer_1
 62
7
100
AcDbSpline
 70
8
 71
3
 72
8
 73
4
 74
0
 40
0
 40
0
 40
0
 40
0
 40
1
 40
1
 40
1
 40
1
 10
2.100647
 20
7.401836
 30
0.0
 10
2.200621
 20
7.310064
 30
0.0
 10
2.229278
 20
7.171023
 30
0.0
 10
2.162781
 20
7.100403
 30
0.0
  0
SPLINE
  5
1cf
100
AcDbEntity
  8
Layer_1
 62
7
100
AcDbSpline
 70
8
 71
3
 72
8
 73
4
 74
0
 40
0
 40
0
 40
0
 40
0
 40
1
 40
1
 40
1
 40
1
 10
2.162781
 20
7.100403
 30
0.0
 10
2.109664
 20
7.043993
 30
0.0
 10
2.006984
 20
7.043246
 30
0.0
 10
1.917969
 20
7.098613
 30
0.0
  0
SPLINE
  5
1d0
100
AcDbEntity
  8
Layer_1
 62
7
100
AcDbSpline
 70
8
 71
3
 72
8
 73
4
 74
0
 40
0
 40
0
 40
0
 40
0
 40
1
 40
1
 40
1
 40
1
 10
1.917969
 20
7.098613
 30
0.0
 10
1.821436
 20
7.158657
 30
0.0
 10
1.763956
 20
7.264848
 30
0.0
 10
1.775757
 20
7.361328
 30
0.0
  0
SPLINE
  5
1d1
100
AcDbEntity
  8
Layer_1
 62
7
100
AcDbSpline
 70
8
 71
3
 72
8
 73
4
 74
0
 40
0
 40
0
 40
0
 40
0
 40
1
 40
1
 40
1
 40
1
 10
1.775757
 20
7.361328
 30
0.0
 10
1.778525
 20
7.383930
 30
0.0
 10
1.776151
 20
7.390798
 30
0.0
 10
1.757792
 20
7.412944
 30
0.0
  0
SPLINE
  5
1d2
100
AcDbEntity
  8
Layer_1
 62
7
100
AcDbSpline
 70
8
 71
3
 72
8
 73
4
 74
0
 40
0
 40
0
 40
0
 40
0
 40
1
 40
1
 40
1
 40
1
 10
1.757792
 20
7.412944
 30
0.0
 10
1.733167
 20
7.442679
 30
0.0
 10
1.720037
 20
7.479335
 30
0.0
 10
1.718750
 20
7.521993
 30
0.0
  0
LWPOLYLINE
  5
1d3
100
AcDbEntity
  8
Layer_1
 62
7
100
AcDbPolyline
 90
2
 70
0
 10
1.717834
 20
7.552287
 30
0.0
 10
1.745036
 20
7.510905
 30
0.0
  0
LWPOLYLINE
  5
1d4
100
AcDbEntity
  8
Layer_1
 62
7
100
AcDbPolyline
 90
3
 70
0
 10
1.718750
 20
7.521993
 30
0.0
 10
1.717834
 20
7.552287
 30
0.0
 10
1.717834
 20
7.552287
 30
0.0
  0
SPLINE
  5
1d5
100
AcDbEntity
  8
Layer_1
 62
7
100
AcDbSpline
 70
8
 71
3
 72
8
 73
4
 74
0
 40
0
 40
0
 40
0
 40
0
 40
1
 40
1
 40
1
 40
1
 10
14.757182
 20
7.521993
 30
0.0
 10
14.755895
 20
7.479336
 30
0.0
 10
14.742786
 20
7.442679
 30
0.0
 10
14.718160
 20
7.412944
 30
0.0
  0
SPLINE
  5
1d6
100
AcDbEntity
  8
Layer_1
 62
7
100
AcDbSpline
 70
8
 71
3
 72
8
 73
4
 74
0
 40
0
 40
0
 40
0
 40
0
 40
1
 40
1
 40
1
 40
1
 10
14.718160
 20
7.412944
 30
0.0
 10
14.699822
 20
7.390798
 30
0.0
 10
14.697408
 20
7.383931
 30
0.0
 10
14.700175
 20
7.361328
 30
0.0
  0
SPLINE
  5
1d7
100
AcDbEntity
  8
Layer_1
 62
7
100
AcDbSpline
 70
8
 71
3
 72
8
 73
4
 74
0
 40
0
 40
0
 40
0
 40
0
 40
1
 40
1
 40
1
 40
1
 10
14.700175
 20
7.361328
 30
0.0
 10
14.711975
 20
7.264849
 30
0.0
 10
14.654497
 20
7.158658
 30
0.0
 10
14.557963
 20
7.098613
 30
0.0
  0
SPLINE
  5
1d8
100
AcDbEntity
  8
Layer_1
 62
7
100
AcDbSpline
 70
8
 71
3
 72
8
 73
4
 74
0
 40
0
 40
0
 40
0
 40
0
 40
1
 40
1
 40
1
 40
1
 10
14.557963
 20
7.098613
 30
0.0
 10
14.468949
 20
7.043244
 30
0.0
 10
14.366266
 20
7.043991
 30
0.0
 10
14.313151
 20
7.100403
 30
0.0
  0
SPLINE
  5
1d9
100
AcDbEntity
  8
Layer_1
 62
7
100
AcDbSpline
 70
8
 71
3
 72
8
 73
4
 74
0
 40
0
 40
0
 40
0
 40
0
 40
1
 40
1
 40
1
 40
1
 10
14.313151
 20
7.100403
 30
0.0
 10
14.246654
 20
7.171023
 30
0.0
 10
14.275311
 20
7.310063
 30
0.0
 10
14.375284
 20
7.401836
 30
0.0
  0
SPLINE
  5
1da
100
AcDbEntity
  8
Layer_1
 62
7
100
AcDbSpline
 70
8
 71
3
 72
8
 73
4
 74
0
 40
0
 40
0
 40
0
 40
0
 40
1
 40
1
 40
1
 40
1
 10
14.375284
 20
7.401836
 30
0.0
 10
14.454196
 20
7.474272
 30
0.0
 10
14.567745
 20
7.497194
 30
0.0
 10
14.634501
 20
7.454163
 30
0.0
  0
SPLINE
  5
1db
100
AcDbEntity
  8
Layer_1
 62
7
100
AcDbSpline
 70
8
 71
3
 72
8
 73
4
 74
0
 40
0
 40
0
 40
0
 40
0
 40
1
 40
1
 40
1
 40
1
 10
14.634501
 20
7.454163
 30
0.0
 10
14.657130
 20
7.439596
 30
0.0
 10
14.660152
 20
7.439570
 30
0.0
 10
14.681193
 20
7.454000
 30
0.0
  0
SPLINE
  5
1dc
100
AcDbEntity
  8
Layer_1
 62
7
100
AcDbSpline
 70
8
 71
3
 72
8
 73
4
 74
0
 40
0
 40
0
 40
0
 40
0
 40
1
 40
1
 40
1
 40
1
 10
14.681193
 20
7.454000
 30
0.0
 10
14.694372
 20
7.463061
 30
0.0
 10
14.714971
 20
7.486644
 30
0.0
 10
14.730896
 20
7.510885
 30
0.0
  0
LWPOLYLINE
  5
1dd
100
AcDbEntity
  8
Layer_1
 62
7
100
AcDbPolyline
 90
2
 70
0
 10
14.758097
 20
7.552287
 30
0.0
 10
14.757182
 20
7.521993
 30
0.0
  0
SPLINE
  5
1de
100
AcDbEntity
  8
Layer_1
 62
7
100
AcDbSpline
 70
8
 71
3
 72
8
 73
4
 74
0
 40
0
 40
0
 40
0
 40
0
 40
1
 40
1
 40
1
 40
1
 10
2.472514
 20
7.162944
 30
0.0
 10
2.518914
 20
7.163444
 30
0.0
 10
2.575735
 20
7.148436
 30
0.0
 10
2.656230
 20
7.118165
 30
0.0
  0
SPLINE
  5
1df
100
AcDbEntity
  8
Layer_1
 62
7
100
AcDbSpline
 70
8
 71
3
 72
8
 73
4
 74
0
 40
0
 40
0
 40
0
 40
0
 40
1
 40
1
 40
1
 40
1
 10
2.656230
 20
7.118165
 30
0.0
 10
2.716629
 20
7.095430
 30
0.0
 10
2.807922
 20
7.068242
 30
0.0
 10
2.862589
 20
7.056681
 30
0.0
  0
SPLINE
  5
1e0
100
AcDbEntity
  8
Layer_1
 62
7
100
AcDbSpline
 70
8
 71
3
 72
8
 73
4
 74
0
 40
0
 40
0
 40
0
 40
0
 40
1
 40
1
 40
1
 40
1
 10
2.862589
 20
7.056681
 30
0.0
 10
2.971175
 20
7.033719
 30
0.0
 10
3.030247
 20
7.005973
 30
0.0
 10
3.081034
 20
6.954122
 30
0.0
  0
SPLINE
  5
1e1
100
AcDbEntity
  8
Layer_1
 62
7
100
AcDbSpline
 70
8
 71
3
 72
8
 73
4
 74
0
 40
0
 40
0
 40
0
 40
0
 40
1
 40
1
 40
1
 40
1
 10
3.081034
 20
6.954122
 30
0.0
 10
3.163937
 20
6.869485
 30
0.0
 10
3.168141
 20
6.742185
 30
0.0
 10
3.090759
 20
6.659200
 30
0.0
  0
SPLINE
  5
1e2
100
AcDbEntity
  8
Layer_1
 62
7
100
AcDbSpline
 70
8
 71
3
 72
8
 73
4
 74
0
 40
0
 40
0
 40
0
 40
0
 40
1
 40
1
 40
1
 40
1
 10
3.090759
 20
6.659200
 30
0.0
 10
3.064899
 20
6.631468
 30
0.0
 10
3.012818
 20
6.605639
 30
0.0
 10
2.920125
 20
6.574586
 30
0.0
  0
SPLINE
  5
1e3
100
AcDbEntity
  8
Layer_1
 62
7
100
AcDbSpline
 70
8
 71
3
 72
8
 73
4
 74
0
 40
0
 40
0
 40
0
 40
0
 40
1
 40
1
 40
1
 40
1
 10
2.920125
 20
6.574586
 30
0.0
 10
2.850794
 20
6.551357
 30
0.0
 10
2.828315
 20
6.540674
 30
0.0
 10
2.773743
 20
6.505087
 30
0.0
  0
SPLINE
  5
1e4
100
AcDbEntity
  8
Layer_1
 62
7
100
AcDbSpline
 70
8
 71
3
 72
8
 73
4
 74
0
 40
0
 40
0
 40
0
 40
0
 40
1
 40
1
 40
1
 40
1
 10
2.773743
 20
6.505087
 30
0.0
 10
2.718403
 20
6.468988
 30
0.0
 10
2.701063
 20
6.453870
 30
0.0
 10
2.651428
 20
6.398397
 30
0.0
  0
SPLINE
  5
1e5
100
AcDbEntity
  8
Layer_1
 62
7
100
AcDbSpline
 70
8
 71
3
 72
8
 73
4
 74
0
 40
0
 40
0
 40
0
 40
0
 40
1
 40
1
 40
1
 40
1
 10
2.651428
 20
6.398397
 30
0.0
 10
2.546711
 20
6.281364
 30
0.0
 10
2.475290
 20
6.249790
 30
0.0
 10
2.376404
 20
6.276795
 30
0.0
  0
SPLINE
  5
1e6
100
AcDbEntity
  8
Layer_1
 62
7
100
AcDbSpline
 70
8
 71
3
 72
8
 73
4
 74
0
 40
0
 40
0
 40
0
 40
0
 40
1
 40
1
 40
1
 40
1
 10
2.376404
 20
6.276795
 30
0.0
 10
2.324486
 20
6.290972
 30
0.0
 10
2.289093
 20
6.317524
 30
0.0
 10
2.257894
 20
6.365682
 30
0.0
  0
SPLINE
  5
1e7
100
AcDbEntity
  8
Layer_1
 62
7
100
AcDbSpline
 70
8
 71
3
 72
8
 73
4
 74
0
 40
0
 40
0
 40
0
 40
0
 40
1
 40
1
 40
1
 40
1
 10
2.257894
 20
6.365682
 30
0.0
 10
2.210658
 20
6.438594
 30
0.0
 10
2.204923
 20
6.517216
 30
0.0
 10
2.236226
 20
6.662923
 30
0.0
  0
SPLINE
  5
1e8
100
AcDbEntity
  8
Layer_1
 62
7
100
AcDbSpline
 70
8
 71
3
 72
8
 73
4
 74
0
 40
0
 40
0
 40
0
 40
0
 40
1
 40
1
 40
1
 40
1
 10
2.236226
 20
6.662923
 30
0.0
 10
2.249025
 20
6.722497
 30
0.0
 10
2.256535
 20
6.786720
 30
0.0
 10
2.257019
 20
6.840881
 30
0.0
  0
SPLINE
  5
1e9
100
AcDbEntity
  8
Layer_1
 62
7
100
AcDbSpline
 70
8
 71
3
 72
8
 73
4
 74
0
 40
0
 40
0
 40
0
 40
0
 40
1
 40
1
 40
1
 40
1
 10
2.257019
 20
6.840881
 30
0.0
 10
2.257437
 20
6.887489
 30
0.0
 10
2.261124
 20
6.945469
 30
0.0
 10
2.265218
 20
6.969727
 30
0.0
  0
SPLINE
  5
1ea
100
AcDbEntity
  8
Layer_1
 62
7
100
AcDbSpline
 70
8
 71
3
 72
8
 73
4
 74
0
 40
0
 40
0
 40
0
 40
0
 40
1
 40
1
 40
1
 40
1
 10
2.265218
 20
6.969727
 30
0.0
 10
2.274437
 20
7.024337
 30
0.0
 10
2.306611
 20
7.078669
 30
0.0
 10
2.351257
 20
7.114908
 30
0.0
  0
SPLINE
  5
1eb
100
AcDbEntity
  8
Layer_1
 62
7
100
AcDbSpline
 70
8
 71
3
 72
8
 73
4
 74
0
 40
0
 40
0
 40
0
 40
0
 40
1
 40
1
 40
1
 40
1
 10
2.351257
 20
7.114908
 30
0.0
 10
2.390132
 20
7.146487
 30
0.0
 10
2.426113
 20
7.162445
 30
0.0
 10
2.472514
 20
7.162944
 30
0.0
  0
LWPOLYLINE
  5
1ec
100
AcDbEntity
  8
Layer_1
 62
7
100
AcDbPolyline
 90
3
 70
0
 10
14.730896
 20
7.510885
 30
0.0
 10
14.758097
 20
7.552287
 30
0.0
 10
14.758097
 20
7.552287
 30
0.0
  0
SPLINE
  5
1ed
100
AcDbEntity
  8
Layer_1
 62
7
100
AcDbSpline
 70
8
 71
3
 72
8
 73
4
 74
0
 40
0
 40
0
 40
0
 40
0
 40
1
 40
1
 40
1
 40
1
 10
14.003418
 20
7.162944
 30
0.0
 10
14.049818
 20
7.162444
 30
0.0
 10
14.085819
 20
7.146487
 30
0.0
 10
14.124695
 20
7.114908
 30
0.0
  0
SPLINE
  5
1ee
100
AcDbEntity
  8
Layer_1
 62
7
100
AcDbSpline
 70
8
 71
3
 72
8
 73
4
 74
0
 40
0
 40
0
 40
0
 40
0
 40
1
 40
1
 40
1
 40
1
 10
14.124695
 20
7.114908
 30
0.0
 10
14.169339
 20
7.078651
 30
0.0
 10
14.201494
 20
7.024354
 30
0.0
 10
14.210713
 20
6.969727
 30
0.0
  0
SPLINE
  5
1ef
100
AcDbEntity
  8
Layer_1
 62
7
100
AcDbSpline
 70
8
 71
3
 72
8
 73
4
 74
0
 40
0
 40
0
 40
0
 40
0
 40
1
 40
1
 40
1
 40
1
 10
14.210713
 20
6.969727
 30
0.0
 10
14.214807
 20
6.945469
 30
0.0
 10
14.218494
 20
6.887489
 30
0.0
 10
14.218912
 20
6.840881
 30
0.0
  0
SPLINE
  5
1f0
100
AcDbEntity
  8
Layer_1
 62
7
100
AcDbSpline
 70
8
 71
3
 72
8
 73
4
 74
0
 40
0
 40
0
 40
0
 40
0
 40
1
 40
1
 40
1
 40
1
 10
14.218912
 20
6.840881
 30
0.0
 10
14.219402
 20
6.786720
 30
0.0
 10
14.226906
 20
6.722497
 30
0.0
 10
14.239705
 20
6.662923
 30
0.0
  0
SPLINE
  5
1f1
100
AcDbEntity
  8
Layer_1
 62
7
100
AcDbSpline
 70
8
 71
3
 72
8
 73
4
 74
0
 40
0
 40
0
 40
0
 40
0
 40
1
 40
1
 40
1
 40
1
 10
14.239705
 20
6.662923
 30
0.0
 10
14.271008
 20
6.517216
 30
0.0
 10
14.265274
 20
6.438594
 30
0.0
 10
14.218037
 20
6.365682
 30
0.0
  0
SPLINE
  5
1f2
100
AcDbEntity
  8
Layer_1
 62
7
100
AcDbSpline
 70
8
 71
3
 72
8
 73
4
 74
0
 40
0
 40
0
 40
0
 40
0
 40
1
 40
1
 40
1
 40
1
 10
14.218037
 20
6.365682
 30
0.0
 10
14.186838
 20
6.317524
 30
0.0
 10
14.151446
 20
6.290972
 30
0.0
 10
14.099528
 20
6.276795
 30
0.0
  0
SPLINE
  5
1f3
100
AcDbEntity
  8
Layer_1
 62
7
100
AcDbSpline
 70
8
 71
3
 72
8
 73
4
 74
0
 40
0
 40
0
 40
0
 40
0
 40
1
 40
1
 40
1
 40
1
 10
14.099528
 20
6.276795
 30
0.0
 10
14.000643
 20
6.249790
 30
0.0
 10
13.929221
 20
6.281364
 30
0.0
 10
13.824503
 20
6.398397
 30
0.0
  0
SPLINE
  5
1f4
100
AcDbEntity
  8
Layer_1
 62
7
100
AcDbSpline
 70
8
 71
3
 72
8
 73
4
 74
0
 40
0
 40
0
 40
0
 40
0
 40
1
 40
1
 40
1
 40
1
 10
13.824503
 20
6.398397
 30
0.0
 10
13.774870
 20
6.453870
 30
0.0
 10
13.757568
 20
6.468988
 30
0.0
 10
13.702230
 20
6.505087
 30
0.0
  0
SPLINE
  5
1f5
100
AcDbEntity
  8
Layer_1
 62
7
100
AcDbSpline
 70
8
 71
3
 72
8
 73
4
 74
0
 40
0
 40
0
 40
0
 40
0
 40
1
 40
1
 40
1
 40
1
 10
13.702230
 20
6.505087
 30
0.0
 10
13.647656
 20
6.540674
 30
0.0
 10
13.625137
 20
6.551357
 30
0.0
 10
13.555806
 20
6.574586
 30
0.0
  0
SPLINE
  5
1f6
100
AcDbEntity
  8
Layer_1
 62
7
100
AcDbSpline
 70
8
 71
3
 72
8
 73
4
 74
0
 40
0
 40
0
 40
0
 40
0
 40
1
 40
1
 40
1
 40
1
 10
13.555806
 20
6.574586
 30
0.0
 10
13.463113
 20
6.605639
 30
0.0
 10
13.411053
 20
6.631468
 30
0.0
 10
13.385193
 20
6.659200
 30
0.0
  0
SPLINE
  5
1f7
100
AcDbEntity
  8
Layer_1
 62
7
100
AcDbSpline
 70
8
 71
3
 72
8
 73
4
 74
0
 40
0
 40
0
 40
0
 40
0
 40
1
 40
1
 40
1
 40
1
 10
13.385193
 20
6.659200
 30
0.0
 10
13.307810
 20
6.742185
 30
0.0
 10
13.311995
 20
6.869485
 30
0.0
 10
13.394898
 20
6.954122
 30
0.0
  0
SPLINE
  5
1f8
100
AcDbEntity
  8
Layer_1
 62
7
100
AcDbSpline
 70
8
 71
3
 72
8
 73
4
 74
0
 40
0
 40
0
 40
0
 40
0
 40
1
 40
1
 40
1
 40
1
 10
13.394898
 20
6.954122
 30
0.0
 10
13.445684
 20
7.005973
 30
0.0
 10
13.504777
 20
7.033719
 30
0.0
 10
13.613362
 20
7.056681
 30
0.0
  0
SPLINE
  5
1f9
100
AcDbEntity
  8
Layer_1
 62
7
100
AcDbSpline
 70
8
 71
3
 72
8
 73
4
 74
0
 40
0
 40
0
 40
0
 40
0
 40
1
 40
1
 40
1
 40
1
 10
13.613362
 20
7.056681
 30
0.0
 10
13.668029
 20
7.068242
 30
0.0
 10
13.759324
 20
7.095430
 30
0.0
 10
13.819723
 20
7.118165
 30
0.0
  0
SPLINE
  5
1fa
100
AcDbEntity
  8
Layer_1
 62
7
100
AcDbSpline
 70
8
 71
3
 72
8
 73
4
 74
0
 40
0
 40
0
 40
0
 40
0
 40
1
 40
1
 40
1
 40
1
 10
13.819723
 20
7.118165
 30
0.0
 10
13.900218
 20
7.148453
 30
0.0
 10
13.957018
 20
7.163442
 30
0.0
 10
14.003418
 20
7.162944
 30
0.0
  0
LWPOLYLINE
  5
1fb
100
AcDbEntity
  8
Layer_1
 62
7
100
AcDbPolyline
 90
1
 70
1
 10
2.472514
 20
7.162944
 30
0.0
  0
SPLINE
  5
1fc
100
AcDbEntity
  8
Layer_1
 62
7
100
AcDbSpline
 70
8
 71
3
 72
8
 73
4
 74
0
 40
0
 40
0
 40
0
 40
0
 40
1
 40
1
 40
1
 40
1
 10
1.601603
 20
6.974080
 30
0.0
 10
1.603891
 20
6.974882
 30
0.0
 10
1.610688
 20
6.968678
 30
0.0
 10
1.626119
 20
6.954549
 30
0.0
  0
SPLINE
  5
1fd
100
AcDbEntity
  8
Layer_1
 62
7
100
AcDbSpline
 70
8
 71
3
 72
8
 73
4
 74
0
 40
0
 40
0
 40
0
 40
0
 40
1
 40
1
 40
1
 40
1
 10
1.626119
 20
6.954549
 30
0.0
 10
1.641339
 20
6.940615
 30
0.0
 10
1.665154
 20
6.923216
 30
0.0
 10
1.679036
 20
6.915873
 30
0.0
  0
LWPOLYLINE
  5
1fe
100
AcDbEntity
  8
Layer_1
 62
7
100
AcDbPolyline
 90
1
 70
1
 10
14.003418
 20
7.162944
 30
0.0
  0
SPLINE
  5
1ff
100
AcDbEntity
  8
Layer_1
 62
7
100
AcDbSpline
 70
8
 71
3
 72
8
 73
4
 74
0
 40
0
 40
0
 40
0
 40
0
 40
1
 40
1
 40
1
 40
1
 10
1.743713
 20
6.931844
 30
0.0
 10
1.777237
 20
6.956770
 30
0.0
 10
1.788485
 20
6.961806
 30
0.0
 10
1.818644
 20
6.965495
 30
0.0
  0
SPLINE
  5
200
100
AcDbEntity
  8
Layer_1
 62
7
100
AcDbSpline
 70
8
 71
3
 72
8
 73
4
 74
0
 40
0
 40
0
 40
0
 40
0
 40
1
 40
1
 40
1
 40
1
 10
1.818644
 20
6.965495
 30
0.0
 10
1.946928
 20
6.981180
 30
0.0
 10
2.086934
 20
6.869418
 30
0.0
 10
2.084615
 20
6.753194
 30
0.0
  0
SPLINE
  5
201
100
AcDbEntity
  8
Layer_1
 62
7
100
AcDbSpline
 70
8
 71
3
 72
8
 73
4
 74
0
 40
0
 40
0
 40
0
 40
0
 40
1
 40
1
 40
1
 40
1
 10
2.084615
 20
6.753194
 30
0.0
 10
2.083930
 20
6.718792
 30
0.0
 10
2.073046
 20
6.689719
 30
0.0
 10
2.052856
 20
6.668336
 30
0.0
  0
SPLINE
  5
202
100
AcDbEntity
  8
Layer_1
 62
7
100
AcDbSpline
 70
8
 71
3
 72
8
 73
4
 74
0
 40
0
 40
0
 40
0
 40
0
 40
1
 40
1
 40
1
 40
1
 10
2.052856
 20
6.668336
 30
0.0
 10
2.017960
 20
6.631374
 30
0.0
 10
1.951290
 20
6.614177
 30
0.0
 10
1.890035
 20
6.626323
 30
0.0
  0
SPLINE
  5
203
100
AcDbEntity
  8
Layer_1
 62
7
100
AcDbSpline
 70
8
 71
3
 72
8
 73
4
 74
0
 40
0
 40
0
 40
0
 40
0
 40
1
 40
1
 40
1
 40
1
 10
1.890035
 20
6.626323
 30
0.0
 10
1.791924
 20
6.645776
 30
0.0
 10
1.703224
 20
6.732145
 30
0.0
 10
1.694214
 20
6.816996
 30
0.0
  0
SPLINE
  5
204
100
AcDbEntity
  8
Layer_1
 62
7
100
AcDbSpline
 70
8
 71
3
 72
8
 73
4
 74
0
 40
0
 40
0
 40
0
 40
0
 40
1
 40
1
 40
1
 40
1
 10
1.694214
 20
6.816996
 30
0.0
 10
1.691592
 20
6.841695
 30
0.0
 10
1.689247
 20
6.845830
 30
0.0
 10
1.670817
 20
6.858500
 30
0.0
  0
SPLINE
  5
205
100
AcDbEntity
  8
Layer_1
 62
7
100
AcDbSpline
 70
8
 71
3
 72
8
 73
4
 74
0
 40
0
 40
0
 40
0
 40
0
 40
1
 40
1
 40
1
 40
1
 10
1.670817
 20
6.858500
 30
0.0
 10
1.646472
 20
6.875240
 30
0.0
 10
1.608327
 20
6.931968
 30
0.0
 10
1.602559
 20
6.959961
 30
0.0
  0
SPLINE
  5
206
100
AcDbEntity
  8
Layer_1
 62
7
100
AcDbSpline
 70
8
 71
3
 72
8
 73
4
 74
0
 40
0
 40
0
 40
0
 40
0
 40
1
 40
1
 40
1
 40
1
 10
1.602559
 20
6.959961
 30
0.0
 10
1.600780
 20
6.968604
 30
0.0
 10
1.599828
 20
6.973460
 30
0.0
 10
1.601603
 20
6.974080
 30
0.0
  0
LWPOLYLINE
  5
207
100
AcDbEntity
  8
Layer_1
 62
7
100
AcDbPolyline
 90
3
 70
0
 10
1.679036
 20
6.915873
 30
0.0
 10
1.704285
 20
6.902506
 30
0.0
 10
1.743713
 20
6.931844
 30
0.0
  0
SPLINE
  5
208
100
AcDbEntity
  8
Layer_1
 62
7
100
AcDbSpline
 70
8
 71
3
 72
8
 73
4
 74
0
 40
0
 40
0
 40
0
 40
0
 40
1
 40
1
 40
1
 40
1
 10
14.873413
 20
6.974061
 30
0.0
 10
14.876340
 20
6.974689
 30
0.0
 10
14.875396
 20
6.969799
 30
0.0
 10
14.873413
 20
6.959961
 30
0.0
  0
SPLINE
  5
209
100
AcDbEntity
  8
Layer_1
 62
7
100
AcDbSpline
 70
8
 71
3
 72
8
 73
4
 74
0
 40
0
 40
0
 40
0
 40
0
 40
1
 40
1
 40
1
 40
1
 10
14.873413
 20
6.959961
 30
0.0
 10
14.867646
 20
6.931950
 30
0.0
 10
14.829499
 20
6.875240
 30
0.0
 10
14.805155
 20
6.858500
 30
0.0
  0
SPLINE
  5
20a
100
AcDbEntity
  8
Layer_1
 62
7
100
AcDbSpline
 70
8
 71
3
 72
8
 73
4
 74
0
 40
0
 40
0
 40
0
 40
0
 40
1
 40
1
 40
1
 40
1
 10
14.805155
 20
6.858500
 30
0.0
 10
14.786726
 20
6.845830
 30
0.0
 10
14.784401
 20
6.841695
 30
0.0
 10
14.781779
 20
6.816996
 30
0.0
  0
SPLINE
  5
20b
100
AcDbEntity
  8
Layer_1
 62
7
100
AcDbSpline
 70
8
 71
3
 72
8
 73
4
 74
0
 40
0
 40
0
 40
0
 40
0
 40
1
 40
1
 40
1
 40
1
 10
14.781779
 20
6.816996
 30
0.0
 10
14.772769
 20
6.732145
 30
0.0
 10
14.684049
 20
6.645776
 30
0.0
 10
14.585937
 20
6.626323
 30
0.0
  0
SPLINE
  5
20c
100
AcDbEntity
  8
Layer_1
 62
7
100
AcDbSpline
 70
8
 71
3
 72
8
 73
4
 74
0
 40
0
 40
0
 40
0
 40
0
 40
1
 40
1
 40
1
 40
1
 10
14.585937
 20
6.626323
 30
0.0
 10
14.524686
 20
6.614177
 30
0.0
 10
14.458012
 20
6.631374
 30
0.0
 10
14.423115
 20
6.668336
 30
0.0
  0
SPLINE
  5
20d
100
AcDbEntity
  8
Layer_1
 62
7
100
AcDbSpline
 70
8
 71
3
 72
8
 73
4
 74
0
 40
0
 40
0
 40
0
 40
0
 40
1
 40
1
 40
1
 40
1
 10
14.423115
 20
6.668336
 30
0.0
 10
14.402926
 20
6.689719
 30
0.0
 10
14.392044
 20
6.718792
 30
0.0
 10
14.391357
 20
6.753194
 30
0.0
  0
SPLINE
  5
20e
100
AcDbEntity
  8
Layer_1
 62
7
100
AcDbSpline
 70
8
 71
3
 72
8
 73
4
 74
0
 40
0
 40
0
 40
0
 40
0
 40
1
 40
1
 40
1
 40
1
 10
14.391357
 20
6.753194
 30
0.0
 10
14.389037
 20
6.869418
 30
0.0
 10
14.529065
 20
6.981180
 30
0.0
 10
14.657349
 20
6.965495
 30
0.0
  0
SPLINE
  5
20f
100
AcDbEntity
  8
Layer_1
 62
7
100
AcDbSpline
 70
8
 71
3
 72
8
 73
4
 74
0
 40
0
 40
0
 40
0
 40
0
 40
1
 40
1
 40
1
 40
1
 10
14.657349
 20
6.965495
 30
0.0
 10
14.687508
 20
6.961806
 30
0.0
 10
14.698736
 20
6.956770
 30
0.0
 10
14.732259
 20
6.931844
 30
0.0
  0
LWPOLYLINE
  5
210
100
AcDbEntity
  8
Layer_1
 62
7
100
AcDbPolyline
 90
1
 70
1
 10
1.601603
 20
6.974080
 30
0.0
  0
SPLINE
  5
211
100
AcDbEntity
  8
Layer_1
 62
7
100
AcDbSpline
 70
8
 71
3
 72
8
 73
4
 74
0
 40
0
 40
0
 40
0
 40
0
 40
1
 40
1
 40
1
 40
1
 10
14.796936
 20
6.915873
 30
0.0
 10
14.810819
 20
6.923216
 30
0.0
 10
14.834633
 20
6.940615
 30
0.0
 10
14.849853
 20
6.954549
 30
0.0
  0
SPLINE
  5
212
100
AcDbEntity
  8
Layer_1
 62
7
100
AcDbSpline
 70
8
 71
3
 72
8
 73
4
 74
0
 40
0
 40
0
 40
0
 40
0
 40
1
 40
1
 40
1
 40
1
 10
14.849853
 20
6.954549
 30
0.0
 10
14.863539
 20
6.967080
 30
0.0
 10
14.870430
 20
6.973355
 30
0.0
 10
14.873413
 20
6.974061
 30
0.0
  0
LWPOLYLINE
  5
213
100
AcDbEntity
  8
Layer_1
 62
7
100
AcDbPolyline
 90
3
 70
0
 10
14.732259
 20
6.931844
 30
0.0
 10
14.771708
 20
6.902506
 30
0.0
 10
14.796936
 20
6.915873
 30
0.0
  0
LWPOLYLINE
  5
214
100
AcDbEntity
  8
Layer_1
 62
7
100
AcDbPolyline
 90
1
 70
1
 10
14.873413
 20
6.974061
 30
0.0
  0
ENDSEC
  0
SECTION
  2
OBJECTS
  0
DICTIONARY
  5
C
330
0
100
AcDbDictionary
  3
ACAD_GROUP
350
D
  3
ACAD_MLINESTYLE
350
17
  0
DICTIONARY
  5
D
330
C
100
AcDbDictionary
  0
DICTIONARY
  5
1A
330
C
100
AcDbDictionary
  0
DICTIONARY
  5
17
330
C
100
AcDbDictionary
  3
STANDARD
350
18
  0
DICTIONARY
  5
19
330
C
100
AcDbDictionary
  0
ENDSEC
  0
EOF
