  0
SECTION
  2
HEADER
  9
$ACADVER
  1
AC1012
  9
$DWGCODEPAGE
  3
ansi_1252
  9
$INSBASE
 10
0.0
 20
0.0
 30
0.0
  9
$EXTMIN
 10
1.000000000000000E+20
 20
1.000000000000000E+20
 30
1.000000000000000E+20
  9
$EXTMAX
 10
-1.000000000000000E+20
 20
-1.000000000000000E+20
 30
-1.000000000000000E+20
  9
$LIMMIN
 10
0.0
 20
0.0
  9
$LIMMAX
 10
12.0
 20
9.0
  9
$ORTHOMODE
 70
     0
  9
$REGENMODE
 70
     1
  9
$FILLMODE
 70
     1
  9
$QTEXTMODE
 70
     0
  9
$MIRRTEXT
 70
     1
  9
$DRAGMODE
 70
     2
  9
$LTSCALE
 40
1.0
  9
$OSMODE
 70
    37
  9
$ATTMODE
 70
     1
  9
$TEXTSIZE
 40
0.2
  9
$TRACEWID
 40
0.05
  9
$TEXTSTYLE
  7
STANDARD
  9
$CLAYER
  8
0
  9
$CELTYPE
  6
BYLAYER
  9
$CECOLOR
 62
   256
  9
$CELTSCALE
 40
1.0
  9
$DELOBJ
 70
     1
  9
$DISPSILH
 70
     0
  9
$DIMSCALE
 40
1.0
  9
$DIMASZ
 40
0.18
  9
$DIMEXO
 40
0.0625
  9
$DIMDLI
 40
0.38
  9
$DIMRND
 40
0.0
  9
$DIMDLE
 40
0.0
  9
$DIMEXE
 40
0.18
  9
$DIMTP
 40
0.0
  9
$DIMTM
 40
0.0
  9
$DIMTXT
 40
0.18
  9
$DIMCEN
 40
0.09
  9
$DIMTSZ
 40
0.0
  9
$DIMTOL
 70
     0
  9
$DIMLIM
 70
     0
  9
$DIMTIH
 70
     1
  9
$DIMTOH
 70
     1
  9
$DIMSE1
 70
     0
  9
$DIMSE2
 70
     0
  9
$DIMTAD
 70
     0
  9
$DIMZIN
 70
     0
  9
$DIMBLK
  1

  9
$DIMASO
 70
     1
  9
$DIMSHO
 70
     1
  9
$DIMPOST
  1

  9
$DIMAPOST
  1

  9
$DIMALT
 70
     0
  9
$DIMALTD
 70
     2
  9
$DIMALTF
 40
0.0393700787401575
  9
$DIMLFAC
 40
1.0
  9
$DIMTOFL
 70
     0
  9
$DIMTVP
 40
0.0
  9
$DIMTIX
 70
     0
  9
$DIMSOXD
 70
     0
  9
$DIMSAH
 70
     0
  9
$DIMBLK1
  1

  9
$DIMBLK2
  1

  9
$DIMSTYLE
  2
STANDARD
  9
$DIMCLRD
 70
     0
  9
$DIMCLRE
 70
     0
  9
$DIMCLRT
 70
     0
  9
$DIMTFAC
 40
1.0
  9
$DIMGAP
 40
0.09
  9
$DIMJUST
 70
     0
  9
$DIMSD1
 70
     0
  9
$DIMSD2
 70
     0
  9
$DIMTOLJ
 70
     1
  9
$DIMTZIN
 70
     0
  9
$DIMALTZ
 70
     0
  9
$DIMALTTZ
 70
     0
  9
$DIMFIT
 70
     3
  9
$DIMUPT
 70
     0
  9
$DIMUNIT
 70
     2
  9
$DIMDEC
 70
     4
  9
$DIMTDEC
 70
     4
  9
$DIMALTU
 70
     2
  9
$DIMALTTD
 70
     2
  9
$DIMTXSTY
  7
STANDARD
  9
$DIMAUNIT
 70
     0
  9
$LUNITS
 70
     2
  9
$LUPREC
 70
     4
  9
$SKETCHINC
 40
0.1
  9
$FILLETRAD
 40
0.5
  9
$AUNITS
 70
     0
  9
$AUPREC
 70
     0
  9
$MENU
  1
.
  9
$ELEVATION
 40
0.0
  9
$PELEVATION
 40
0.0
  9
$THICKNESS
 40
0.0
  9
$LIMCHECK
 70
     0
  9
$CHAMFERA
 40
0.0
  9
$CHAMFERB
 40
0.0
  9
$CHAMFERC
 40
0.0
  9
$CHAMFERD
 40
0.0
  9
$SKPOLY
 70
     0
  9
$TDCREATE
 40
2460483.47503213
  9
$TDUPDATE
 40
2460483.475032164
  9
$TDINDWG
 40
0.0000000116
  9
$TDUSRTIMER
 40
0.0000000116
  9
$USRTIMER
 70
     1
  9
$ANGBASE
 50
0.0
  9
$ANGDIR
 70
     0
  9
$PDMODE
 70
     0
  9
$PDSIZE
 40
0.0
  9
$PLINEWID
 40
0.0
  9
$COORDS
 70
     1
  9
$SPLFRAME
 70
     0
  9
$SPLINETYPE
 70
     6
  9
$SPLINESEGS
 70
     8
  9
$ATTDIA
 70
     0
  9
$ATTREQ
 70
     1
  9
$HANDLING
 70
     1
  9
$HANDSEED
  5
10000303
  9
$SURFTAB1
 70
     6
  9
$SURFTAB2
 70
     6
  9
$SURFTYPE
 70
     6
  9
$SURFU
 70
     6
  9
$SURFV
 70
     6
  9
$UCSNAME
  2

  9
$UCSORG
 10
0.0
 20
0.0
 30
0.0
  9
$UCSXDIR
 10
1.0
 20
0.0
 30
0.0
  9
$UCSYDIR
 10
0.0
 20
1.0
 30
0.0
  9
$PUCSNAME
  2

  9
$PUCSORG
 10
0.0
 20
0.0
 30
0.0
  9
$PUCSXDIR
 10
1.0
 20
0.0
 30
0.0
  9
$PUCSYDIR
 10
0.0
 20
1.0
 30
0.0
  9
$USERI1
 70
     0
  9
$USERI2
 70
     0
  9
$USERI3
 70
     0
  9
$USERI4
 70
     0
  9
$USERI5
 70
     0
  9
$USERR1
 40
0.0
  9
$USERR2
 40
0.0
  9
$USERR3
 40
0.0
  9
$USERR4
 40
0.0
  9
$USERR5
 40
0.0
  9
$WORLDVIEW
 70
     1
  9
$SHADEDGE
 70
     3
  9
$SHADEDIF
 70
    70
  9
$TILEMODE
 70
     1
  9
$MAXACTVP
 70
    64
  9
$PINSBASE
 10
0.0
 20
0.0
 30
0.0
  9
$PLIMCHECK
 70
     0
  9
$PEXTMIN
 10
1.000000000000000E+20
 20
1.000000000000000E+20
 30
1.000000000000000E+20
  9
$PEXTMAX
 10
-1.000000000000000E+20
 20
-1.000000000000000E+20
 30
-1.000000000000000E+20
  9
$PLIMMIN
 10
0.0
 20
0.0
  9
$PLIMMAX
 10
12.0
 20
9.0
  9
$UNITMODE
 70
     0
  9
$VISRETAIN
 70
     1
  9
$PLINEGEN
 70
     0
  9
$PSLTSCALE
 70
     1
  9
$TREEDEPTH
 70
  3020
  9
$PICKSTYLE
 70
     1
  9
$CMLSTYLE
  2
STANDARD
  9
$CMLJUST
 70
     0
  9
$CMLSCALE
 40
1.0
  9
$SAVEIMAGES
 70
     1
  0
ENDSEC
  0
SECTION
  2
CLASSES
  0
CLASS
  1
ACDBDICTIONARYWDFLT
  2
AcDbDictionaryWithDefault
  3
ObjectDBX Classes
 90
    32768
280
     0
281
     0
  0
CLASS
  1
VISUALSTYLE
  2
AcDbVisualStyle
  3
ObjectDBX Classes
 90
     4095
280
     0
281
     0
  0
CLASS
  1
MATERIAL
  2
AcDbMaterial
  3
ObjectDBX Classes
 90
     1153
280
     0
281
     0
  0
CLASS
  1
SCALE
  2
AcDbScale
  3
ObjectDBX Classes
 90
     1153
280
     0
281
     0
  0
CLASS
  1
TABLESTYLE
  2
AcDbTableStyle
  3
ObjectDBX Classes
 90
     4095
280
     0
281
     0
  0
CLASS
  1
MLEADERSTYLE
  2
AcDbMLeaderStyle
  3
ACDB_MLEADERSTYLE_CLASS
 90
     4095
280
     0
281
     0
  0
CLASS
  1
SUN
  2
AcDbSun
  3
SCENEOE
 90
     1153
280
     0
281
     0
  0
CLASS
  1
SORTENTSTABLE
  2
AcDbSortentsTable
  3
ObjectDBX Classes
 90
    32768
280
     0
281
     0
  0
CLASS
  1
DICTIONARYVAR
  2
AcDbDictionaryVar
  3
ObjectDBX Classes
 90
        0
280
     0
281
     0
  0
CLASS
  1
XRECORD
  2
AcDbXrecord
  3
ObjectDBX Classes
 90
    32768
280
     0
281
     0
  0
CLASS
  1
LWPOLYLINE
  2
AcDbPolyline
  3
ObjectDBX Classes
 90
    32768
280
     0
281
     1
  0
CLASS
  1
HATCH
  2
AcDbHatch
  3
ObjectDBX Classes
 90
    32768
280
     0
281
     1
  0
CLASS
  1
ACDBPLACEHOLDER
  2
AcDbPlaceHolder
  3
ObjectDBX Classes
 90
        0
280
     0
281
     0
  0
CLASS
  1
LAYOUT
  2
AcDbLayout
  3
ObjectDBX Classes
 90
        0
280
     0
281
     0
  0
ENDSEC
  0
SECTION
  2
TABLES
  0
TABLE
  2
VPORT
  5
8
330
0
100
AcDbSymbolTable
 70
     1
  0
VPORT
  5
29
330
8
100
AcDbSymbolTableRecord
100
AcDbViewportTableRecord
  2
*ACTIVE
 70
     0
 10
0.0
 20
0.0
 11
1.0
 21
1.0
 12
10.42990654205607
 22
4.5
 13
0.0
 23
0.0
 14
0.5
 24
0.5
 15
0.5
 25
0.5
 16
0.0
 26
0.0
 36
1.0
 17
0.0
 27
0.0
 37
0.0
 40
9.0
 41
1.972972972850329
 42
50.0
 43
0.0
 44
0.0
 50
0.0
 51
0.0
 71
     0
 72
   100
 73
     1
 74
     3
 75
     0
 76
     0
 77
     0
 78
     0
  0
ENDTAB
  0
TABLE
  2
LTYPE
  5
5
330
0
100
AcDbSymbolTable
 70
     7
  0
LTYPE
  5
14
330
5
100
AcDbSymbolTableRecord
100
AcDbLinetypeTableRecord
  2
BYBLOCK
 70
     0
  3

 72
    65
 73
     0
 40
0.0
  0
LTYPE
  5
15
330
5
100
AcDbSymbolTableRecord
100
AcDbLinetypeTableRecord
  2
BYLAYER
 70
     0
  3

 72
    65
 73
     0
 40
0.0
  0
LTYPE
  5
16
330
5
100
AcDbSymbolTableRecord
100
AcDbLinetypeTableRecord
  2
CONTINUOUS
 70
     0
  3
Solid line
 72
    65
 73
     0
 40
0.0
  0
LTYPE
  5
10000024
330
5
100
AcDbSymbolTableRecord
100
AcDbLinetypeTableRecord
  2
ONS_PHANTOM
 70
     0
  3
Onshape Phantom line ______ __ __ ______
 72
    65
 73
     6
 40
0.4999999999999999
 49
0.25
 74
     0
 49
-0.05
 74
     0
 49
0.05
 74
     0
 49
-0.05
 74
     0
 49
0.05
 74
     0
 49
-0.05
 74
     0
  0
LTYPE
  5
10000025
330
5
100
AcDbSymbolTableRecord
100
AcDbLinetypeTableRecord
  2
CENTER
 70
     0
  3
Center line ____ _ ____ _ ____ _
 72
    65
 73
     4
 40
0.7199999999999999
 49
0.45
 74
     0
 49
-0.09
 74
     0
 49
0.09
 74
     0
 49
-0.09
 74
     0
  0
LTYPE
  5
10000026
330
5
100
AcDbSymbolTableRecord
100
AcDbLinetypeTableRecord
  2
DASHED
 70
     0
  3
Dashed line __ __ __ __ __
 72
    65
 73
     2
 40
0.75
 49
0.5
 74
     0
 49
-0.25
 74
     0
  0
LTYPE
  5
10000027
330
5
100
AcDbSymbolTableRecord
100
AcDbLinetypeTableRecord
  2
ONS_DASHDOT
 70
     0
  3
Onshape Dashed with Dot _ . ____ . ____
 72
    65
 73
     4
 40
0.71
 49
0.5
 74
     0
 49
-0.1
 74
     0
 49
0.01
 74
     0
 49
-0.1
 74
     0
  0
LTYPE
  5
10000028
330
5
100
AcDbSymbolTableRecord
100
AcDbLinetypeTableRecord
  2
ONS_DOTTED
 70
     0
  3
Onshape Dotted line . . . . . . .
 72
    65
 73
     2
 40
0.11
 49
0.01
 74
     0
 49
-0.1
 74
     0
  0
LTYPE
  5
10000029
330
5
100
AcDbSymbolTableRecord
100
AcDbLinetypeTableRecord
  2
HIDDEN
 70
     0
  3
Hidden line ____ ____ ____ ____ 
 72
    65
 73
     2
 40
0.15
 49
0.1
 74
     0
 49
-0.05
 74
     0
  0
ENDTAB
  0
TABLE
  2
LAYER
  5
2
330
0
100
AcDbSymbolTable
 70
    40
  0
LAYER
  5
10
330
2
100
AcDbSymbolTableRecord
100
AcDbLayerTableRecord
  2
0
 70
     0
 62
     7
  6
CONTINUOUS
  0
LAYER
  5
1000002A
330
2
100
AcDbSymbolTableRecord
100
AcDbLayerTableRecord
  2
SECTION_CUTTING_LINE
 70
     0
 62
     7
  6
ONS_PHANTOM
  0
LAYER
  5
1000002B
330
2
100
AcDbSymbolTableRecord
100
AcDbLayerTableRecord
  2
DETAIL_VIEW_BORDER
 70
     0
 62
     7
  6
CONTINUOUS
  0
LAYER
  5
1000002C
330
2
100
AcDbSymbolTableRecord
100
AcDbLayerTableRecord
  2
DETAIL_VIEW_PARENT_BORDER
 70
     0
 62
     7
  6
ONS_PHANTOM
  0
LAYER
  5
1000002D
330
2
100
AcDbSymbolTableRecord
100
AcDbLayerTableRecord
  2
TEXT
 70
     0
 62
     7
  6
CONTINUOUS
  0
LAYER
  5
1000002E
330
2
100
AcDbSymbolTableRecord
100
AcDbLayerTableRecord
  2
SKETCHED_GEOMETRY
 70
     0
 62
    -7
  6
CONTINUOUS
  0
LAYER
  5
1000002F
330
2
100
AcDbSymbolTableRecord
100
AcDbLayerTableRecord
  2
VIRTUAL_SHARPS
 70
     0
 62
    -7
  6
CONTINUOUS
  0
LAYER
  5
10000030
330
2
100
AcDbSymbolTableRecord
100
AcDbLayerTableRecord
  2
CENTERLINES
 70
     0
 62
    -7
  6
CENTER
  0
LAYER
  5
10000031
330
2
100
AcDbSymbolTableRecord
100
AcDbLayerTableRecord
  2
CENTERMARKS
 70
     0
 62
    -7
  6
CONTINUOUS
  0
LAYER
  5
10000032
330
2
100
AcDbSymbolTableRecord
100
AcDbLayerTableRecord
  2
TABLES
 70
     0
 62
     7
  6
CONTINUOUS
  0
LAYER
  5
10000033
330
2
100
AcDbSymbolTableRecord
100
AcDbLayerTableRecord
  2
IMAGES
 70
     0
 62
    -7
  6
CONTINUOUS
  0
LAYER
  5
10000034
330
2
100
AcDbSymbolTableRecord
100
AcDbLayerTableRecord
  2
ANNOTATION_LINES
 70
     0
 62
    -7
  6
CONTINUOUS
  0
LAYER
  5
10000035
330
2
100
AcDbSymbolTableRecord
100
AcDbLayerTableRecord
  2
ANNOTATION_TEXT
 70
     0
 62
    -7
  6
CONTINUOUS
  0
LAYER
  5
10000036
330
2
100
AcDbSymbolTableRecord
100
AcDbLayerTableRecord
  2
SIDE_THREAD_SYMBOLS
 70
     0
 62
     7
  6
HIDDEN
  0
LAYER
  5
10000037
330
2
100
AcDbSymbolTableRecord
100
AcDbLayerTableRecord
  2
SIDE_THREAD_SYMBOLS_HIDDEN
 70
     0
 62
    -7
  6
HIDDEN
  0
LAYER
  5
10000038
330
2
100
AcDbSymbolTableRecord
100
AcDbLayerTableRecord
  2
SURFACE_THREAD_SYMBOLS
 70
     0
 62
     7
  6
HIDDEN
  0
LAYER
  5
10000039
330
2
100
AcDbSymbolTableRecord
100
AcDbLayerTableRecord
  2
SURFACE_THREAD_SYMBOLS_ON_
 70
     0
 62
     7
  6
HIDDEN
  0
LAYER
  5
1000003A
330
2
100
AcDbSymbolTableRecord
100
AcDbLayerTableRecord
  2
SURFACE_THREAD_SYMBOLS_HID
 70
     0
 62
    -7
  6
HIDDEN
  0
LAYER
  5
1000003B
330
2
100
AcDbSymbolTableRecord
100
AcDbLayerTableRecord
  2
BLIND_THREAD_SYMBOLS
 70
     0
 62
     7
  6
CONTINUOUS
  0
LAYER
  5
1000003C
330
2
100
AcDbSymbolTableRecord
100
AcDbLayerTableRecord
  2
BLIND_THREAD_SYMBOLS_HIDDE
 70
     0
 62
    -7
  6
HIDDEN
  0
LAYER
  5
1000003D
330
2
100
AcDbSymbolTableRecord
100
AcDbLayerTableRecord
  2
EXPLODE_LINES
 70
     0
 62
     7
  6
ONS_PHANTOM
  0
LAYER
  5
1000003E
330
2
100
AcDbSymbolTableRecord
100
AcDbLayerTableRecord
  2
HIDDEN_EXPLODE_LINES
 70
     0
 62
    -7
  6
ONS_PHANTOM
  0
LAYER
  5
1000003F
330
2
100
AcDbSymbolTableRecord
100
AcDbLayerTableRecord
  2
BREAK_LINES
 70
     0
 62
    -7
  6
CONTINUOUS
  0
LAYER
  5
10000040
330
2
100
AcDbSymbolTableRecord
100
AcDbLayerTableRecord
  2
SHEETMETAL_BEND_LINES_UP
 70
     0
 62
     7
  6
CENTER
  0
LAYER
  5
10000041
330
2
100
AcDbSymbolTableRecord
100
AcDbLayerTableRecord
  2
SHEETMETAL_BEND_LINES_DOWN
 70
     0
 62
     7
  6
CENTER
  0
LAYER
  5
10000042
330
2
100
AcDbSymbolTableRecord
100
AcDbLayerTableRecord
  2
SHEETMETAL_BEND_TANGENT_LI
 70
     0
 62
     7
  6
CONTINUOUS
  0
LAYER
  5
10000043
330
2
100
AcDbSymbolTableRecord
100
AcDbLayerTableRecord
  2
SHEETMETAL_CUT_LINES
 70
     0
 62
     7
  6
CONTINUOUS
  0
LAYER
  5
10000044
330
2
100
AcDbSymbolTableRecord
100
AcDbLayerTableRecord
  2
REGION_ASSOC_POINTS
 70
     0
 62
    -7
  6
CONTINUOUS
  0
LAYER
  5
10000045
330
2
100
AcDbSymbolTableRecord
100
AcDbLayerTableRecord
  2
PATTERN_CENTERLINES
 70
     1
 62
    -7
  6
CENTER
  0
LAYER
  5
10000046
330
2
100
AcDbSymbolTableRecord
100
AcDbLayerTableRecord
  2
HIDDEN
 70
     0
 62
    -7
  6
HIDDEN
  0
LAYER
  5
10000047
330
2
100
AcDbSymbolTableRecord
100
AcDbLayerTableRecord
  2
VISIBLE
 70
     0
 62
     7
  6
CONTINUOUS
  0
LAYER
  5
10000048
330
2
100
AcDbSymbolTableRecord
100
AcDbLayerTableRecord
  2
MODELSKETCH_VISIBLE
 70
     0
 62
     7
  6
CONTINUOUS
  0
LAYER
  5
10000049
330
2
100
AcDbSymbolTableRecord
100
AcDbLayerTableRecord
  2
MODELSKETCH_POINT
 70
     0
 62
     7
  6
CONTINUOUS
  0
LAYER
  5
1000004A
330
2
100
AcDbSymbolTableRecord
100
AcDbLayerTableRecord
  2
MODELSKETCH_CONSTRUCTION
 70
     0
 62
    -7
  6
CENTER
  0
LAYER
  5
1000004B
330
2
100
AcDbSymbolTableRecord
100
AcDbLayerTableRecord
  2
HIDDEN_BASE_VIEW
 70
     0
 62
     7
  6
CONTINUOUS
  0
LAYER
  5
1000004C
330
2
100
AcDbSymbolTableRecord
100
AcDbLayerTableRecord
  2
TANGENT_LINES
 70
     0
 62
    -7
  6
CONTINUOUS
  0
LAYER
  5
1000004D
330
2
100
AcDbSymbolTableRecord
100
AcDbLayerTableRecord
  2
TANGENT_HIDDEN
 70
     0
 62
    -7
  6
HIDDEN
  0
LAYER
  5
1000004E
330
2
100
AcDbSymbolTableRecord
100
AcDbLayerTableRecord
  2
INVISIBLE_LINES
 70
     0
 62
    -7
  6
CONTINUOUS
  0
LAYER
  5
1000004F
330
2
100
AcDbSymbolTableRecord
100
AcDbLayerTableRecord
  2
VIEW_HATCHES
 70
     0
 62
    -7
  6
CONTINUOUS
  0
LAYER
  5
10000050
330
2
100
AcDbSymbolTableRecord
100
AcDbLayerTableRecord
  2
SECTION_JOG_LINES
 70
     0
 62
    -7
  6
CONTINUOUS
  0
ENDTAB
  0
TABLE
  2
STYLE
  5
3
330
0
100
AcDbSymbolTable
 70
     2
  0
STYLE
  5
11
330
3
100
AcDbSymbolTableRecord
100
AcDbTextStyleTableRecord
  2
STANDARD
 70
     0
 40
0.0
 41
1.0
 50
0.0
 71
     0
 42
0.2
  3
txt
  4

  0
STYLE
  5
10000004
330
3
100
AcDbSymbolTableRecord
100
AcDbTextStyleTableRecord
  2
TTFSTYLE
 70
     0
 40
0.0
 41
1.0
 50
0.0
 71
     0
 42
0.2
  3
Verdana.ttf
  4

1001
ACAD
1000
Verdana
1071
       34
  0
ENDTAB
  0
TABLE
  2
VIEW
  5
6
330
0
100
AcDbSymbolTable
 70
     0
  0
ENDTAB
  0
TABLE
  2
UCS
  5
7
330
0
100
AcDbSymbolTable
 70
     0
  0
ENDTAB
  0
TABLE
  2
APPID
  5
9
330
0
100
AcDbSymbolTable
 70
     2
  0
APPID
  5
12
330
9
100
AcDbSymbolTableRecord
100
AcDbRegAppTableRecord
  2
ACAD
 70
     0
  0
APPID
  5
10000302
330
9
100
AcDbSymbolTableRecord
100
AcDbRegAppTableRecord
  2
ACAD_MLEADERVER
 70
     0
  0
ENDTAB
  0
TABLE
  2
DIMSTYLE
  5
A
330
0
100
AcDbSymbolTable
 70
     1
  0
DIMSTYLE
105
27
330
A
100
AcDbSymbolTableRecord
100
AcDbDimStyleTableRecord
  2
STANDARD
 70
     0
  3

  4

  5

  6

  7

 40
1.0
 41
0.18
 42
0.0625
 43
0.38
 44
0.18
 45
0.0
 46
0.0
 47
0.0
 48
0.0
140
0.18
141
0.09
142
0.0
143
25.4
144
1.0
145
0.0
146
1.0
147
0.09
 71
     0
 72
     0
 73
     1
 74
     1
 75
     0
 76
     0
 77
     0
 78
     0
170
     0
171
     2
172
     0
173
     0
174
     0
175
     0
176
     0
177
     0
178
     0
270
     2
271
     4
272
     4
273
     2
274
     2
340
11
275
     0
280
     0
281
     0
282
     0
283
     1
284
     0
285
     0
286
     0
287
     3
288
     0
  0
ENDTAB
  0
TABLE
  2
BLOCK_RECORD
  5
1
330
0
100
AcDbSymbolTable
 70
     0
  0
BLOCK_RECORD
  5
1F
102
{ACAD_XDICTIONARY
360
100002F0
102
}
330
1
100
AcDbSymbolTableRecord
100
AcDbBlockTableRecord
  2
*MODEL_SPACE
  0
BLOCK_RECORD
  5
1B
330
1
100
AcDbSymbolTableRecord
100
AcDbBlockTableRecord
  2
*PAPER_SPACE
  0
ENDTAB
  0
ENDSEC
  0
SECTION
  2
BLOCKS
  0
BLOCK
  5
20
330
1F
100
AcDbEntity
  8
0
100
AcDbBlockBegin
  2
*MODEL_SPACE
 70
     0
 10
0.0
 20
0.0
 30
0.0
  3
*MODEL_SPACE
  1

  0
ENDBLK
  5
21
330
1F
100
AcDbEntity
  8
0
100
AcDbBlockEnd
  0
BLOCK
  5
1C
330
1B
100
AcDbEntity
 67
     1
  8
0
100
AcDbBlockBegin
  2
*PAPER_SPACE
 70
     0
 10
0.0
 20
0.0
 30
0.0
  3
*PAPER_SPACE
  1

  0
ENDBLK
  5
1D
330
1B
100
AcDbEntity
 67
     1
  8
0
100
AcDbBlockEnd
  0
ENDSEC
  0
SECTION
  2
ENTITIES
  0
CIRCLE
  5
10000051
102
{ACAD_XDICTIONARY
360
10000052
102
}
330
1F
100
AcDbEntity
  8
0
100
AcDbCircle
 10
-151.1691221074252
 20
89.99999999999999
 30
0.0
 40
5.000000000000005
  0
CIRCLE
  5
10000056
102
{ACAD_XDICTIONARY
360
10000057
102
}
330
1F
100
AcDbEntity
  8
VISIBLE
100
AcDbCircle
 10
-151.1691221074252
 20
89.99999999999999
 30
0.0
 40
5.000000000000005
  0
CIRCLE
  5
1000005B
102
{ACAD_XDICTIONARY
360
1000005C
102
}
330
1F
100
AcDbEntity
  8
0
100
AcDbCircle
 10
-196.1691221074252
 20
-90.00000000000006
 30
0.0
 40
5.000000000000005
  0
CIRCLE
  5
10000060
102
{ACAD_XDICTIONARY
360
10000061
102
}
330
1F
100
AcDbEntity
  8
VISIBLE
100
AcDbCircle
 10
-196.1691221074251
 20
-90.00000000000006
 30
0.0
 40
5.000000000000005
  0
CIRCLE
  5
10000065
102
{ACAD_XDICTIONARY
360
10000066
102
}
330
1F
100
AcDbEntity
  8
0
100
AcDbCircle
 10
-151.1691221074252
 20
-90.00000000000004
 30
0.0
 40
5.000000000000005
  0
CIRCLE
  5
1000006A
102
{ACAD_XDICTIONARY
360
1000006B
102
}
330
1F
100
AcDbEntity
  8
VISIBLE
100
AcDbCircle
 10
-151.1691221074252
 20
-90.00000000000004
 30
0.0
 40
5.000000000000005
  0
CIRCLE
  5
1000006F
102
{ACAD_XDICTIONARY
360
10000070
102
}
330
1F
100
AcDbEntity
  8
0
100
AcDbCircle
 10
-196.1691221074252
 20
90.0
 30
0.0
 40
5.000000000000005
  0
CIRCLE
  5
10000074
102
{ACAD_XDICTIONARY
360
10000075
102
}
330
1F
100
AcDbEntity
  8
VISIBLE
100
AcDbCircle
 10
-196.1691221074252
 20
90.0
 30
0.0
 40
5.000000000000005
  0
LINE
  5
10000079
102
{ACAD_XDICTIONARY
360
1000007A
102
}
330
1F
100
AcDbEntity
  8
VISIBLE
100
AcDbLine
 10
240.0000000000001
 20
-75.63340659280138
 30
0.0
 11
219.9999999999999
 21
-75.63340659280138
 31
0.0
  0
ARC
  5
1000007C
102
{ACAD_XDICTIONARY
360
1000007D
102
}
330
1F
100
AcDbEntity
  8
VISIBLE
100
AcDbCircle
 10
219.9999999999999
 20
-65.63340659280136
 30
0.0
 40
10.0
100
AcDbArc
 50
180.0
 51
270.0
  0
LINE
  5
10000081
102
{ACAD_XDICTIONARY
360
10000082
102
}
330
1F
100
AcDbEntity
  8
VISIBLE
100
AcDbLine
 10
209.9999999999999
 20
-65.63340659280136
 30
0.0
 11
209.9999999999999
 21
-50.93340659280138
 31
0.0
  0
LINE
  5
10000084
102
{ACAD_XDICTIONARY
360
10000085
102
}
330
1F
100
AcDbEntity
  8
VISIBLE
100
AcDbLine
 10
209.9999999999999
 20
-50.93340659280138
 30
0.0
 11
214.9538461538461
 21
-50.93340659280137
 31
0.0
  0
LINE
  5
10000087
102
{ACAD_XDICTIONARY
360
10000088
102
}
330
1F
100
AcDbEntity
  8
VISIBLE
100
AcDbLine
 10
214.9538461538461
 20
-50.93340659280137
 30
0.0
 11
214.9538461538461
 21
-42.90000000000001
 31
0.0
  0
ARC
  5
1000008A
102
{ACAD_XDICTIONARY
360
1000008B
102
}
330
1F
100
AcDbEntity
  8
VISIBLE
100
AcDbCircle
 10
213.3600961538461
 20
-42.90000000000001
 30
0.0
 40
1.593750000000005
100
AcDbArc
 50
0.0
 51
180.0000000000002
  0
LINE
  5
1000008F
102
{ACAD_XDICTIONARY
360
10000090
102
}
330
1F
100
AcDbEntity
  8
VISIBLE
100
AcDbLine
 10
211.766346153846
 20
-42.90000000000001
 30
0.0
 11
211.766346153846
 21
-46.6799107142857
 31
0.0
  0
LINE
  5
10000092
102
{ACAD_XDICTIONARY
360
10000093
102
}
330
1F
100
AcDbEntity
  8
VISIBLE
100
AcDbLine
 10
1.334962282904042
 20
-144.3801960829374
 30
0.0
 11
211.766346153846
 21
-46.6799107142857
 31
0.0
  0
LINE
  5
10000095
102
{ACAD_XDICTIONARY
360
10000096
102
}
330
1F
100
AcDbEntity
  8
VISIBLE
100
AcDbLine
 10
1.334962282904042
 20
-144.0473088065419
 30
0.0
 11
1.334962282904042
 21
-144.3801960829374
 31
0.0
  0
LINE
  5
10000098
102
{ACAD_XDICTIONARY
360
10000099
102
}
330
1F
100
AcDbEntity
  8
VISIBLE
100
AcDbLine
 10
1.334962282904034
 20
-144.0473088065419
 30
0.0
 11
-2.504084390329197
 21
-144.0473088065419
 31
0.0
  0
LINE
  5
1000009B
102
{ACAD_XDICTIONARY
360
1000009C
102
}
330
1F
100
AcDbEntity
  8
VISIBLE
100
AcDbLine
 10
-2.504084390329197
 20
-144.0473088065419
 30
0.0
 11
-2.504084390329165
 21
-214.7186802223652
 31
0.0
  0
ARC
  5
1000009E
102
{ACAD_XDICTIONARY
360
1000009F
102
}
330
1F
100
AcDbEntity
  8
VISIBLE
100
AcDbCircle
 10
-12.50408439032917
 20
-214.7186802223652
 30
0.0
 40
10.0
100
AcDbArc
 50
270.0
 51
0.0
  0
LINE
  5
100000A3
102
{ACAD_XDICTIONARY
360
100000A4
102
}
330
1F
100
AcDbEntity
  8
VISIBLE
100
AcDbLine
 10
-12.50408439032917
 20
-224.7186802223652
 30
0.0
 11
-41.1691221074252
 21
-224.7186802223652
 31
0.0
  0
ARC
  5
100000A6
102
{ACAD_XDICTIONARY
360
100000A7
102
}
330
1F
100
AcDbEntity
  8
VISIBLE
100
AcDbCircle
 10
-41.16912210742521
 20
-214.7186802223652
 30
0.0
 40
10.0
100
AcDbArc
 50
180.0
 51
270.0000000000001
  0
LINE
  5
100000AB
102
{ACAD_XDICTIONARY
360
100000AC
102
}
330
1F
100
AcDbEntity
  8
VISIBLE
100
AcDbLine
 10
-51.1691221074252
 20
-214.7186802223652
 30
0.0
 11
-51.1691221074252
 21
-141.7473088065419
 31
0.0
  0
ARC
  5
100000AE
102
{ACAD_XDICTIONARY
360
100000AF
102
}
330
1F
100
AcDbEntity
  8
VISIBLE
100
AcDbCircle
 10
-52.76287210742521
 20
-141.7473088065419
 30
0.0
 40
1.593749999999998
100
AcDbArc
 50
0.0
 51
180.0
  0
LINE
  5
100000B3
102
{ACAD_XDICTIONARY
360
100000B4
102
}
330
1F
100
AcDbEntity
  8
VISIBLE
100
AcDbLine
 10
-54.35662210742521
 20
-141.7473088065419
 30
0.0
 11
-54.3566221074252
 21
-145.0000000000001
 31
0.0
  0
LINE
  5
100000B6
102
{ACAD_XDICTIONARY
360
100000B7
102
}
330
1F
100
AcDbEntity
  8
VISIBLE
100
AcDbLine
 10
-54.3566221074252
 20
-145.0000000000001
 30
0.0
 11
-161.1691221074253
 21
-145.0000000000001
 31
0.0
  0
ARC
  5
100000B9
102
{ACAD_XDICTIONARY
360
100000BA
102
}
330
1F
100
AcDbEntity
  8
VISIBLE
100
AcDbCircle
 10
-161.1691221074254
 20
-25.00000000000006
 30
0.0
 40
120.0
100
AcDbArc
 50
180.0
 51
270.0
  0
LINE
  5
100000BE
102
{ACAD_XDICTIONARY
360
100000BF
102
}
330
1F
100
AcDbEntity
  8
VISIBLE
100
AcDbLine
 10
-281.1691221074254
 20
-25.0000000000001
 30
0.0
 11
-281.1691221074254
 21
24.99999999999997
 31
0.0
  0
ARC
  5
100000C1
102
{ACAD_XDICTIONARY
360
100000C2
102
}
330
1F
100
AcDbEntity
  8
VISIBLE
100
AcDbCircle
 10
-161.1691221074254
 20
24.99999999999999
 30
0.0
 40
120.0
100
AcDbArc
 50
90.0
 51
180.0
  0
LINE
  5
100000C6
102
{ACAD_XDICTIONARY
360
100000C7
102
}
330
1F
100
AcDbEntity
  8
VISIBLE
100
AcDbLine
 10
-161.1691221074254
 20
145.0
 30
0.0
 11
-54.35662210742547
 21
145.0
 31
0.0
  0
LINE
  5
100000C9
102
{ACAD_XDICTIONARY
360
100000CA
102
}
330
1F
100
AcDbEntity
  8
VISIBLE
100
AcDbLine
 10
-54.35662210742547
 20
141.7473088065419
 30
0.0
 11
-54.35662210742547
 21
145.0
 31
0.0
  0
ARC
  5
100000CC
102
{ACAD_XDICTIONARY
360
100000CD
102
}
330
1F
100
AcDbEntity
  8
VISIBLE
100
AcDbCircle
 10
-52.76287210742545
 20
141.7473088065419
 30
0.0
 40
1.593749999999998
100
AcDbArc
 50
180.0
 51
0.0
  0
LINE
  5
100000D1
102
{ACAD_XDICTIONARY
360
100000D2
102
}
330
1F
100
AcDbEntity
  8
VISIBLE
100
AcDbLine
 10
-51.16912210742545
 20
141.7473088065419
 30
0.0
 11
-51.16912210742547
 21
214.7186802223652
 31
0.0
  0
ARC
  5
100000D4
102
{ACAD_XDICTIONARY
360
100000D5
102
}
330
1F
100
AcDbEntity
  8
VISIBLE
100
AcDbCircle
 10
-41.16912210742546
 20
214.7186802223652
 30
0.0
 40
10.0
100
AcDbArc
 50
90.0000000000001
 51
180.0
  0
LINE
  5
100000D9
102
{ACAD_XDICTIONARY
360
100000DA
102
}
330
1F
100
AcDbEntity
  8
VISIBLE
100
AcDbLine
 10
-41.16912210742547
 20
224.7186802223652
 30
0.0
 11
-12.50408439032906
 21
224.7186802223652
 31
0.0
  0
ARC
  5
100000DC
102
{ACAD_XDICTIONARY
360
100000DD
102
}
330
1F
100
AcDbEntity
  8
VISIBLE
100
AcDbCircle
 10
-12.50408439032906
 20
214.7186802223652
 30
0.0
 40
10.0
100
AcDbArc
 50
0.0
 51
90.0
  0
LINE
  5
100000E1
102
{ACAD_XDICTIONARY
360
100000E2
102
}
330
1F
100
AcDbEntity
  8
VISIBLE
100
AcDbLine
 10
-2.50408439032906
 20
214.7186802223652
 30
0.0
 11
-2.504084390329087
 21
144.0473088065419
 31
0.0
  0
LINE
  5
100000E4
102
{ACAD_XDICTIONARY
360
100000E5
102
}
330
1F
100
AcDbEntity
  8
VISIBLE
100
AcDbLine
 10
-2.504084390329087
 20
144.0473088065419
 30
0.0
 11
1.334962282904099
 21
144.0473088065419
 31
0.0
  0
LINE
  5
100000E7
102
{ACAD_XDICTIONARY
360
100000E8
102
}
330
1F
100
AcDbEntity
  8
VISIBLE
100
AcDbLine
 10
1.334962282904042
 20
144.3801960829375
 30
0.0
 11
1.334962282904042
 21
144.0473088065419
 31
0.0
  0
LINE
  5
100000EA
102
{ACAD_XDICTIONARY
360
100000EB
102
}
330
1F
100
AcDbEntity
  8
VISIBLE
100
AcDbLine
 10
211.7663461538462
 20
46.6799107142857
 30
0.0
 11
1.334962282904042
 21
144.3801960829375
 31
0.0
  0
LINE
  5
100000ED
102
{ACAD_XDICTIONARY
360
100000EE
102
}
330
1F
100
AcDbEntity
  8
VISIBLE
100
AcDbLine
 10
211.7663461538462
 20
42.90000000000001
 30
0.0
 11
211.7663461538462
 21
46.6799107142857
 31
0.0
  0
ARC
  5
100000F0
102
{ACAD_XDICTIONARY
360
100000F1
102
}
330
1F
100
AcDbEntity
  8
VISIBLE
100
AcDbCircle
 10
213.3600961538462
 20
42.90000000000001
 30
0.0
 40
1.593750000000005
100
AcDbArc
 50
180.0
 51
0.0
  0
LINE
  5
100000F5
102
{ACAD_XDICTIONARY
360
100000F6
102
}
330
1F
100
AcDbEntity
  8
VISIBLE
100
AcDbLine
 10
214.9538461538462
 20
50.93340659280138
 30
0.0
 11
214.9538461538462
 21
42.90000000000001
 31
0.0
  0
LINE
  5
100000F8
102
{ACAD_XDICTIONARY
360
100000F9
102
}
330
1F
100
AcDbEntity
  8
VISIBLE
100
AcDbLine
 10
214.9538461538462
 20
50.93340659280138
 30
0.0
 11
210.0
 21
50.93340659280138
 31
0.0
  0
LINE
  5
100000FB
102
{ACAD_XDICTIONARY
360
100000FC
102
}
330
1F
100
AcDbEntity
  8
VISIBLE
100
AcDbLine
 10
210.0
 20
50.93340659280138
 30
0.0
 11
210.0
 21
65.63340659280138
 31
0.0
  0
ARC
  5
100000FE
102
{ACAD_XDICTIONARY
360
100000FF
102
}
330
1F
100
AcDbEntity
  8
VISIBLE
100
AcDbCircle
 10
220.0
 20
65.63340659280138
 30
0.0
 40
10.0
100
AcDbArc
 50
90.0
 51
180.0
  0
LINE
  5
10000103
102
{ACAD_XDICTIONARY
360
10000104
102
}
330
1F
100
AcDbEntity
  8
VISIBLE
100
AcDbLine
 10
220.0
 20
75.63340659280138
 30
0.0
 11
240.0000000000001
 21
75.63340659280138
 31
0.0
  0
ARC
  5
10000106
102
{ACAD_XDICTIONARY
360
10000107
102
}
330
1F
100
AcDbEntity
  8
VISIBLE
100
AcDbCircle
 10
240.0000000000001
 20
65.63340659280138
 30
0.0
 40
10.0
100
AcDbArc
 50
0.0
 51
90.0
  0
LINE
  5
1000010B
102
{ACAD_XDICTIONARY
360
1000010C
102
}
330
1F
100
AcDbEntity
  8
VISIBLE
100
AcDbLine
 10
250.0000000000001
 20
65.63340659280138
 30
0.0
 11
250.0000000000001
 21
-65.63340659280136
 31
0.0
  0
ARC
  5
1000010E
102
{ACAD_XDICTIONARY
360
1000010F
102
}
330
1F
100
AcDbEntity
  8
VISIBLE
100
AcDbCircle
 10
240.0000000000001
 20
-65.63340659280136
 30
0.0
 40
10.0
100
AcDbArc
 50
270.0
 51
0.0
  0
SPLINE
  5
10000113
102
{ACAD_XDICTIONARY
360
10000114
102
}
330
1F
100
AcDbEntity
  8
VISIBLE
100
AcDbSpline
210
0.0
220
0.0
230
1.0
 70
     8
 71
     2
 72
     6
 73
     3
 74
     0
 42
0.000000001
 43
0.00000001
 40
0.0
 40
0.0
 40
0.0
 40
1.0
 40
1.0
 40
1.0
 10
-82.45489914957619
 20
81.1156211490068
 30
0.0
 10
-84.37143572406325
 20
83.07397306693721
 30
0.0
 10
-85.41681931014708
 20
85.33897083678556
 30
0.0
  0
SPLINE
  5
10000116
102
{ACAD_XDICTIONARY
360
10000117
102
}
330
1F
100
AcDbEntity
  8
VISIBLE
100
AcDbSpline
210
0.0
220
0.0
230
1.0
 70
     8
 71
     2
 72
     6
 73
     3
 74
     0
 42
0.000000001
 43
0.00000001
 40
0.0
 40
0.0
 40
0.0
 40
1.0
 40
1.0
 40
1.0
 10
-77.79945757954943
 20
77.84705513651795
 30
0.0
 10
-80.53836257508911
 20
79.15726923107637
 30
0.0
 10
-82.45489914957619
 20
81.1156211490068
 30
0.0
  0
SPLINE
  5
10000119
102
{ACAD_XDICTIONARY
360
1000011A
102
}
330
1F
100
AcDbEntity
  8
VISIBLE
100
AcDbSpline
210
0.0
220
0.0
230
1.0
 70
     8
 71
     2
 72
     6
 73
     3
 74
     0
 42
0.000000001
 43
0.00000001
 40
0.0
 40
0.0
 40
0.0
 40
1.0
 40
1.0
 40
1.0
 10
-71.47837149569573
 20
76.5368410419595
 30
0.0
 10
-75.06055258400971
 20
76.5368410419595
 30
0.0
 10
-77.79945757954943
 20
77.84705513651795
 30
0.0
  0
SPLINE
  5
1000011C
102
{ACAD_XDICTIONARY
360
1000011D
102
}
330
1F
100
AcDbEntity
  8
VISIBLE
100
AcDbSpline
210
0.0
220
0.0
230
1.0
 70
     8
 71
     2
 72
     6
 73
     3
 74
     0
 42
0.000000001
 43
0.00000001
 40
0.0
 40
0.0
 40
0.0
 40
1.0
 40
1.0
 40
1.0
 10
-63.99342501933532
 20
77.84705513651797
 30
0.0
 10
-67.12957577758688
 20
76.5368410419595
 30
0.0
 10
-71.47837149569573
 20
76.5368410419595
 30
0.0
  0
SPLINE
  5
1000011F
102
{ACAD_XDICTIONARY
360
10000120
102
}
330
1F
100
AcDbEntity
  8
VISIBLE
100
AcDbSpline
210
0.0
220
0.0
230
1.0
 70
     8
 71
     2
 72
     6
 73
     3
 74
     0
 42
0.000000001
 43
0.00000001
 40
0.0
 40
0.0
 40
0.0
 40
1.0
 40
1.0
 40
1.0
 10
-58.80832243235943
 20
81.1156211490068
 30
0.0
 10
-60.85727426108373
 20
79.15726923107638
 30
0.0
 10
-63.99342501933532
 20
77.84705513651797
 30
0.0
  0
SPLINE
  5
10000122
102
{ACAD_XDICTIONARY
360
10000123
102
}
330
1F
100
AcDbEntity
  8
VISIBLE
100
AcDbSpline
210
0.0
220
0.0
230
1.0
 70
     8
 71
     2
 72
     6
 73
     3
 74
     0
 42
0.000000001
 43
0.00000001
 40
0.0
 40
0.0
 40
0.0
 40
1.0
 40
1.0
 40
1.0
 10
-55.58157176331395
 20
85.38078618022892
 30
0.0
 10
-56.75937060363506
 20
83.07397306693723
 30
0.0
 10
-58.80832243235943
 20
81.1156211490068
 30
0.0
  0
SPLINE
  5
10000125
102
{ACAD_XDICTIONARY
360
10000126
102
}
330
1F
100
AcDbEntity
  8
VISIBLE
100
AcDbSpline
210
0.0
220
0.0
230
1.0
 70
     8
 71
     2
 72
     6
 73
     3
 74
     0
 42
0.000000001
 43
0.00000001
 40
0.0
 40
0.0
 40
0.0
 40
1.0
 40
1.0
 40
1.0
 10
-53.79745044306405
 20
89.82715103303892
 30
0.0
 10
-54.40377292299267
 20
87.68759929352063
 30
0.0
 10
-55.58157176331389
 20
85.38078618022892
 30
0.0
  0
SPLINE
  5
10000128
102
{ACAD_XDICTIONARY
360
10000129
102
}
330
1F
100
AcDbEntity
  8
VISIBLE
100
AcDbSpline
210
0.0
220
0.0
230
1.0
 70
     8
 71
     2
 72
     6
 73
     3
 74
     0
 42
0.000000001
 43
0.00000001
 40
0.0
 40
0.0
 40
0.0
 40
1.0
 40
1.0
 40
1.0
 10
-53.05871270889818
 20
93.6184088385697
 30
0.0
 10
-53.19112796313554
 20
91.9667027725572
 30
0.0
 10
-53.7974504430641
 20
89.82715103303892
 30
0.0
  0
SPLINE
  5
1000012B
102
{ACAD_XDICTIONARY
360
1000012C
102
}
330
1F
100
AcDbEntity
  8
VISIBLE
100
AcDbSpline
210
0.0
220
0.0
230
1.0
 70
     8
 71
     2
 72
     6
 73
     3
 74
     0
 42
0.000000001
 43
0.00000001
 40
0.0
 40
0.0
 40
0.0
 40
1.0
 40
1.0
 40
1.0
 10
-52.92629745466085
 20
95.79977592153134
 30
0.0
 10
-52.92629745466085
 20
95.27011490458219
 30
0.0
 10
-53.05871270889813
 20
93.6184088385697
 30
0.0
  0
LINE
  5
1000012E
102
{ACAD_XDICTIONARY
360
1000012F
102
}
330
1F
100
AcDbEntity
  8
VISIBLE
100
AcDbLine
 10
-52.92629745466085
 20
105.9051505870086
 30
0.0
 11
-52.92629745466083
 21
95.79977592153139
 31
0.0
  0
LINE
  5
10000131
102
{ACAD_XDICTIONARY
360
10000132
102
}
330
1F
100
AcDbEntity
  8
VISIBLE
100
AcDbLine
 10
-60.59244375260914
 20
105.9051505870086
 30
0.0
 11
-52.92629745466085
 21
105.9051505870086
 31
0.0
  0
LINE
  5
10000134
102
{ACAD_XDICTIONARY
360
10000135
102
}
330
1F
100
AcDbEntity
  8
VISIBLE
100
AcDbLine
 10
-60.59244375260914
 20
96.39912917755282
 30
0.0
 11
-60.59244375260914
 21
105.9051505870086
 31
0.0
  0
SPLINE
  5
10000137
102
{ACAD_XDICTIONARY
360
10000138
102
}
330
1F
100
AcDbEntity
  8
VISIBLE
100
AcDbSpline
210
0.0
220
0.0
230
1.0
 70
     8
 71
     2
 72
     6
 73
     3
 74
     0
 42
0.000000001
 43
0.00000001
 40
0.0
 40
0.0
 40
0.0
 40
1.0
 40
1.0
 40
1.0
 10
-63.55436391318008
 20
89.1720439857597
 30
0.0
 10
-60.59244375260911
 20
91.78550295096933
 30
0.0
 10
-60.59244375260911
 20
96.39912917755277
 30
0.0
  0
SPLINE
  5
1000013A
102
{ACAD_XDICTIONARY
360
1000013B
102
}
330
1F
100
AcDbEntity
  8
VISIBLE
100
AcDbSpline
210
0.0
220
0.0
230
1.0
 70
     8
 71
     2
 72
     6
 73
     3
 74
     0
 42
0.000000001
 43
0.00000001
 40
0.0
 40
0.0
 40
0.0
 40
1.0
 40
1.0
 40
1.0
 10
-71.47837149569574
 20
86.55858502055005
 30
0.0
 10
-66.51628407375104
 20
86.55858502055005
 30
0.0
 10
-63.55436391318012
 20
89.1720439857597
 30
0.0
  0
SPLINE
  5
1000013D
102
{ACAD_XDICTIONARY
360
1000013E
102
}
330
1F
100
AcDbEntity
  8
VISIBLE
100
AcDbSpline
210
0.0
220
0.0
230
1.0
 70
     8
 71
     2
 72
     6
 73
     3
 74
     0
 42
0.000000001
 43
0.00000001
 40
0.0
 40
0.0
 40
0.0
 40
1.0
 40
1.0
 40
1.0
 10
-79.40934830211857
 20
89.26264389655363
 30
0.0
 10
-76.1895668569803
 20
86.55858502055005
 30
0.0
 10
-71.47837149569574
 20
86.55858502055005
 30
0.0
  0
SPLINE
  5
10000140
102
{ACAD_XDICTIONARY
360
10000141
102
}
330
1F
100
AcDbEntity
  8
VISIBLE
100
AcDbSpline
210
0.0
220
0.0
230
1.0
 70
     8
 71
     2
 72
     6
 73
     3
 74
     0
 42
0.000000001
 43
0.00000001
 40
0.0
 40
0.0
 40
0.0
 40
1.0
 40
1.0
 40
1.0
 10
-82.62912974725678
 20
97.19362070297646
 30
0.0
 10
-82.62912974725678
 20
91.96670277255718
 30
0.0
 10
-79.40934830211852
 20
89.26264389655363
 30
0.0
  0
LINE
  5
10000143
102
{ACAD_XDICTIONARY
360
10000144
102
}
330
1F
100
AcDbEntity
  8
VISIBLE
100
AcDbLine
 10
-82.62912974725681
 20
105.9051505870086
 30
0.0
 11
-82.62912974725675
 21
97.19362070297652
 31
0.0
  0
LINE
  5
10000146
102
{ACAD_XDICTIONARY
360
10000147
102
}
330
1F
100
AcDbEntity
  8
VISIBLE
100
AcDbLine
 10
-89.69592278918363
 20
105.9051505870086
 30
0.0
 11
-82.62912974725681
 21
105.9051505870086
 31
0.0
  0
LINE
  5
10000149
102
{ACAD_XDICTIONARY
360
1000014A
102
}
330
1F
100
AcDbEntity
  8
VISIBLE
100
AcDbLine
 10
-89.6959227891836
 20
101.7236162426732
 30
0.0
 11
-89.69592278918363
 21
105.9051505870086
 31
0.0
  0
SPLINE
  5
1000014C
102
{ACAD_XDICTIONARY
360
1000014D
102
}
330
1F
100
AcDbEntity
  8
VISIBLE
100
AcDbSpline
210
0.0
220
0.0
230
1.0
 70
     8
 71
     2
 72
     6
 73
     3
 74
     0
 42
0.000000001
 43
0.00000001
 40
0.0
 40
0.0
 40
0.0
 40
1.0
 40
1.0
 40
1.0
 10
-89.77955347607032
 20
97.79994318290511
 30
0.0
 10
-89.69592278918364
 20
99.80011044427887
 30
0.0
 10
-89.69592278918364
 20
101.7236162426732
 30
0.0
  0
SPLINE
  5
1000014F
102
{ACAD_XDICTIONARY
360
10000150
102
}
330
1F
100
AcDbEntity
  8
VISIBLE
100
AcDbSpline
210
0.0
220
0.0
230
1.0
 70
     8
 71
     2
 72
     6
 73
     3
 74
     0
 42
0.000000001
 43
0.00000001
 40
0.0
 40
0.0
 40
0.0
 40
1.0
 40
1.0
 40
1.0
 10
-90.73433715136022
 20
94.05746994472493
 30
0.0
 10
-89.86318416295704
 20
95.79977592153132
 30
0.0
 10
-89.77955347607032
 20
97.79994318290511
 30
0.0
  0
SPLINE
  5
10000152
102
{ACAD_XDICTIONARY
360
10000153
102
}
330
1F
100
AcDbEntity
  8
VISIBLE
100
AcDbSpline
210
0.0
220
0.0
230
1.0
 70
     8
 71
     2
 72
     6
 73
     3
 74
     0
 42
0.000000001
 43
0.00000001
 40
0.0
 40
0.0
 40
0.0
 40
1.0
 40
1.0
 40
1.0
 10
-93.69625731193123
 20
91.22099581448407
 30
0.0
 10
-91.6054901397635
 20
92.3151639679185
 30
0.0
 10
-90.73433715136028
 20
94.05746994472493
 30
0.0
  0
SPLINE
  5
10000155
102
{ACAD_XDICTIONARY
360
10000156
102
}
330
1F
100
AcDbEntity
  8
VISIBLE
100
AcDbSpline
210
0.0
220
0.0
230
1.0
 70
     8
 71
     2
 72
     6
 73
     3
 74
     0
 42
0.000000001
 43
0.00000001
 40
0.0
 40
0.0
 40
0.0
 40
1.0
 40
1.0
 40
1.0
 10
-99.70372831995971
 20
90.12682766104962
 30
0.0
 10
-95.78702448409882
 20
90.12682766104962
 30
0.0
 10
-93.69625731193118
 20
91.22099581448407
 30
0.0
  0
SPLINE
  5
10000158
102
{ACAD_XDICTIONARY
360
10000159
102
}
330
1F
100
AcDbEntity
  8
VISIBLE
100
AcDbSpline
210
0.0
220
0.0
230
1.0
 70
     8
 71
     2
 72
     6
 73
     3
 74
     0
 42
0.000000001
 43
0.00000001
 40
0.0
 40
0.0
 40
0.0
 40
1.0
 40
1.0
 40
1.0
 10
-102.9792635563558
 20
90.56588876720484
 30
0.0
 10
-101.2787729229927
 20
90.12682766104962
 30
0.0
 10
-99.70372831995971
 20
90.12682766104962
 30
0.0
  0
SPLINE
  5
1000015B
102
{ACAD_XDICTIONARY
360
1000015C
102
}
330
1F
100
AcDbEntity
  8
VISIBLE
100
AcDbSpline
210
0.0
220
0.0
230
1.0
 70
     8
 71
     2
 72
     6
 73
     3
 74
     0
 42
0.000000001
 43
0.00000001
 40
0.0
 40
0.0
 40
0.0
 40
1.0
 40
1.0
 40
1.0
 10
-106.073598971164
 20
92.30819474401125
 30
0.0
 10
-104.6797541897189
 20
91.00494987336005
 30
0.0
 10
-102.9792635563559
 20
90.56588876720484
 30
0.0
  0
SPLINE
  5
1000015E
102
{ACAD_XDICTIONARY
360
1000015F
102
}
330
1F
100
AcDbEntity
  8
VISIBLE
100
AcDbSpline
210
0.0
220
0.0
230
1.0
 70
     8
 71
     2
 72
     6
 73
     3
 74
     0
 42
0.000000001
 43
0.00000001
 40
0.0
 40
0.0
 40
0.0
 40
1.0
 40
1.0
 40
1.0
 10
-108.3385967410124
 20
96.05066798219147
 30
0.0
 10
-107.4674437526092
 20
93.61143961466246
 30
0.0
 10
-106.073598971164
 20
92.30819474401125
 30
0.0
  0
SPLINE
  5
10000161
102
{ACAD_XDICTIONARY
360
10000162
102
}
330
1F
100
AcDbEntity
  8
VISIBLE
100
AcDbSpline
210
0.0
220
0.0
230
1.0
 70
     8
 71
     2
 72
     6
 73
     3
 74
     0
 42
0.000000001
 43
0.00000001
 40
0.0
 40
0.0
 40
0.0
 40
1.0
 40
1.0
 40
1.0
 10
-109.2097497294156
 20
102.5041693202825
 30
0.0
 10
-109.2097497294156
 20
98.48989634972047
 30
0.0
 10
-108.3385967410123
 20
96.05066798219147
 30
0.0
  0
LINE
  5
10000164
102
{ACAD_XDICTIONARY
360
10000165
102
}
330
1F
100
AcDbEntity
  8
VISIBLE
100
AcDbLine
 10
-109.2097497294156
 20
105.9051505870086
 30
0.0
 11
-109.2097497294156
 21
102.5041693202825
 31
0.0
  0
LINE
  5
10000167
102
{ACAD_XDICTIONARY
360
10000168
102
}
330
1F
100
AcDbEntity
  8
VISIBLE
100
AcDbLine
 10
-117.126788088024
 20
105.9051505870086
 30
0.0
 11
-109.2097497294156
 21
105.9051505870086
 31
0.0
  0
LINE
  5
1000016A
102
{ACAD_XDICTIONARY
360
1000016B
102
}
330
1F
100
AcDbEntity
  8
VISIBLE
100
AcDbLine
 10
-117.126788088024
 20
101.4587857341986
 30
0.0
 11
-117.126788088024
 21
105.9051505870086
 31
0.0
  0
SPLINE
  5
1000016D
102
{ACAD_XDICTIONARY
360
1000016E
102
}
330
1F
100
AcDbEntity
  8
VISIBLE
100
AcDbSpline
210
0.0
220
0.0
230
1.0
 70
     8
 71
     2
 72
     6
 73
     3
 74
     0
 42
0.000000001
 43
0.00000001
 40
0.0
 40
0.0
 40
0.0
 40
1.0
 40
1.0
 40
1.0
 10
-116.172004412734
 20
93.52780892777575
 30
0.0
 10
-117.126788088024
 20
97.36088207674989
 30
0.0
 10
-117.126788088024
 20
101.4587857341986
 30
0.0
  0
SPLINE
  5
10000170
102
{ACAD_XDICTIONARY
360
10000171
102
}
330
1F
100
AcDbEntity
  8
VISIBLE
100
AcDbSpline
210
0.0
220
0.0
230
1.0
 70
     8
 71
     2
 72
     6
 73
     3
 74
     0
 42
0.000000001
 43
0.00000001
 40
0.0
 40
0.0
 40
0.0
 40
1.0
 40
1.0
 40
1.0
 10
-113.1264535652764
 20
86.73281561823069
 30
0.0
 10
-115.2172207374441
 20
89.69473577880161
 30
0.0
 10
-116.172004412734
 20
93.52780892777575
 30
0.0
  0
SPLINE
  5
10000173
102
{ACAD_XDICTIONARY
360
10000174
102
}
330
1F
100
AcDbEntity
  8
VISIBLE
100
AcDbSpline
210
0.0
220
0.0
230
1.0
 70
     8
 71
     2
 72
     6
 73
     3
 74
     0
 42
0.000000001
 43
0.00000001
 40
0.0
 40
0.0
 40
0.0
 40
1.0
 40
1.0
 40
1.0
 10
-107.6834896937332
 20
82.02858948085337
 30
0.0
 10
-111.0356863931087
 20
83.77089545765978
 30
0.0
 10
-113.1264535652764
 20
86.73281561823069
 30
0.0
  0
SPLINE
  5
10000176
102
{ACAD_XDICTIONARY
360
10000177
102
}
330
1F
100
AcDbEntity
  8
VISIBLE
100
AcDbSpline
210
0.0
220
0.0
230
1.0
 70
     8
 71
     2
 72
     6
 73
     3
 74
     0
 42
0.000000001
 43
0.00000001
 40
0.0
 40
0.0
 40
0.0
 40
1.0
 40
1.0
 40
1.0
 10
-99.70372831995975
 20
80.28628350404695
 30
0.0
 10
-104.3312929943576
 20
80.28628350404695
 30
0.0
 10
-107.6834896937332
 20
82.02858948085337
 30
0.0
  0
SPLINE
  5
10000179
102
{ACAD_XDICTIONARY
360
1000017A
102
}
330
1F
100
AcDbEntity
  8
VISIBLE
100
AcDbSpline
210
0.0
220
0.0
230
1.0
 70
     8
 71
     2
 72
     6
 73
     3
 74
     0
 42
0.000000001
 43
0.00000001
 40
0.0
 40
0.0
 40
0.0
 40
1.0
 40
1.0
 40
1.0
 10
-94.79042546536562
 20
81.15743649245016
 30
0.0
 10
-97.01360789177063
 20
80.28628350404695
 30
0.0
 10
-99.70372831995971
 20
80.28628350404695
 30
0.0
  0
SPLINE
  5
1000017C
102
{ACAD_XDICTIONARY
360
1000017D
102
}
330
1F
100
AcDbEntity
  8
VISIBLE
100
AcDbSpline
210
0.0
220
0.0
230
1.0
 70
     8
 71
     2
 72
     6
 73
     3
 74
     0
 42
0.000000001
 43
0.00000001
 40
0.0
 40
0.0
 40
0.0
 40
1.0
 40
1.0
 40
1.0
 10
-90.90856774904096
 20
83.33880357541179
 30
0.0
 10
-92.56724303896065
 20
82.02858948085337
 30
0.0
 10
-94.79042546536566
 20
81.15743649245016
 30
0.0
  0
SPLINE
  5
1000017F
102
{ACAD_XDICTIONARY
360
10000180
102
}
330
1F
100
AcDbEntity
  8
VISIBLE
100
AcDbSpline
210
0.0
220
0.0
230
1.0
 70
     8
 71
     2
 72
     6
 73
     3
 74
     0
 42
0.000000001
 43
0.00000001
 40
0.0
 40
0.0
 40
0.0
 40
1.0
 40
1.0
 40
1.0
 10
-88.16269352959404
 20
86.34253907942606
 30
0.0
 10
-89.24989245912124
 20
84.6490176699702
 30
0.0
 10
-90.90856774904096
 20
83.33880357541179
 30
0.0
  0
SPLINE
  5
10000182
102
{ACAD_XDICTIONARY
360
10000183
102
}
330
1F
100
AcDbEntity
  8
VISIBLE
100
AcDbSpline
210
0.0
220
0.0
230
1.0
 70
     8
 71
     2
 72
     6
 73
     3
 74
     0
 42
0.000000001
 43
0.00000001
 40
0.0
 40
0.0
 40
0.0
 40
1.0
 40
1.0
 40
1.0
 10
-86.7270334047055
 20
89.61110509191491
 30
0.0
 10
-87.07549460006683
 20
88.03606048888189
 30
0.0
 10
-88.16269352959404
 20
86.34253907942606
 30
0.0
  0
SPLINE
  5
10000185
102
{ACAD_XDICTIONARY
360
10000186
102
}
330
1F
100
AcDbEntity
  8
VISIBLE
100
AcDbSpline
210
0.0
220
0.0
230
1.0
 70
     8
 71
     2
 72
     6
 73
     3
 74
     0
 42
0.000000001
 43
0.00000001
 40
0.0
 40
0.0
 40
0.0
 40
1.0
 40
1.0
 40
1.0
 10
-85.41681931014702
 20
85.33897083678556
 30
0.0
 10
-86.46220289623088
 20
87.6039686066339
 30
0.0
 10
-86.72703340470545
 20
89.61110509191491
 30
0.0
  0
SPLINE
  5
10000188
102
{ACAD_XDICTIONARY
360
10000189
102
}
330
1F
100
AcDbEntity
  8
VISIBLE
100
AcDbSpline
210
0.0
220
0.0
230
1.0
 70
     8
 71
     2
 72
     6
 73
     3
 74
     0
 42
0.000000001
 43
0.00000001
 40
0.0
 40
0.0
 40
0.0
 40
1.0
 40
1.0
 40
1.0
 10
-60.68304366340304
 20
-12.53680971629205
 30
0.0
 10
-61.5541966518063
 20
-11.09418036749634
 30
0.0
 10
-63.20590271781876
 20
-10.31362728988704
 30
0.0
  0
SPLINE
  5
1000018B
102
{ACAD_XDICTIONARY
360
1000018C
102
}
330
1F
100
AcDbEntity
  8
VISIBLE
100
AcDbSpline
210
0.0
220
0.0
230
1.0
 70
     8
 71
     2
 72
     6
 73
     3
 74
     0
 42
0.000000001
 43
0.00000001
 40
0.0
 40
0.0
 40
0.0
 40
1.0
 40
1.0
 40
1.0
 10
-59.59584473387584
 20
-15.76356038533754
 30
0.0
 10
-59.81189067499984
 20
-13.97943906508777
 30
0.0
 10
-60.68304366340304
 20
-12.53680971629205
 30
0.0
  0
SPLINE
  5
1000018E
102
{ACAD_XDICTIONARY
360
1000018F
102
}
330
1F
100
AcDbEntity
  8
VISIBLE
100
AcDbSpline
210
0.0
220
0.0
230
1.0
 70
     8
 71
     2
 72
     6
 73
     3
 74
     0
 42
0.000000001
 43
0.00000001
 40
0.0
 40
0.0
 40
0.0
 40
1.0
 40
1.0
 40
1.0
 10
-59.37979879275183
 20
-19.55481819086831
 30
0.0
 10
-59.37979879275183
 20
-17.54768170558731
 30
0.0
 10
-59.59584473387584
 20
-15.76356038533754
 30
0.0
  0
LINE
  5
10000191
102
{ACAD_XDICTIONARY
360
10000192
102
}
330
1F
100
AcDbEntity
  8
VISIBLE
100
AcDbLine
 10
-52.92629745466083
 20
-19.55481819086832
 30
0.0
 11
-59.37979879275182
 21
-19.55481819086832
 31
0.0
  0
SPLINE
  5
10000194
102
{ACAD_XDICTIONARY
360
10000195
102
}
330
1F
100
AcDbEntity
  8
VISIBLE
100
AcDbSpline
210
0.0
220
0.0
230
1.0
 70
     8
 71
     2
 72
     6
 73
     3
 74
     0
 42
0.000000001
 43
0.00000001
 40
0.0
 40
0.0
 40
0.0
 40
1.0
 40
1.0
 40
1.0
 10
-52.66146694618629
 20
-17.28285119711275
 30
0.0
 10
-52.74509763307307
 20
-18.4118654700833
 30
0.0
 10
-52.92629745466088
 20
-19.55481819086831
 30
0.0
  0
SPLINE
  5
10000197
102
{ACAD_XDICTIONARY
360
10000198
102
}
330
1F
100
AcDbEntity
  8
VISIBLE
100
AcDbSpline
210
0.0
220
0.0
230
1.0
 70
     8
 71
     2
 72
     6
 73
     3
 74
     0
 42
0.000000001
 43
0.00000001
 40
0.0
 40
0.0
 40
0.0
 40
1.0
 40
1.0
 40
1.0
 10
-52.53602091585625
 20
-14.97603808382105
 30
0.0
 10
-52.57783625929959
 20
-16.3210982979156
 30
0.0
 10
-52.66146694618629
 20
-17.28285119711275
 30
0.0
  0
SPLINE
  5
1000019A
102
{ACAD_XDICTIONARY
360
1000019B
102
}
330
1F
100
AcDbEntity
  8
VISIBLE
100
AcDbSpline
210
0.0
220
0.0
230
1.0
 70
     8
 71
     2
 72
     6
 73
     3
 74
     0
 42
0.000000001
 43
0.00000001
 40
0.0
 40
0.0
 40
0.0
 40
1.0
 40
1.0
 40
1.0
 10
-52.49420557241282
 20
-12.32076377516804
 30
0.0
 10
-52.49420557241282
 20
-13.63097786972649
 30
0.0
 10
-52.53602091585621
 20
-14.97603808382105
 30
0.0
  0
SPLINE
  5
1000019D
102
{ACAD_XDICTIONARY
360
1000019E
102
}
330
1F
100
AcDbEntity
  8
VISIBLE
100
AcDbSpline
210
0.0
220
0.0
230
1.0
 70
     8
 71
     2
 72
     6
 73
     3
 74
     0
 42
0.000000001
 43
0.00000001
 40
0.0
 40
0.0
 40
0.0
 40
1.0
 40
1.0
 40
1.0
 10
-52.57783625929954
 20
-9.658520242607842
 30
0.0
 10
-52.49420557241282
 20
-11.01054968060962
 30
0.0
 10
-52.49420557241282
 20
-12.32076377516804
 30
0.0
  0
SPLINE
  5
100001A0
102
{ACAD_XDICTIONARY
360
100001A1
102
}
330
1F
100
AcDbEntity
  8
VISIBLE
100
AcDbSpline
210
0.0
220
0.0
230
1.0
 70
     8
 71
     2
 72
     6
 73
     3
 74
     0
 42
0.000000001
 43
0.00000001
 40
0.0
 40
0.0
 40
0.0
 40
1.0
 40
1.0
 40
1.0
 10
-52.84266676777417
 20
-7.358676353223363
 30
0.0
 10
-52.66146694618629
 20
-8.306490804606064
 30
0.0
 10
-52.57783625929959
 20
-9.658520242607842
 30
0.0
  0
SPLINE
  5
100001A3
102
{ACAD_XDICTIONARY
360
100001A4
102
}
330
1F
100
AcDbEntity
  8
VISIBLE
100
AcDbSpline
210
0.0
220
0.0
230
1.0
 70
     8
 71
     2
 72
     6
 73
     3
 74
     0
 42
0.000000001
 43
0.00000001
 40
0.0
 40
0.0
 40
0.0
 40
1.0
 40
1.0
 40
1.0
 10
-55.40734116563325
 20
-2.738080902732712
 30
0.0
 10
-53.35838933690888
 20
-4.389786968745216
 30
0.0
 10
-52.84266676777417
 20
-7.358676353223363
 30
0.0
  0
SPLINE
  5
100001A6
102
{ACAD_XDICTIONARY
360
100001A7
102
}
330
1F
100
AcDbEntity
  8
VISIBLE
100
AcDbSpline
210
0.0
220
0.0
230
1.0
 70
     8
 71
     2
 72
     6
 73
     3
 74
     0
 42
0.000000001
 43
0.00000001
 40
0.0
 40
0.0
 40
0.0
 40
1.0
 40
1.0
 40
1.0
 10
-59.93733670532993
 20
-0.257037191760388
 30
0.0
 10
-57.45629299435757
 20
-1.086374836720236
 30
0.0
 10
-55.40734116563325
 20
-2.738080902732712
 30
0.0
  0
SPLINE
  5
100001A9
102
{ACAD_XDICTIONARY
360
100001AA
102
}
330
1F
100
AcDbEntity
  8
VISIBLE
100
AcDbSpline
210
0.0
220
0.0
230
1.0
 70
     8
 71
     2
 72
     6
 73
     3
 74
     0
 42
0.000000001
 43
0.00000001
 40
0.0
 40
0.0
 40
0.0
 40
1.0
 40
1.0
 40
1.0
 10
-64.77397809694459
 20
0.7883463943234701
 30
0.0
 10
-62.41838041630226
 20
0.5723004531994883
 30
0.0
 10
-59.93733670532993
 20
-0.257037191760388
 30
0.0
  0
SPLINE
  5
100001AC
102
{ACAD_XDICTIONARY
360
100001AD
102
}
330
1F
100
AcDbEntity
  8
VISIBLE
100
AcDbSpline
210
0.0
220
0.0
230
1.0
 70
     8
 71
     2
 72
     6
 73
     3
 74
     0
 42
0.000000001
 43
0.00000001
 40
0.0
 40
0.0
 40
0.0
 40
1.0
 40
1.0
 40
1.0
 10
-68.4397898721453
 20
1.00439233544748
 30
0.0
 10
-67.12957577758687
 20
1.00439233544748
 30
0.0
 10
-64.77397809694459
 20
0.7883463943234701
 30
0.0
  0
LINE
  5
100001AF
102
{ACAD_XDICTIONARY
360
100001B0
102
}
330
1F
100
AcDbEntity
  8
VISIBLE
100
AcDbLine
 10
-94.9228407196028
 20
1.004392335447474
 30
0.0
 11
-68.43978987214527
 21
1.00439233544748
 31
0.0
  0
LINE
  5
100001B2
102
{ACAD_XDICTIONARY
360
100001B3
102
}
330
1F
100
AcDbEntity
  8
VISIBLE
100
AcDbLine
 10
-94.92284071960286
 20
7.457893673538464
 30
0.0
 11
-94.9228407196028
 21
1.004392335447474
 31
0.0
  0
LINE
  5
100001B5
102
{ACAD_XDICTIONARY
360
100001B6
102
}
330
1F
100
AcDbEntity
  8
VISIBLE
100
AcDbLine
 10
-102.059326000602
 20
7.457893673538463
 30
0.0
 11
-94.92284071960286
 21
7.457893673538464
 31
0.0
  0
LINE
  5
100001B8
102
{ACAD_XDICTIONARY
360
100001B9
102
}
330
1F
100
AcDbEntity
  8
VISIBLE
100
AcDbLine
 10
-102.059326000602
 20
1.004392335447472
 30
0.0
 11
-102.059326000602
 21
7.457893673538463
 31
0.0
  0
LINE
  5
100001BB
102
{ACAD_XDICTIONARY
360
100001BC
102
}
330
1F
100
AcDbEntity
  8
VISIBLE
100
AcDbLine
 10
-115.9977738150533
 20
1.004392335447469
 30
0.0
 11
-102.059326000602
 21
1.004392335447472
 31
0.0
  0
LINE
  5
100001BE
102
{ACAD_XDICTIONARY
360
100001BF
102
}
330
1F
100
AcDbEntity
  8
VISIBLE
100
AcDbLine
 10
-115.9977738150534
 20
-9.533074212277786
 30
0.0
 11
-115.9977738150533
 21
1.004392335447469
 31
0.0
  0
LINE
  5
100001C1
102
{ACAD_XDICTIONARY
360
100001C2
102
}
330
1F
100
AcDbEntity
  8
VISIBLE
100
AcDbLine
 10
-102.059326000602
 20
-9.533074212277782
 30
0.0
 11
-115.9977738150534
 21
-9.533074212277786
 31
0.0
  0
LINE
  5
100001C4
102
{ACAD_XDICTIONARY
360
100001C5
102
}
330
1F
100
AcDbEntity
  8
VISIBLE
100
AcDbLine
 10
-102.059326000602
 20
-17.36648188399948
 30
0.0
 11
-102.059326000602
 21
-9.533074212277782
 31
0.0
  0
LINE
  5
100001C7
102
{ACAD_XDICTIONARY
360
100001C8
102
}
330
1F
100
AcDbEntity
  8
VISIBLE
100
AcDbLine
 10
-94.9228407196028
 20
-17.36648188399948
 30
0.0
 11
-102.059326000602
 21
-17.36648188399948
 31
0.0
  0
LINE
  5
100001CA
102
{ACAD_XDICTIONARY
360
100001CB
102
}
330
1F
100
AcDbEntity
  8
VISIBLE
100
AcDbLine
 10
-94.92284071960286
 20
-9.533074212277782
 30
0.0
 11
-94.9228407196028
 21
-17.36648188399948
 31
0.0
  0
LINE
  5
100001CD
102
{ACAD_XDICTIONARY
360
100001CE
102
}
330
1F
100
AcDbEntity
  8
VISIBLE
100
AcDbLine
 10
-67.82649816830937
 20
-9.533074212277777
 30
0.0
 11
-94.92284071960286
 21
-9.533074212277782
 31
0.0
  0
SPLINE
  5
100001D0
102
{ACAD_XDICTIONARY
360
100001D1
102
}
330
1F
100
AcDbEntity
  8
VISIBLE
100
AcDbSpline
210
0.0
220
0.0
230
1.0
 70
     8
 71
     2
 72
     6
 73
     3
 74
     0
 42
0.000000001
 43
0.00000001
 40
0.0
 40
0.0
 40
0.0
 40
1.0
 40
1.0
 40
1.0
 10
-63.2059027178188
 20
-10.31362728988704
 30
0.0
 10
-64.8576087838313
 20
-9.533074212277771
 30
0.0
 10
-67.82649816830944
 20
-9.533074212277773
 30
0.0
  0
SPLINE
  5
100001D3
102
{ACAD_XDICTIONARY
360
100001D4
102
}
330
1F
100
AcDbEntity
  8
VISIBLE
100
AcDbSpline
210
0.0
220
0.0
230
1.0
 70
     8
 71
     2
 72
     6
 73
     3
 74
     0
 42
0.000000001
 43
0.00000001
 40
0.0
 40
0.0
 40
0.0
 40
1.0
 40
1.0
 40
1.0
 10
-62.11870378829155
 20
34.42182097059467
 30
0.0
 10
-61.55419665180636
 20
36.03171169316381
 30
0.0
 10
-61.33815071068236
 20
37.4673718180523
 30
0.0
  0
SPLINE
  5
100001D6
102
{ACAD_XDICTIONARY
360
100001D7
102
}
330
1F
100
AcDbEntity
  8
VISIBLE
100
AcDbSpline
210
0.0
220
0.0
230
1.0
 70
     8
 71
     2
 72
     6
 73
     3
 74
     0
 42
0.000000001
 43
0.00000001
 40
0.0
 40
0.0
 40
0.0
 40
1.0
 40
1.0
 40
1.0
 10
-63.5543639131801
 20
31.19507030154917
 30
0.0
 10
-62.68321092477689
 20
32.81193024802553
 30
0.0
 10
-62.11870378829155
 20
34.42182097059467
 30
0.0
  0
SPLINE
  5
100001D9
102
{ACAD_XDICTIONARY
360
100001DA
102
}
330
1F
100
AcDbEntity
  8
VISIBLE
100
AcDbSpline
210
0.0
220
0.0
230
1.0
 70
     8
 71
     2
 72
     6
 73
     3
 74
     0
 42
0.000000001
 43
0.00000001
 40
0.0
 40
0.0
 40
0.0
 40
1.0
 40
1.0
 40
1.0
 10
-65.65210030925505
 20
28.36556539521554
 30
0.0
 10
-64.42551690158331
 20
29.57821035507282
 30
0.0
 10
-63.5543639131801
 20
31.19507030154917
 30
0.0
  0
LINE
  5
100001DC
102
{ACAD_XDICTIONARY
360
100001DD
102
}
330
1F
100
AcDbEntity
  8
VISIBLE
100
AcDbLine
 10
-59.8118906749999
 20
24.53249224624142
 30
0.0
 11
-65.65210030925503
 21
28.36556539521555
 31
0.0
  0
SPLINE
  5
100001DF
102
{ACAD_XDICTIONARY
360
100001E0
102
}
330
1F
100
AcDbEntity
  8
VISIBLE
100
AcDbSpline
210
0.0
220
0.0
230
1.0
 70
     8
 71
     2
 72
     6
 73
     3
 74
     0
 42
0.000000001
 43
0.00000001
 40
0.0
 40
0.0
 40
0.0
 40
1.0
 40
1.0
 40
1.0
 10
-54.41074214689996
 20
31.23688564499253
 30
0.0
 10
-56.24364803450032
 20
27.4038124960184
 30
0.0
 10
-59.8118906749999
 20
24.53249224624141
 30
0.0
  0
SPLINE
  5
100001E2
102
{ACAD_XDICTIONARY
360
100001E3
102
}
330
1F
100
AcDbEntity
  8
VISIBLE
100
AcDbSpline
210
0.0
220
0.0
230
1.0
 70
     8
 71
     2
 72
     6
 73
     3
 74
     0
 42
0.000000001
 43
0.00000001
 40
0.0
 40
0.0
 40
0.0
 40
1.0
 40
1.0
 40
1.0
 10
-52.57783625929959
 20
40.9937991151085
 30
0.0
 10
-52.57783625929959
 20
35.06995879396667
 30
0.0
 10
-54.41074214689996
 20
31.23688564499253
 30
0.0
  0
SPLINE
  5
100001E5
102
{ACAD_XDICTIONARY
360
100001E6
102
}
330
1F
100
AcDbEntity
  8
VISIBLE
100
AcDbSpline
210
0.0
220
0.0
230
1.0
 70
     8
 71
     2
 72
     6
 73
     3
 74
     0
 42
0.000000001
 43
0.00000001
 40
0.0
 40
0.0
 40
0.0
 40
1.0
 40
1.0
 40
1.0
 10
-54.53618817723001
 20
49.97015950761519
 30
0.0
 10
-52.5778362592996
 20
45.78862516327978
 30
0.0
 10
-52.57783625929959
 20
40.9937991151085
 30
0.0
  0
SPLINE
  5
100001E8
102
{ACAD_XDICTIONARY
360
100001E9
102
}
330
1F
100
AcDbEntity
  8
VISIBLE
100
AcDbSpline
210
0.0
220
0.0
230
1.0
 70
     8
 71
     2
 72
     6
 73
     3
 74
     0
 42
0.000000001
 43
0.00000001
 40
0.0
 40
0.0
 40
0.0
 40
1.0
 40
1.0
 40
1.0
 10
-59.89552136188657
 20
57.11361401252152
 30
0.0
 10
-56.49454009516042
 20
54.15169385195061
 30
0.0
 10
-54.53618817722996
 20
49.97015950761519
 30
0.0
  0
SPLINE
  5
100001EB
102
{ACAD_XDICTIONARY
360
100001EC
102
}
330
1F
100
AcDbEntity
  8
VISIBLE
100
AcDbSpline
210
0.0
220
0.0
230
1.0
 70
     8
 71
     2
 72
     6
 73
     3
 74
     0
 42
0.000000001
 43
0.00000001
 40
0.0
 40
0.0
 40
0.0
 40
1.0
 40
1.0
 40
1.0
 10
-67.82649816830943
 20
61.81784014989887
 30
0.0
 10
-63.29650262861268
 20
60.07553417309244
 30
0.0
 10
-59.89552136188657
 20
57.11361401252152
 30
0.0
  0
SPLINE
  5
100001EE
102
{ACAD_XDICTIONARY
360
100001EF
102
}
330
1F
100
AcDbEntity
  8
VISIBLE
100
AcDbSpline
210
0.0
220
0.0
230
1.0
 70
     8
 71
     2
 72
     6
 73
     3
 74
     0
 42
0.000000001
 43
0.00000001
 40
0.0
 40
0.0
 40
0.0
 40
1.0
 40
1.0
 40
1.0
 10
-77.58341163842536
 20
63.56014612670527
 30
0.0
 10
-72.35649370800614
 20
63.56014612670527
 30
0.0
 10
-67.82649816830946
 20
61.81784014989887
 30
0.0
  0
SPLINE
  5
100001F1
102
{ACAD_XDICTIONARY
360
100001F2
102
}
330
1F
100
AcDbEntity
  8
VISIBLE
100
AcDbSpline
210
0.0
220
0.0
230
1.0
 70
     8
 71
     2
 72
     6
 73
     3
 74
     0
 42
0.000000001
 43
0.00000001
 40
0.0
 40
0.0
 40
0.0
 40
1.0
 40
1.0
 40
1.0
 10
-86.99186391318007
 20
61.95025540413614
 30
0.0
 10
-82.54549906037006
 20
63.56014612670527
 30
0.0
 10
-77.58341163842532
 20
63.56014612670527
 30
0.0
  0
SPLINE
  5
100001F4
102
{ACAD_XDICTIONARY
360
100001F5
102
}
330
1F
100
AcDbEntity
  8
VISIBLE
100
AcDbSpline
210
0.0
220
0.0
230
1.0
 70
     8
 71
     2
 72
     6
 73
     3
 74
     0
 42
0.000000001
 43
0.00000001
 40
0.0
 40
0.0
 40
0.0
 40
1.0
 40
1.0
 40
1.0
 10
-94.79042546536562
 20
57.55267511867674
 30
0.0
 10
-91.43822876599006
 20
60.34036468156701
 30
0.0
 10
-86.99186391318007
 20
61.95025540413614
 30
0.0
  0
SPLINE
  5
100001F7
102
{ACAD_XDICTIONARY
360
100001F8
102
}
330
1F
100
AcDbEntity
  8
VISIBLE
100
AcDbSpline
210
0.0
220
0.0
230
1.0
 70
     8
 71
     2
 72
     6
 73
     3
 74
     0
 42
0.000000001
 43
0.00000001
 40
0.0
 40
0.0
 40
0.0
 40
1.0
 40
1.0
 40
1.0
 10
-100.2333893369089
 20
51.05735843714239
 30
0.0
 10
-98.14262216474116
 20
54.76498555578645
 30
0.0
 10
-94.79042546536562
 20
57.55267511867674
 30
0.0
  0
SPLINE
  5
100001FA
102
{ACAD_XDICTIONARY
360
100001FB
102
}
330
1F
100
AcDbEntity
  8
VISIBLE
100
AcDbSpline
210
0.0
220
0.0
230
1.0
 70
     8
 71
     2
 72
     6
 73
     3
 74
     0
 42
0.000000001
 43
0.00000001
 40
0.0
 40
0.0
 40
0.0
 40
1.0
 40
1.0
 40
1.0
 10
-102.5889870175512
 20
43.08456628727619
 30
0.0
 10
-102.3241565090766
 20
47.34973131849831
 30
0.0
 10
-100.2333893369089
 20
51.05735843714239
 30
0.0
  0
LINE
  5
100001FD
102
{ACAD_XDICTIONARY
360
100001FE
102
}
330
1F
100
AcDbEntity
  8
VISIBLE
100
AcDbLine
 10
-94.22591832888034
 20
43.08456628727621
 30
0.0
 11
-102.5889870175512
 21
43.0845662872762
 31
0.0
  0
SPLINE
  5
10000200
102
{ACAD_XDICTIONARY
360
10000201
102
}
330
1F
100
AcDbEntity
  8
VISIBLE
100
AcDbSpline
210
0.0
220
0.0
230
1.0
 70
     8
 71
     2
 72
     6
 73
     3
 74
     0
 42
0.000000001
 43
0.00000001
 40
0.0
 40
0.0
 40
0.0
 40
1.0
 40
1.0
 40
1.0
 10
-91.60549013976346
 20
48.39511490458219
 30
0.0
 10
-93.61262662504447
 20
46.30434773241446
 30
0.0
 10
-94.2259183288803
 20
43.0845662872762
 30
0.0
  0
SPLINE
  5
10000203
102
{ACAD_XDICTIONARY
360
10000204
102
}
330
1F
100
AcDbEntity
  8
VISIBLE
100
AcDbSpline
210
0.0
220
0.0
230
1.0
 70
     8
 71
     2
 72
     6
 73
     3
 74
     0
 42
0.000000001
 43
0.00000001
 40
0.0
 40
0.0
 40
0.0
 40
1.0
 40
1.0
 40
1.0
 10
-87.03367925662339
 20
51.66368091707103
 30
0.0
 10
-89.59835365448247
 20
50.48588207674989
 30
0.0
 10
-91.60549013976346
 20
48.39511490458219
 30
0.0
  0
SPLINE
  5
10000206
102
{ACAD_XDICTIONARY
360
10000207
102
}
330
1F
100
AcDbEntity
  8
VISIBLE
100
AcDbSpline
210
0.0
220
0.0
230
1.0
 70
     8
 71
     2
 72
     6
 73
     3
 74
     0
 42
0.000000001
 43
0.00000001
 40
0.0
 40
0.0
 40
0.0
 40
1.0
 40
1.0
 40
1.0
 10
-81.7649459827608
 20
53.32235620699074
 30
0.0
 10
-84.46900485876438
 20
52.84147975739216
 30
0.0
 10
-87.03367925662344
 20
51.66368091707103
 30
0.0
  0
SPLINE
  5
10000209
102
{ACAD_XDICTIONARY
360
1000020A
102
}
330
1F
100
AcDbEntity
  8
VISIBLE
100
AcDbSpline
210
0.0
220
0.0
230
1.0
 70
     8
 71
     2
 72
     6
 73
     3
 74
     0
 42
0.000000001
 43
0.00000001
 40
0.0
 40
0.0
 40
0.0
 40
1.0
 40
1.0
 40
1.0
 10
-77.1513197561774
 20
53.80323265658931
 30
0.0
 10
-79.06088710675722
 20
53.80323265658931
 30
0.0
 10
-81.76494598276076
 20
53.32235620699074
 30
0.0
  0
SPLINE
  5
1000020C
102
{ACAD_XDICTIONARY
360
1000020D
102
}
330
1F
100
AcDbEntity
  8
VISIBLE
100
AcDbSpline
210
0.0
220
0.0
230
1.0
 70
     8
 71
     2
 72
     6
 73
     3
 74
     0
 42
0.000000001
 43
0.00000001
 40
0.0
 40
0.0
 40
0.0
 40
1.0
 40
1.0
 40
1.0
 10
-70.83023367232366
 20
52.97389501162947
 30
0.0
 10
-73.75033848945122
 20
53.80323265658932
 30
0.0
 10
-77.1513197561774
 20
53.80323265658931
 30
0.0
  0
SPLINE
  5
1000020F
102
{ACAD_XDICTIONARY
360
10000210
102
}
330
1F
100
AcDbEntity
  8
VISIBLE
100
AcDbSpline
210
0.0
220
0.0
230
1.0
 70
     8
 71
     2
 72
     6
 73
     3
 74
     0
 42
0.000000001
 43
0.00000001
 40
0.0
 40
0.0
 40
0.0
 40
1.0
 40
1.0
 40
1.0
 10
-65.77754633958507
 20
50.40225138986318
 30
0.0
 10
-67.91012885519612
 20
52.1445573666696
 30
0.0
 10
-70.83023367232366
 20
52.97389501162947
 30
0.0
  0
SPLINE
  5
10000212
102
{ACAD_XDICTIONARY
360
10000213
102
}
330
1F
100
AcDbEntity
  8
VISIBLE
100
AcDbSpline
210
0.0
220
0.0
230
1.0
 70
     8
 71
     2
 72
     6
 73
     3
 74
     0
 42
0.000000001
 43
0.00000001
 40
0.0
 40
0.0
 40
0.0
 40
1.0
 40
1.0
 40
1.0
 10
-62.38353429676618
 20
46.08830179129047
 30
0.0
 10
-63.64496382397401
 20
48.65994541305677
 30
0.0
 10
-65.77754633958511
 20
50.40225138986318
 30
0.0
  0
SPLINE
  5
10000215
102
{ACAD_XDICTIONARY
360
10000216
102
}
330
1F
100
AcDbEntity
  8
VISIBLE
100
AcDbSpline
210
0.0
220
0.0
230
1.0
 70
     8
 71
     2
 72
     6
 73
     3
 74
     0
 42
0.000000001
 43
0.00000001
 40
0.0
 40
0.0
 40
0.0
 40
1.0
 40
1.0
 40
1.0
 10
-61.12210476955831
 20
39.86478484213794
 30
0.0
 10
-61.12210476955831
 20
43.51665816952419
 30
0.0
 10
-62.38353429676614
 20
46.08830179129047
 30
0.0
  0
SPLINE
  5
10000218
102
{ACAD_XDICTIONARY
360
10000219
102
}
330
1F
100
AcDbEntity
  8
VISIBLE
100
AcDbSpline
210
0.0
220
0.0
230
1.0
 70
     8
 71
     2
 72
     6
 73
     3
 74
     0
 42
0.000000001
 43
0.00000001
 40
0.0
 40
0.0
 40
0.0
 40
1.0
 40
1.0
 40
1.0
 10
-61.33815071068231
 20
37.4673718180523
 30
0.0
 10
-61.12210476955831
 20
38.90303194294079
 30
0.0
 10
-61.12210476955831
 20
39.86478484213794
 30
0.0
  0
SPLINE
  5
1000021B
102
{ACAD_XDICTIONARY
360
1000021C
102
}
330
1F
100
AcDbEntity
  8
VISIBLE
100
AcDbSpline
210
0.0
220
0.0
230
1.0
 70
     8
 71
     2
 72
     6
 73
     3
 74
     0
 42
0.000000001
 43
0.00000001
 40
0.0
 40
0.0
 40
0.0
 40
1.0
 40
1.0
 40
1.0
 10
-94.56741030033437
 20
24.5324922462414
 30
0.0
 10
-97.87779165626657
 20
27.23655112224497
 30
0.0
 10
-99.96855882843427
 20
31.02083970386852
 30
0.0
  0
SPLINE
  5
1000021E
102
{ACAD_XDICTIONARY
360
1000021F
102
}
330
1F
100
AcDbEntity
  8
VISIBLE
100
AcDbSpline
210
0.0
220
0.0
230
1.0
 70
     8
 71
     2
 72
     6
 73
     3
 74
     0
 42
0.000000001
 43
0.00000001
 40
0.0
 40
0.0
 40
0.0
 40
1.0
 40
1.0
 40
1.0
 10
-86.99186391318005
 20
20.39277324534934
 30
0.0
 10
-91.25702894440212
 20
21.82843337023783
 30
0.0
 10
-94.56741030033437
 20
24.5324922462414
 30
0.0
  0
SPLINE
  5
10000221
102
{ACAD_XDICTIONARY
360
10000222
102
}
330
1F
100
AcDbEntity
  8
VISIBLE
100
AcDbSpline
210
0.0
220
0.0
230
1.0
 70
     8
 71
     2
 72
     6
 73
     3
 74
     0
 42
0.000000001
 43
0.00000001
 40
0.0
 40
0.0
 40
0.0
 40
1.0
 40
1.0
 40
1.0
 10
-78.09913420756013
 20
18.95711312046085
 30
0.0
 10
-82.72669888195794
 20
18.95711312046084
 30
0.0
 10
-86.99186391318008
 20
20.39277324534934
 30
0.0
  0
SPLINE
  5
10000224
102
{ACAD_XDICTIONARY
360
10000225
102
}
330
1F
100
AcDbEntity
  8
VISIBLE
100
AcDbSpline
210
0.0
220
0.0
230
1.0
 70
     8
 71
     2
 72
     6
 73
     3
 74
     0
 42
0.000000001
 43
0.00000001
 40
0.0
 40
0.0
 40
0.0
 40
1.0
 40
1.0
 40
1.0
 10
-73.91759986322468
 20
19.22194362893542
 30
0.0
 10
-76.00836703539241
 20
18.95711312046085
 30
0.0
 10
-78.09913420756013
 20
18.95711312046085
 30
0.0
  0
LINE
  5
10000227
102
{ACAD_XDICTIONARY
360
10000228
102
}
330
1F
100
AcDbEntity
  8
VISIBLE
100
AcDbLine
 10
-73.91759986322465
 20
49.09203729530478
 30
0.0
 11
-73.91759986322467
 21
19.22194362893543
 31
0.0
  0
LINE
  5
1000022A
102
{ACAD_XDICTIONARY
360
1000022B
102
}
330
1F
100
AcDbEntity
  8
VISIBLE
100
AcDbLine
 10
-81.5837461611729
 20
49.09203729530478
 30
0.0
 11
-73.91759986322465
 21
49.09203729530478
 31
0.0
  0
LINE
  5
1000022D
102
{ACAD_XDICTIONARY
360
1000022E
102
}
330
1F
100
AcDbEntity
  8
VISIBLE
100
AcDbLine
 10
-81.58374616117294
 20
28.97885709905142
 30
0.0
 11
-81.5837461611729
 21
49.09203729530478
 31
0.0
  0
SPLINE
  5
10000230
102
{ACAD_XDICTIONARY
360
10000231
102
}
330
1F
100
AcDbEntity
  8
VISIBLE
100
AcDbSpline
210
0.0
220
0.0
230
1.0
 70
     8
 71
     2
 72
     6
 73
     3
 74
     0
 42
0.000000001
 43
0.00000001
 40
0.0
 40
0.0
 40
0.0
 40
1.0
 40
1.0
 40
1.0
 10
-85.94648032709624
 20
29.71759483321732
 30
0.0
 10
-83.85571315492855
 20
28.9788570990514
 30
0.0
 10
-81.58374616117297
 20
28.97885709905141
 30
0.0
  0
SPLINE
  5
10000233
102
{ACAD_XDICTIONARY
360
10000234
102
}
330
1F
100
AcDbEntity
  8
VISIBLE
100
AcDbSpline
210
0.0
220
0.0
230
1.0
 70
     8
 71
     2
 72
     6
 73
     3
 74
     0
 42
0.000000001
 43
0.00000001
 40
0.0
 40
0.0
 40
0.0
 40
1.0
 40
1.0
 40
1.0
 10
-89.82136881951374
 20
31.89199269227174
 30
0.0
 10
-88.03724749926394
 20
30.45633256738324
 30
0.0
 10
-85.94648032709624
 20
29.71759483321732
 30
0.0
  0
SPLINE
  5
10000236
102
{ACAD_XDICTIONARY
360
10000237
102
}
330
1F
100
AcDbEntity
  8
VISIBLE
100
AcDbSpline
210
0.0
220
0.0
230
1.0
 70
     8
 71
     2
 72
     6
 73
     3
 74
     0
 42
0.000000001
 43
0.00000001
 40
0.0
 40
0.0
 40
0.0
 40
1.0
 40
1.0
 40
1.0
 10
-92.82510432352798
 20
35.2441893916473
 30
0.0
 10
-91.60549013976349
 20
33.32765281716023
 30
0.0
 10
-89.82136881951374
 20
31.89199269227174
 30
0.0
  0
SPLINE
  5
10000239
102
{ACAD_XDICTIONARY
360
1000023A
102
}
330
1F
100
AcDbEntity
  8
VISIBLE
100
AcDbSpline
210
0.0
220
0.0
230
1.0
 70
     8
 71
     2
 72
     6
 73
     3
 74
     0
 42
0.000000001
 43
0.00000001
 40
0.0
 40
0.0
 40
0.0
 40
1.0
 40
1.0
 40
1.0
 10
-94.30954901576705
 20
39.51632364677664
 30
0.0
 10
-94.04471850729252
 20
37.16072596613436
 30
0.0
 10
-92.82510432352798
 20
35.2441893916473
 30
0.0
  0
LINE
  5
1000023C
102
{ACAD_XDICTIONARY
360
1000023D
102
}
330
1F
100
AcDbEntity
  8
VISIBLE
100
AcDbLine
 10
-102.49141788285
 20
39.51632364677665
 30
0.0
 11
-94.30954901576703
 21
39.51632364677666
 31
0.0
  0
SPLINE
  5
1000023F
102
{ACAD_XDICTIONARY
360
10000240
102
}
330
1F
100
AcDbEntity
  8
VISIBLE
100
AcDbSpline
210
0.0
220
0.0
230
1.0
 70
     8
 71
     2
 72
     6
 73
     3
 74
     0
 42
0.000000001
 43
0.00000001
 40
0.0
 40
0.0
 40
0.0
 40
1.0
 40
1.0
 40
1.0
 10
-99.96855882843427
 20
31.02083970386852
 30
0.0
 10
-102.059326000602
 20
34.80512828549207
 30
0.0
 10
-102.4914178828499
 20
39.51632364677663
 30
0.0
  0
LINE
  5
10000242
102
{ACAD_XDICTIONARY
360
10000243
102
}
330
1F
100
AcDbEntity
  8
VISIBLE
100
AcDbLine
 10
-52.92629745466085
 20
109.4733932275082
 30
0.0
 11
-117.126788088024
 21
109.4733932275082
 31
0.0
  0
LINE
  5
10000245
102
{ACAD_XDICTIONARY
360
10000246
102
}
330
1F
100
AcDbEntity
  8
VISIBLE
100
AcDbLine
 10
-52.92629745466086
 20
119.9272290883467
 30
0.0
 11
-52.92629745466085
 21
109.4733932275082
 31
0.0
  0
LINE
  5
10000248
102
{ACAD_XDICTIONARY
360
10000249
102
}
330
1F
100
AcDbEntity
  8
VISIBLE
100
AcDbLine
 10
-117.126788088024
 20
119.9272290883467
 30
0.0
 11
-52.92629745466086
 21
119.9272290883467
 31
0.0
  0
LINE
  5
1000024B
102
{ACAD_XDICTIONARY
360
1000024C
102
}
330
1F
100
AcDbEntity
  8
VISIBLE
100
AcDbLine
 10
-117.126788088024
 20
109.4733932275082
 30
0.0
 11
-117.126788088024
 21
119.9272290883467
 31
0.0
  0
LINE
  5
1000024E
102
{ACAD_XDICTIONARY
360
1000024F
102
}
330
1F
100
AcDbEntity
  8
VISIBLE
100
AcDbLine
 10
-102.059326000602
 20
-78.01266832467745
 30
0.0
 11
-102.059326000602
 21
-67.4752017769522
 31
0.0
  0
LINE
  5
10000251
102
{ACAD_XDICTIONARY
360
10000252
102
}
330
1F
100
AcDbEntity
  8
VISIBLE
100
AcDbLine
 10
-69.03914312816654
 20
-90.55727135768372
 30
0.0
 11
-102.059326000602
 21
-78.01266832467745
 31
0.0
  0
LINE
  5
10000254
102
{ACAD_XDICTIONARY
360
10000255
102
}
330
1F
100
AcDbEntity
  8
VISIBLE
100
AcDbLine
 10
-66.08419219150296
 20
-89.34462639782643
 30
0.0
 11
-69.03914312816654
 21
-90.55727135768372
 31
0.0
  0
LINE
  5
10000257
102
{ACAD_XDICTIONARY
360
10000258
102
}
330
1F
100
AcDbEntity
  8
VISIBLE
100
AcDbLine
 10
-57.53992368124427
 20
-85.77638375732688
 30
0.0
 11
-66.08419219150296
 21
-89.34462639782643
 31
0.0
  0
LINE
  5
1000025A
102
{ACAD_XDICTIONARY
360
1000025B
102
}
330
1F
100
AcDbEntity
  8
VISIBLE
100
AcDbLine
 10
-102.059326000602
 20
-67.4752017769522
 30
0.0
 11
-57.53992368124427
 21
-85.77638375732688
 31
0.0
  0
SPLINE
  5
1000025D
102
{ACAD_XDICTIONARY
360
1000025E
102
}
330
1F
100
AcDbEntity
  8
VISIBLE
100
AcDbSpline
210
0.0
220
0.0
230
1.0
 70
     8
 71
     2
 72
     6
 73
     3
 74
     0
 42
0.000000001
 43
0.00000001
 40
0.0
 40
0.0
 40
0.0
 40
1.0
 40
1.0
 40
1.0
 10
-62.03507310140486
 20
-100.6626460231609
 30
0.0
 10
-69.48517345822913
 20
-103.4503355860512
 30
0.0
 10
-79.36753295867514
 20
-107.1997780481387
 30
0.0
  0
SPLINE
  5
10000260
102
{ACAD_XDICTIONARY
360
10000261
102
}
330
1F
100
AcDbEntity
  8
VISIBLE
100
AcDbSpline
210
0.0
220
0.0
230
1.0
 70
     8
 71
     2
 72
     6
 73
     3
 74
     0
 42
0.000000001
 43
0.00000001
 40
0.0
 40
0.0
 40
0.0
 40
1.0
 40
1.0
 40
1.0
 10
-49.44168550104794
 20
-95.7423739446596
 30
0.0
 10
-54.58497274458055
 20
-97.87495646027065
 30
0.0
 10
-62.03507310140481
 20
-100.6626460231609
 30
0.0
  0
SPLINE
  5
10000263
102
{ACAD_XDICTIONARY
360
10000264
102
}
330
1F
100
AcDbEntity
  8
VISIBLE
100
AcDbSpline
210
0.0
220
0.0
230
1.0
 70
     8
 71
     2
 72
     6
 73
     3
 74
     0
 42
0.000000001
 43
0.00000001
 40
0.0
 40
0.0
 40
0.0
 40
1.0
 40
1.0
 40
1.0
 10
-40.85560164734591
 20
-91.82567010879875
 30
0.0
 10
-44.29839825751544
 20
-93.60979142904851
 30
0.0
 10
-49.44168550104794
 20
-95.7423739446596
 30
0.0
  0
SPLINE
  5
10000266
102
{ACAD_XDICTIONARY
360
10000267
102
}
330
1F
100
AcDbEntity
  8
VISIBLE
100
AcDbSpline
210
0.0
220
0.0
230
1.0
 70
     8
 71
     2
 72
     6
 73
     3
 74
     0
 42
0.000000001
 43
0.00000001
 40
0.0
 40
0.0
 40
0.0
 40
1.0
 40
1.0
 40
1.0
 10
-35.45445311924602
 20
-88.47347340942319
 30
0.0
 10
-37.41280503717642
 20
-90.04154878854898
 30
0.0
 10
-40.85560164734591
 20
-91.82567010879875
 30
0.0
  0
SPLINE
  5
10000269
102
{ACAD_XDICTIONARY
360
1000026A
102
}
330
1F
100
AcDbEntity
  8
VISIBLE
100
AcDbSpline
210
0.0
220
0.0
230
1.0
 70
     8
 71
     2
 72
     6
 73
     3
 74
     0
 42
0.000000001
 43
0.00000001
 40
0.0
 40
0.0
 40
0.0
 40
1.0
 40
1.0
 40
1.0
 10
-32.45071761523179
 20
-85.2467227403777
 30
0.0
 10
-33.49610120131561
 20
-86.90539803029739
 30
0.0
 10
-35.45445311924607
 20
-88.47347340942319
 30
0.0
  0
SPLINE
  5
1000026C
102
{ACAD_XDICTIONARY
360
1000026D
102
}
330
1F
100
AcDbEntity
  8
VISIBLE
100
AcDbSpline
210
0.0
220
0.0
230
1.0
 70
     8
 71
     2
 72
     6
 73
     3
 74
     0
 42
0.000000001
 43
0.00000001
 40
0.0
 40
0.0
 40
0.0
 40
1.0
 40
1.0
 40
1.0
 10
-31.18928808802396
 20
-81.62969553252755
 30
0.0
 10
-31.40533402914791
 20
-83.58804745045798
 30
0.0
 10
-32.45071761523179
 20
-85.2467227403777
 30
0.0
  0
SPLINE
  5
1000026F
102
{ACAD_XDICTIONARY
360
10000270
102
}
330
1F
100
AcDbEntity
  8
VISIBLE
100
AcDbSpline
210
0.0
220
0.0
230
1.0
 70
     8
 71
     2
 72
     6
 73
     3
 74
     0
 42
0.000000001
 43
0.00000001
 40
0.0
 40
0.0
 40
0.0
 40
1.0
 40
1.0
 40
1.0
 10
-30.97324214689991
 20
-77.14848456018144
 30
0.0
 10
-30.97324214689991
 20
-79.67134361459713
 30
0.0
 10
-31.18928808802391
 20
-81.62969553252755
 30
0.0
  0
SPLINE
  5
10000272
102
{ACAD_XDICTIONARY
360
10000273
102
}
330
1F
100
AcDbEntity
  8
VISIBLE
100
AcDbSpline
210
0.0
220
0.0
230
1.0
 70
     8
 71
     2
 72
     6
 73
     3
 74
     0
 42
0.000000001
 43
0.00000001
 40
0.0
 40
0.0
 40
0.0
 40
1.0
 40
1.0
 40
1.0
 10
-31.18928808802391
 20
-75.32254789648832
 30
0.0
 10
-30.97324214689991
 20
-76.36793148257215
 30
0.0
 10
-30.97324214689991
 20
-77.14848456018144
 30
0.0
  0
SPLINE
  5
10000275
102
{ACAD_XDICTIONARY
360
10000276
102
}
330
1F
100
AcDbEntity
  8
VISIBLE
100
AcDbSpline
210
0.0
220
0.0
230
1.0
 70
     8
 71
     2
 72
     6
 73
     3
 74
     0
 42
0.000000001
 43
0.00000001
 40
0.0
 40
0.0
 40
0.0
 40
1.0
 40
1.0
 40
1.0
 10
-31.71197988106588
 20
-73.27359606776396
 30
0.0
 10
-31.40533402914791
 20
-74.27716431040446
 30
0.0
 10
-31.18928808802396
 20
-75.32254789648832
 30
0.0
  0
SPLINE
  5
10000278
102
{ACAD_XDICTIONARY
360
10000279
102
}
330
1F
100
AcDbEntity
  8
VISIBLE
100
AcDbSpline
210
0.0
220
0.0
230
1.0
 70
     8
 71
     2
 72
     6
 73
     3
 74
     0
 42
0.000000001
 43
0.00000001
 40
0.0
 40
0.0
 40
0.0
 40
1.0
 40
1.0
 40
1.0
 10
-32.32527158490171
 20
-71.48250552360693
 30
0.0
 10
-32.01862573298374
 20
-72.27002782512345
 30
0.0
 10
-31.71197988106583
 20
-73.27359606776396
 30
0.0
  0
SPLINE
  5
1000027B
102
{ACAD_XDICTIONARY
360
1000027C
102
}
330
1F
100
AcDbEntity
  8
VISIBLE
100
AcDbSpline
210
0.0
220
0.0
230
1.0
 70
     8
 71
     2
 72
     6
 73
     3
 74
     0
 42
0.000000001
 43
0.00000001
 40
0.0
 40
0.0
 40
0.0
 40
1.0
 40
1.0
 40
1.0
 10
-32.71554812370632
 20
-70.44409116143032
 30
0.0
 10
-32.63191743681966
 20
-70.69498322209044
 30
0.0
 10
-32.32527158490176
 20
-71.48250552360693
 30
0.0
  0
SPLINE
  5
1000027E
102
{ACAD_XDICTIONARY
360
1000027F
102
}
330
1F
100
AcDbEntity
  8
VISIBLE
100
AcDbSpline
210
0.0
220
0.0
230
1.0
 70
     8
 71
     2
 72
     6
 73
     3
 74
     0
 42
0.000000001
 43
0.00000001
 40
0.0
 40
0.0
 40
0.0
 40
1.0
 40
1.0
 40
1.0
 10
-35.67049906037003
 20
-71.14101355215288
 30
0.0
 10
-34.27665427892486
 20
-70.7925523567916
 30
0.0
 10
-32.71554812370627
 20
-70.44409116143032
 30
0.0
  0
SPLINE
  5
10000281
102
{ACAD_XDICTIONARY
360
10000282
102
}
330
1F
100
AcDbEntity
  8
VISIBLE
100
AcDbSpline
210
0.0
220
0.0
230
1.0
 70
     8
 71
     2
 72
     6
 73
     3
 74
     0
 42
0.000000001
 43
0.00000001
 40
0.0
 40
0.0
 40
0.0
 40
1.0
 40
1.0
 40
1.0
 10
-37.98428139756902
 20
-71.69855146473095
 30
0.0
 10
-36.89708246804176
 20
-71.39190561281303
 30
0.0
 10
-35.67049906037007
 20
-71.14101355215288
 30
0.0
  0
SPLINE
  5
10000284
102
{ACAD_XDICTIONARY
360
10000285
102
}
330
1F
100
AcDbEntity
  8
VISIBLE
100
AcDbSpline
210
0.0
220
0.0
230
1.0
 70
     8
 71
     2
 72
     6
 73
     3
 74
     0
 42
0.000000001
 43
0.00000001
 40
0.0
 40
0.0
 40
0.0
 40
1.0
 40
1.0
 40
1.0
 10
-39.50357220934423
 20
-72.18639713823674
 30
0.0
 10
-39.07148032709623
 20
-72.00519731664886
 30
0.0
 10
-37.98428139756902
 20
-71.69855146473095
 30
0.0
  0
SPLINE
  5
10000287
102
{ACAD_XDICTIONARY
360
10000288
102
}
330
1F
100
AcDbEntity
  8
VISIBLE
100
AcDbSpline
210
0.0
220
0.0
230
1.0
 70
     8
 71
     2
 72
     6
 73
     3
 74
     0
 42
0.000000001
 43
0.00000001
 40
0.0
 40
0.0
 40
0.0
 40
1.0
 40
1.0
 40
1.0
 10
-39.07148032709622
 20
-74.31897965384782
 30
0.0
 10
-39.50357220934423
 20
-72.88331952895932
 30
0.0
 10
-39.50357220934423
 20
-72.18639713823674
 30
0.0
  0
SPLINE
  5
1000028A
102
{ACAD_XDICTIONARY
360
1000028B
102
}
330
1F
100
AcDbEntity
  8
VISIBLE
100
AcDbSpline
210
0.0
220
0.0
230
1.0
 70
     8
 71
     2
 72
     6
 73
     3
 74
     0
 42
0.000000001
 43
0.00000001
 40
0.0
 40
0.0
 40
0.0
 40
1.0
 40
1.0
 40
1.0
 10
-38.63938844484822
 20
-76.45156216945887
 30
0.0
 10
-38.63938844484822
 20
-75.7546397787363
 30
0.0
 10
-39.07148032709622
 20
-74.31897965384782
 30
0.0
  0
SPLINE
  5
1000028D
102
{ACAD_XDICTIONARY
360
1000028E
102
}
330
1F
100
AcDbEntity
  8
VISIBLE
100
AcDbSpline
210
0.0
220
0.0
230
1.0
 70
     8
 71
     2
 72
     6
 73
     3
 74
     0
 42
0.000000001
 43
0.00000001
 40
0.0
 40
0.0
 40
0.0
 40
1.0
 40
1.0
 40
1.0
 10
-38.7718036990855
 20
-78.93260588043121
 30
0.0
 10
-38.63938844484822
 20
-77.845406950904
 30
0.0
 10
-38.63938844484822
 20
-76.45156216945887
 30
0.0
  0
SPLINE
  5
10000290
102
{ACAD_XDICTIONARY
360
10000291
102
}
330
1F
100
AcDbEntity
  8
VISIBLE
100
AcDbSpline
210
0.0
220
0.0
230
1.0
 70
     8
 71
     2
 72
     6
 73
     3
 74
     0
 42
0.000000001
 43
0.00000001
 40
0.0
 40
0.0
 40
0.0
 40
1.0
 40
1.0
 40
1.0
 10
-39.55235677669475
 20
-80.89095779836164
 30
0.0
 10
-38.9042189533228
 20
-80.01980480995843
 30
0.0
 10
-38.7718036990855
 20
-78.93260588043121
 30
0.0
  0
SPLINE
  5
10000293
102
{ACAD_XDICTIONARY
360
10000294
102
}
330
1F
100
AcDbEntity
  8
VISIBLE
100
AcDbSpline
210
0.0
220
0.0
230
1.0
 70
     8
 71
     2
 72
     6
 73
     3
 74
     0
 42
0.000000001
 43
0.00000001
 40
0.0
 40
0.0
 40
0.0
 40
1.0
 40
1.0
 40
1.0
 10
-41.46889335118178
 20
-82.54963308828134
 30
0.0
 10
-40.20049460006671
 20
-81.76211078676485
 30
0.0
 10
-39.55235677669471
 20
-80.89095779836164
 30
0.0
  0
SPLINE
  5
10000296
102
{ACAD_XDICTIONARY
360
10000297
102
}
330
1F
100
AcDbEntity
  8
VISIBLE
100
AcDbSpline
210
0.0
220
0.0
230
1.0
 70
     8
 71
     2
 72
     6
 73
     3
 74
     0
 42
0.000000001
 43
0.00000001
 40
0.0
 40
0.0
 40
0.0
 40
1.0
 40
1.0
 40
1.0
 10
-45.07895133512469
 20
-84.28496984118055
 30
0.0
 10
-42.73729210229686
 20
-83.33715538979786
 30
0.0
 10
-41.46889335118178
 20
-82.54963308828134
 30
0.0
  0
LINE
  5
10000299
102
{ACAD_XDICTIONARY
360
1000029A
102
}
330
1F
100
AcDbEntity
  8
VISIBLE
100
AcDbLine
 10
-52.92629745466092
 20
-87.60232042102001
 30
0.0
 11
-45.07895133512468
 21
-84.28496984118058
 31
0.0
  0
LINE
  5
1000029C
102
{ACAD_XDICTIONARY
360
1000029D
102
}
330
1F
100
AcDbEntity
  8
VISIBLE
100
AcDbLine
 10
-102.0593260006021
 20
-105.109010875971
 30
0.0
 11
-52.92629745466092
 21
-87.60232042102001
 31
0.0
  0
LINE
  5
1000029F
102
{ACAD_XDICTIONARY
360
100002A0
102
}
330
1F
100
AcDbEntity
  8
VISIBLE
100
AcDbLine
 10
-102.059326000602
 20
-115.7440465583974
 30
0.0
 11
-102.0593260006021
 21
-105.109010875971
 31
0.0
  0
SPLINE
  5
100002A2
102
{ACAD_XDICTIONARY
360
100002A3
102
}
330
1F
100
AcDbEntity
  8
VISIBLE
100
AcDbSpline
210
0.0
220
0.0
230
1.0
 70
     8
 71
     2
 72
     6
 73
     3
 74
     0
 42
0.000000001
 43
0.00000001
 40
0.0
 40
0.0
 40
0.0
 40
1.0
 40
1.0
 40
1.0
 10
-79.36753295867508
 20
-107.1997780481387
 30
0.0
 10
-89.24989245912114
 20
-110.9492205102261
 30
0.0
 10
-102.059326000602
 20
-115.7440465583973
 30
0.0
  0
SPLINE
  5
100002A5
102
{ACAD_XDICTIONARY
360
100002A6
102
}
330
1F
100
AcDbEntity
  8
VISIBLE
100
AcDbSpline
210
0.0
220
0.0
230
1.0
 70
     8
 71
     2
 72
     6
 73
     3
 74
     0
 42
0.000000001
 43
0.00000001
 40
0.0
 40
0.0
 40
0.0
 40
1.0
 40
1.0
 40
1.0
 10
-60.68304366340304
 20
-48.95797385545353
 30
0.0
 10
-61.55419665180629
 20
-47.51534450665781
 30
0.0
 10
-63.20590271781874
 20
-46.73479142904851
 30
0.0
  0
SPLINE
  5
100002A8
102
{ACAD_XDICTIONARY
360
100002A9
102
}
330
1F
100
AcDbEntity
  8
VISIBLE
100
AcDbSpline
210
0.0
220
0.0
230
1.0
 70
     8
 71
     2
 72
     6
 73
     3
 74
     0
 42
0.000000001
 43
0.00000001
 40
0.0
 40
0.0
 40
0.0
 40
1.0
 40
1.0
 40
1.0
 10
-59.59584473387582
 20
-52.18472452449902
 30
0.0
 10
-59.81189067499983
 20
-50.40060320424924
 30
0.0
 10
-60.68304366340304
 20
-48.95797385545353
 30
0.0
  0
SPLINE
  5
100002AB
102
{ACAD_XDICTIONARY
360
100002AC
102
}
330
1F
100
AcDbEntity
  8
VISIBLE
100
AcDbSpline
210
0.0
220
0.0
230
1.0
 70
     8
 71
     2
 72
     6
 73
     3
 74
     0
 42
0.000000001
 43
0.00000001
 40
0.0
 40
0.0
 40
0.0
 40
1.0
 40
1.0
 40
1.0
 10
-59.37979879275183
 20
-55.97598233002979
 30
0.0
 10
-59.37979879275183
 20
-53.96884584474878
 30
0.0
 10
-59.59584473387582
 20
-52.18472452449902
 30
0.0
  0
LINE
  5
100002AE
102
{ACAD_XDICTIONARY
360
100002AF
102
}
330
1F
100
AcDbEntity
  8
VISIBLE
100
AcDbLine
 10
-52.92629745466082
 20
-55.97598233002981
 30
0.0
 11
-59.37979879275181
 21
-55.97598233002982
 31
0.0
  0
SPLINE
  5
100002B1
102
{ACAD_XDICTIONARY
360
100002B2
102
}
330
1F
100
AcDbEntity
  8
VISIBLE
100
AcDbSpline
210
0.0
220
0.0
230
1.0
 70
     8
 71
     2
 72
     6
 73
     3
 74
     0
 42
0.000000001
 43
0.00000001
 40
0.0
 40
0.0
 40
0.0
 40
1.0
 40
1.0
 40
1.0
 10
-52.66146694618629
 20
-53.70401533627422
 30
0.0
 10
-52.74509763307305
 20
-54.83302960924476
 30
0.0
 10
-52.92629745466087
 20
-55.97598233002978
 30
0.0
  0
SPLINE
  5
100002B4
102
{ACAD_XDICTIONARY
360
100002B5
102
}
330
1F
100
AcDbEntity
  8
VISIBLE
100
AcDbSpline
210
0.0
220
0.0
230
1.0
 70
     8
 71
     2
 72
     6
 73
     3
 74
     0
 42
0.000000001
 43
0.00000001
 40
0.0
 40
0.0
 40
0.0
 40
1.0
 40
1.0
 40
1.0
 10
-52.53602091585624
 20
-51.39720222298249
 30
0.0
 10
-52.57783625929958
 20
-52.74226243707707
 30
0.0
 10
-52.66146694618629
 20
-53.70401533627422
 30
0.0
  0
SPLINE
  5
100002B7
102
{ACAD_XDICTIONARY
360
100002B8
102
}
330
1F
100
AcDbEntity
  8
VISIBLE
100
AcDbSpline
210
0.0
220
0.0
230
1.0
 70
     8
 71
     2
 72
     6
 73
     3
 74
     0
 42
0.000000001
 43
0.00000001
 40
0.0
 40
0.0
 40
0.0
 40
1.0
 40
1.0
 40
1.0
 10
-52.49420557241282
 20
-48.74192791432952
 30
0.0
 10
-52.49420557241282
 20
-50.05214200888793
 30
0.0
 10
-52.53602091585619
 20
-51.39720222298249
 30
0.0
  0
SPLINE
  5
100002BA
102
{ACAD_XDICTIONARY
360
100002BB
102
}
330
1F
100
AcDbEntity
  8
VISIBLE
100
AcDbSpline
210
0.0
220
0.0
230
1.0
 70
     8
 71
     2
 72
     6
 73
     3
 74
     0
 42
0.000000001
 43
0.00000001
 40
0.0
 40
0.0
 40
0.0
 40
1.0
 40
1.0
 40
1.0
 10
-52.57783625929953
 20
-46.0796843817693
 30
0.0
 10
-52.49420557241282
 20
-47.43171381977109
 30
0.0
 10
-52.49420557241282
 20
-48.74192791432952
 30
0.0
  0
SPLINE
  5
100002BD
102
{ACAD_XDICTIONARY
360
100002BE
102
}
330
1F
100
AcDbEntity
  8
VISIBLE
100
AcDbSpline
210
0.0
220
0.0
230
1.0
 70
     8
 71
     2
 72
     6
 73
     3
 74
     0
 42
0.000000001
 43
0.00000001
 40
0.0
 40
0.0
 40
0.0
 40
1.0
 40
1.0
 40
1.0
 10
-52.84266676777415
 20
-43.77984049238483
 30
0.0
 10
-52.66146694618629
 20
-44.7276549437675
 30
0.0
 10
-52.57783625929958
 20
-46.0796843817693
 30
0.0
  0
SPLINE
  5
100002C0
102
{ACAD_XDICTIONARY
360
100002C1
102
}
330
1F
100
AcDbEntity
  8
VISIBLE
100
AcDbSpline
210
0.0
220
0.0
230
1.0
 70
     8
 71
     2
 72
     6
 73
     3
 74
     0
 42
0.000000001
 43
0.00000001
 40
0.0
 40
0.0
 40
0.0
 40
1.0
 40
1.0
 40
1.0
 10
-55.40734116563324
 20
-39.15924504189419
 30
0.0
 10
-53.35838933690888
 20
-40.81095110790668
 30
0.0
 10
-52.84266676777415
 20
-43.77984049238483
 30
0.0
  0
SPLINE
  5
100002C3
102
{ACAD_XDICTIONARY
360
100002C4
102
}
330
1F
100
AcDbEntity
  8
VISIBLE
100
AcDbSpline
210
0.0
220
0.0
230
1.0
 70
     8
 71
     2
 72
     6
 73
     3
 74
     0
 42
0.000000001
 43
0.00000001
 40
0.0
 40
0.0
 40
0.0
 40
1.0
 40
1.0
 40
1.0
 10
-59.93733670532993
 20
-36.67820133092183
 30
0.0
 10
-57.45629299435756
 20
-37.50753897588171
 30
0.0
 10
-55.40734116563324
 20
-39.15924504189419
 30
0.0
  0
SPLINE
  5
100002C6
102
{ACAD_XDICTIONARY
360
100002C7
102
}
330
1F
100
AcDbEntity
  8
VISIBLE
100
AcDbSpline
210
0.0
220
0.0
230
1.0
 70
     8
 71
     2
 72
     6
 73
     3
 74
     0
 42
0.000000001
 43
0.00000001
 40
0.0
 40
0.0
 40
0.0
 40
1.0
 40
1.0
 40
1.0
 10
-64.77397809694457
 20
-35.632817744838
 30
0.0
 10
-62.41838041630225
 20
-35.84886368596198
 30
0.0
 10
-59.93733670532993
 20
-36.67820133092183
 30
0.0
  0
SPLINE
  5
100002C9
102
{ACAD_XDICTIONARY
360
100002CA
102
}
330
1F
100
AcDbEntity
  8
VISIBLE
100
AcDbSpline
210
0.0
220
0.0
230
1.0
 70
     8
 71
     2
 72
     6
 73
     3
 74
     0
 42
0.000000001
 43
0.00000001
 40
0.0
 40
0.0
 40
0.0
 40
1.0
 40
1.0
 40
1.0
 10
-68.43978987214528
 20
-35.41677180371399
 30
0.0
 10
-67.12957577758685
 20
-35.41677180371399
 30
0.0
 10
-64.77397809694457
 20
-35.632817744838
 30
0.0
  0
LINE
  5
100002CC
102
{ACAD_XDICTIONARY
360
100002CD
102
}
330
1F
100
AcDbEntity
  8
VISIBLE
100
AcDbLine
 10
-94.9228407196028
 20
-35.41677180371401
 30
0.0
 11
-68.43978987214527
 21
-35.41677180371401
 31
0.0
  0
LINE
  5
100002CF
102
{ACAD_XDICTIONARY
360
100002D0
102
}
330
1F
100
AcDbEntity
  8
VISIBLE
100
AcDbLine
 10
-94.92284071960285
 20
-28.96327046562302
 30
0.0
 11
-94.9228407196028
 21
-35.41677180371401
 31
0.0
  0
LINE
  5
100002D2
102
{ACAD_XDICTIONARY
360
100002D3
102
}
330
1F
100
AcDbEntity
  8
VISIBLE
100
AcDbLine
 10
-102.059326000602
 20
-28.96327046562302
 30
0.0
 11
-94.92284071960285
 21
-28.96327046562302
 31
0.0
  0
LINE
  5
100002D5
102
{ACAD_XDICTIONARY
360
100002D6
102
}
330
1F
100
AcDbEntity
  8
VISIBLE
100
AcDbLine
 10
-102.059326000602
 20
-35.41677180371402
 30
0.0
 11
-102.059326000602
 21
-28.96327046562302
 31
0.0
  0
LINE
  5
100002D8
102
{ACAD_XDICTIONARY
360
100002D9
102
}
330
1F
100
AcDbEntity
  8
VISIBLE
100
AcDbLine
 10
-115.9977738150533
 20
-35.41677180371402
 30
0.0
 11
-102.059326000602
 21
-35.41677180371402
 31
0.0
  0
LINE
  5
100002DB
102
{ACAD_XDICTIONARY
360
100002DC
102
}
330
1F
100
AcDbEntity
  8
VISIBLE
100
AcDbLine
 10
-115.9977738150534
 20
-45.95423835143927
 30
0.0
 11
-115.9977738150533
 21
-35.41677180371402
 31
0.0
  0
LINE
  5
100002DE
102
{ACAD_XDICTIONARY
360
100002DF
102
}
330
1F
100
AcDbEntity
  8
VISIBLE
100
AcDbLine
 10
-102.059326000602
 20
-45.95423835143927
 30
0.0
 11
-115.9977738150534
 21
-45.95423835143927
 31
0.0
  0
LINE
  5
100002E1
102
{ACAD_XDICTIONARY
360
100002E2
102
}
330
1F
100
AcDbEntity
  8
VISIBLE
100
AcDbLine
 10
-102.059326000602
 20
-53.78764602316095
 30
0.0
 11
-102.059326000602
 21
-45.95423835143927
 31
0.0
  0
LINE
  5
100002E4
102
{ACAD_XDICTIONARY
360
100002E5
102
}
330
1F
100
AcDbEntity
  8
VISIBLE
100
AcDbLine
 10
-94.9228407196028
 20
-53.78764602316095
 30
0.0
 11
-102.059326000602
 21
-53.78764602316095
 31
0.0
  0
LINE
  5
100002E7
102
{ACAD_XDICTIONARY
360
100002E8
102
}
330
1F
100
AcDbEntity
  8
VISIBLE
100
AcDbLine
 10
-94.92284071960285
 20
-45.95423835143926
 30
0.0
 11
-94.9228407196028
 21
-53.78764602316095
 31
0.0
  0
LINE
  5
100002EA
102
{ACAD_XDICTIONARY
360
100002EB
102
}
330
1F
100
AcDbEntity
  8
VISIBLE
100
AcDbLine
 10
-67.82649816830936
 20
-45.95423835143925
 30
0.0
 11
-94.92284071960285
 21
-45.95423835143926
 31
0.0
  0
SPLINE
  5
100002ED
102
{ACAD_XDICTIONARY
360
100002EE
102
}
330
1F
100
AcDbEntity
  8
VISIBLE
100
AcDbSpline
210
0.0
220
0.0
230
1.0
 70
     8
 71
     2
 72
     6
 73
     3
 74
     0
 42
0.000000001
 43
0.00000001
 40
0.0
 40
0.0
 40
0.0
 40
1.0
 40
1.0
 40
1.0
 10
-63.2059027178188
 20
-46.73479142904851
 30
0.0
 10
-64.8576087838313
 20
-45.95423835143924
 30
0.0
 10
-67.82649816830943
 20
-45.95423835143924
 30
0.0
  0
ENDSEC
  0
SECTION
  2
OBJECTS
  0
DICTIONARY
  5
C
330
0
100
AcDbDictionary
  3
ACAD_GROUP
350
D
  3
ACAD_LAYOUT
350
1A
  3
ACAD_MATERIAL
350
43
  3
ACAD_MLEADERSTYLE
350
6B
  3
ACAD_MLINESTYLE
350
17
  3
ACAD_PLOTSETTINGS
350
19
  3
ACAD_SCALELIST
350
47
  3
ACAD_VISUALSTYLE
350
2A
  3
ACDBVARIABLEDICTIONARY
350
100002F2
  3
DWGPROPS
350
100002F9
  3
ONSHAPE_DATA
350
10000001
1001
ACAD
1000
TREAT_AS_HARD
1070
     0
  0
DICTIONARY
  5
100002F0
330
1F
100
AcDbDictionary
  3
ACAD_SORTENTS
360
100002F1
1001
ACAD
1000
TREAT_AS_HARD
1070
     1
  0
DICTIONARY
  5
10000052
330
10000051
100
AcDbDictionary
  3
BTARCONSURFACERADIUS
360
10000055
  3
BTDETID
360
10000053
  3
BTOWNERFACEID_
360
10000054
1001
ACAD
1000
TREAT_AS_HARD
1070
     1
  0
DICTIONARY
  5
10000057
330
10000056
100
AcDbDictionary
  3
BTARCONSURFACERADIUS
360
1000005A
  3
BTDETID
360
10000058
  3
BTOWNERFACEID_
360
10000059
1001
ACAD
1000
TREAT_AS_HARD
1070
     1
  0
DICTIONARY
  5
1000005C
330
1000005B
100
AcDbDictionary
  3
BTARCONSURFACERADIUS
360
1000005F
  3
BTDETID
360
1000005D
  3
BTOWNERFACEID_
360
1000005E
1001
ACAD
1000
TREAT_AS_HARD
1070
     1
  0
DICTIONARY
  5
10000061
330
10000060
100
AcDbDictionary
  3
BTARCONSURFACERADIUS
360
10000064
  3
BTDETID
360
10000062
  3
BTOWNERFACEID_
360
10000063
1001
ACAD
1000
TREAT_AS_HARD
1070
     1
  0
DICTIONARY
  5
10000066
330
10000065
100
AcDbDictionary
  3
BTARCONSURFACERADIUS
360
10000069
  3
BTDETID
360
10000067
  3
BTOWNERFACEID_
360
10000068
1001
ACAD
1000
TREAT_AS_HARD
1070
     1
  0
DICTIONARY
  5
1000006B
330
1000006A
100
AcDbDictionary
  3
BTARCONSURFACERADIUS
360
1000006E
  3
BTDETID
360
1000006C
  3
BTOWNERFACEID_
360
1000006D
1001
ACAD
1000
TREAT_AS_HARD
1070
     1
  0
DICTIONARY
  5
10000070
330
1000006F
100
AcDbDictionary
  3
BTARCONSURFACERADIUS
360
10000073
  3
BTDETID
360
10000071
  3
BTOWNERFACEID_
360
10000072
1001
ACAD
1000
TREAT_AS_HARD
1070
     1
  0
DICTIONARY
  5
10000075
330
10000074
100
AcDbDictionary
  3
BTARCONSURFACERADIUS
360
10000078
  3
BTDETID
360
10000076
  3
BTOWNERFACEID_
360
10000077
1001
ACAD
1000
TREAT_AS_HARD
1070
     1
  0
DICTIONARY
  5
1000007A
330
10000079
100
AcDbDictionary
  3
BTDETID
360
1000007B
1001
ACAD
1000
TREAT_AS_HARD
1070
     1
  0
DICTIONARY
  5
1000007D
330
1000007C
100
AcDbDictionary
  3
BTARCONSURFACERADIUS
360
10000080
  3
BTDETID
360
1000007E
  3
BTOWNERFACEID_
360
1000007F
1001
ACAD
1000
TREAT_AS_HARD
1070
     1
  0
DICTIONARY
  5
10000082
330
10000081
100
AcDbDictionary
  3
BTDETID
360
10000083
1001
ACAD
1000
TREAT_AS_HARD
1070
     1
  0
DICTIONARY
  5
10000085
330
10000084
100
AcDbDictionary
  3
BTDETID
360
10000086
1001
ACAD
1000
TREAT_AS_HARD
1070
     1
  0
DICTIONARY
  5
10000088
330
10000087
100
AcDbDictionary
  3
BTDETID
360
10000089
1001
ACAD
1000
TREAT_AS_HARD
1070
     1
  0
DICTIONARY
  5
1000008B
330
1000008A
100
AcDbDictionary
  3
BTARCONSURFACERADIUS
360
1000008E
  3
BTDETID
360
1000008C
  3
BTOWNERFACEID_
360
1000008D
1001
ACAD
1000
TREAT_AS_HARD
1070
     1
  0
DICTIONARY
  5
10000090
330
1000008F
100
AcDbDictionary
  3
BTDETID
360
10000091
1001
ACAD
1000
TREAT_AS_HARD
1070
     1
  0
DICTIONARY
  5
10000093
330
10000092
100
AcDbDictionary
  3
BTDETID
360
10000094
1001
ACAD
1000
TREAT_AS_HARD
1070
     1
  0
DICTIONARY
  5
10000096
330
10000095
100
AcDbDictionary
  3
BTDETID
360
10000097
1001
ACAD
1000
TREAT_AS_HARD
1070
     1
  0
DICTIONARY
  5
10000099
330
10000098
100
AcDbDictionary
  3
BTDETID
360
1000009A
1001
ACAD
1000
TREAT_AS_HARD
1070
     1
  0
DICTIONARY
  5
1000009C
330
1000009B
100
AcDbDictionary
  3
BTDETID
360
1000009D
1001
ACAD
1000
TREAT_AS_HARD
1070
     1
  0
DICTIONARY
  5
1000009F
330
1000009E
100
AcDbDictionary
  3
BTARCONSURFACERADIUS
360
100000A2
  3
BTDETID
360
100000A0
  3
BTOWNERFACEID_
360
100000A1
1001
ACAD
1000
TREAT_AS_HARD
1070
     1
  0
DICTIONARY
  5
100000A4
330
100000A3
100
AcDbDictionary
  3
BTDETID
360
100000A5
1001
ACAD
1000
TREAT_AS_HARD
1070
     1
  0
DICTIONARY
  5
100000A7
330
100000A6
100
AcDbDictionary
  3
BTARCONSURFACERADIUS
360
100000AA
  3
BTDETID
360
100000A8
  3
BTOWNERFACEID_
360
100000A9
1001
ACAD
1000
TREAT_AS_HARD
1070
     1
  0
DICTIONARY
  5
100000AC
330
100000AB
100
AcDbDictionary
  3
BTDETID
360
100000AD
1001
ACAD
1000
TREAT_AS_HARD
1070
     1
  0
DICTIONARY
  5
100000AF
330
100000AE
100
AcDbDictionary
  3
BTARCONSURFACERADIUS
360
100000B2
  3
BTDETID
360
100000B0
  3
BTOWNERFACEID_
360
100000B1
1001
ACAD
1000
TREAT_AS_HARD
1070
     1
  0
DICTIONARY
  5
100000B4
330
100000B3
100
AcDbDictionary
  3
BTDETID
360
100000B5
1001
ACAD
1000
TREAT_AS_HARD
1070
     1
  0
DICTIONARY
  5
100000B7
330
100000B6
100
AcDbDictionary
  3
BTDETID
360
100000B8
1001
ACAD
1000
TREAT_AS_HARD
1070
     1
  0
DICTIONARY
  5
100000BA
330
100000B9
100
AcDbDictionary
  3
BTARCONSURFACERADIUS
360
100000BD
  3
BTDETID
360
100000BB
  3
BTOWNERFACEID_
360
100000BC
1001
ACAD
1000
TREAT_AS_HARD
1070
     1
  0
DICTIONARY
  5
100000BF
330
100000BE
100
AcDbDictionary
  3
BTDETID
360
100000C0
1001
ACAD
1000
TREAT_AS_HARD
1070
     1
  0
DICTIONARY
  5
100000C2
330
100000C1
100
AcDbDictionary
  3
BTARCONSURFACERADIUS
360
100000C5
  3
BTDETID
360
100000C3
  3
BTOWNERFACEID_
360
100000C4
1001
ACAD
1000
TREAT_AS_HARD
1070
     1
  0
DICTIONARY
  5
100000C7
330
100000C6
100
AcDbDictionary
  3
BTDETID
360
100000C8
1001
ACAD
1000
TREAT_AS_HARD
1070
     1
  0
DICTIONARY
  5
100000CA
330
100000C9
100
AcDbDictionary
  3
BTDETID
360
100000CB
1001
ACAD
1000
TREAT_AS_HARD
1070
     1
  0
DICTIONARY
  5
100000CD
330
100000CC
100
AcDbDictionary
  3
BTARCONSURFACERADIUS
360
100000D0
  3
BTDETID
360
100000CE
  3
BTOWNERFACEID_
360
100000CF
1001
ACAD
1000
TREAT_AS_HARD
1070
     1
  0
DICTIONARY
  5
100000D2
330
100000D1
100
AcDbDictionary
  3
BTDETID
360
100000D3
1001
ACAD
1000
TREAT_AS_HARD
1070
     1
  0
DICTIONARY
  5
100000D5
330
100000D4
100
AcDbDictionary
  3
BTARCONSURFACERADIUS
360
100000D8
  3
BTDETID
360
100000D6
  3
BTOWNERFACEID_
360
100000D7
1001
ACAD
1000
TREAT_AS_HARD
1070
     1
  0
DICTIONARY
  5
100000DA
330
100000D9
100
AcDbDictionary
  3
BTDETID
360
100000DB
1001
ACAD
1000
TREAT_AS_HARD
1070
     1
  0
DICTIONARY
  5
100000DD
330
100000DC
100
AcDbDictionary
  3
BTARCONSURFACERADIUS
360
100000E0
  3
BTDETID
360
100000DE
  3
BTOWNERFACEID_
360
100000DF
1001
ACAD
1000
TREAT_AS_HARD
1070
     1
  0
DICTIONARY
  5
100000E2
330
100000E1
100
AcDbDictionary
  3
BTDETID
360
100000E3
1001
ACAD
1000
TREAT_AS_HARD
1070
     1
  0
DICTIONARY
  5
100000E5
330
100000E4
100
AcDbDictionary
  3
BTDETID
360
100000E6
1001
ACAD
1000
TREAT_AS_HARD
1070
     1
  0
DICTIONARY
  5
100000E8
330
100000E7
100
AcDbDictionary
  3
BTDETID
360
100000E9
1001
ACAD
1000
TREAT_AS_HARD
1070
     1
  0
DICTIONARY
  5
100000EB
330
100000EA
100
AcDbDictionary
  3
BTDETID
360
100000EC
1001
ACAD
1000
TREAT_AS_HARD
1070
     1
  0
DICTIONARY
  5
100000EE
330
100000ED
100
AcDbDictionary
  3
BTDETID
360
100000EF
1001
ACAD
1000
TREAT_AS_HARD
1070
     1
  0
DICTIONARY
  5
100000F1
330
100000F0
100
AcDbDictionary
  3
BTARCONSURFACERADIUS
360
100000F4
  3
BTDETID
360
100000F2
  3
BTOWNERFACEID_
360
100000F3
1001
ACAD
1000
TREAT_AS_HARD
1070
     1
  0
DICTIONARY
  5
100000F6
330
100000F5
100
AcDbDictionary
  3
BTDETID
360
100000F7
1001
ACAD
1000
TREAT_AS_HARD
1070
     1
  0
DICTIONARY
  5
100000F9
330
100000F8
100
AcDbDictionary
  3
BTDETID
360
100000FA
1001
ACAD
1000
TREAT_AS_HARD
1070
     1
  0
DICTIONARY
  5
100000FC
330
100000FB
100
AcDbDictionary
  3
BTDETID
360
100000FD
1001
ACAD
1000
TREAT_AS_HARD
1070
     1
  0
DICTIONARY
  5
100000FF
330
100000FE
100
AcDbDictionary
  3
BTARCONSURFACERADIUS
360
10000102
  3
BTDETID
360
10000100
  3
BTOWNERFACEID_
360
10000101
1001
ACAD
1000
TREAT_AS_HARD
1070
     1
  0
DICTIONARY
  5
10000104
330
10000103
100
AcDbDictionary
  3
BTDETID
360
10000105
1001
ACAD
1000
TREAT_AS_HARD
1070
     1
  0
DICTIONARY
  5
10000107
330
10000106
100
AcDbDictionary
  3
BTARCONSURFACERADIUS
360
1000010A
  3
BTDETID
360
10000108
  3
BTOWNERFACEID_
360
10000109
1001
ACAD
1000
TREAT_AS_HARD
1070
     1
  0
DICTIONARY
  5
1000010C
330
1000010B
100
AcDbDictionary
  3
BTDETID
360
1000010D
1001
ACAD
1000
TREAT_AS_HARD
1070
     1
  0
DICTIONARY
  5
1000010F
330
1000010E
100
AcDbDictionary
  3
BTARCONSURFACERADIUS
360
10000112
  3
BTDETID
360
10000110
  3
BTOWNERFACEID_
360
10000111
1001
ACAD
1000
TREAT_AS_HARD
1070
     1
  0
DICTIONARY
  5
10000114
330
10000113
100
AcDbDictionary
  3
BTDETID
360
10000115
1001
ACAD
1000
TREAT_AS_HARD
1070
     1
  0
DICTIONARY
  5
10000117
330
10000116
100
AcDbDictionary
  3
BTDETID
360
10000118
1001
ACAD
1000
TREAT_AS_HARD
1070
     1
  0
DICTIONARY
  5
1000011A
330
10000119
100
AcDbDictionary
  3
BTDETID
360
1000011B
1001
ACAD
1000
TREAT_AS_HARD
1070
     1
  0
DICTIONARY
  5
1000011D
330
1000011C
100
AcDbDictionary
  3
BTDETID
360
1000011E
1001
ACAD
1000
TREAT_AS_HARD
1070
     1
  0
DICTIONARY
  5
10000120
330
1000011F
100
AcDbDictionary
  3
BTDETID
360
10000121
1001
ACAD
1000
TREAT_AS_HARD
1070
     1
  0
DICTIONARY
  5
10000123
330
10000122
100
AcDbDictionary
  3
BTDETID
360
10000124
1001
ACAD
1000
TREAT_AS_HARD
1070
     1
  0
DICTIONARY
  5
10000126
330
10000125
100
AcDbDictionary
  3
BTDETID
360
10000127
1001
ACAD
1000
TREAT_AS_HARD
1070
     1
  0
DICTIONARY
  5
10000129
330
10000128
100
AcDbDictionary
  3
BTDETID
360
1000012A
1001
ACAD
1000
TREAT_AS_HARD
1070
     1
  0
DICTIONARY
  5
1000012C
330
1000012B
100
AcDbDictionary
  3
BTDETID
360
1000012D
1001
ACAD
1000
TREAT_AS_HARD
1070
     1
  0
DICTIONARY
  5
1000012F
330
1000012E
100
AcDbDictionary
  3
BTDETID
360
10000130
1001
ACAD
1000
TREAT_AS_HARD
1070
     1
  0
DICTIONARY
  5
10000132
330
10000131
100
AcDbDictionary
  3
BTDETID
360
10000133
1001
ACAD
1000
TREAT_AS_HARD
1070
     1
  0
DICTIONARY
  5
10000135
330
10000134
100
AcDbDictionary
  3
BTDETID
360
10000136
1001
ACAD
1000
TREAT_AS_HARD
1070
     1
  0
DICTIONARY
  5
10000138
330
10000137
100
AcDbDictionary
  3
BTDETID
360
10000139
1001
ACAD
1000
TREAT_AS_HARD
1070
     1
  0
DICTIONARY
  5
1000013B
330
1000013A
100
AcDbDictionary
  3
BTDETID
360
1000013C
1001
ACAD
1000
TREAT_AS_HARD
1070
     1
  0
DICTIONARY
  5
1000013E
330
1000013D
100
AcDbDictionary
  3
BTDETID
360
1000013F
1001
ACAD
1000
TREAT_AS_HARD
1070
     1
  0
DICTIONARY
  5
10000141
330
10000140
100
AcDbDictionary
  3
BTDETID
360
10000142
1001
ACAD
1000
TREAT_AS_HARD
1070
     1
  0
DICTIONARY
  5
10000144
330
10000143
100
AcDbDictionary
  3
BTDETID
360
10000145
1001
ACAD
1000
TREAT_AS_HARD
1070
     1
  0
DICTIONARY
  5
10000147
330
10000146
100
AcDbDictionary
  3
BTDETID
360
10000148
1001
ACAD
1000
TREAT_AS_HARD
1070
     1
  0
DICTIONARY
  5
1000014A
330
10000149
100
AcDbDictionary
  3
BTDETID
360
1000014B
1001
ACAD
1000
TREAT_AS_HARD
1070
     1
  0
DICTIONARY
  5
1000014D
330
1000014C
100
AcDbDictionary
  3
BTDETID
360
1000014E
1001
ACAD
1000
TREAT_AS_HARD
1070
     1
  0
DICTIONARY
  5
10000150
330
1000014F
100
AcDbDictionary
  3
BTDETID
360
10000151
1001
ACAD
1000
TREAT_AS_HARD
1070
     1
  0
DICTIONARY
  5
10000153
330
10000152
100
AcDbDictionary
  3
BTDETID
360
10000154
1001
ACAD
1000
TREAT_AS_HARD
1070
     1
  0
DICTIONARY
  5
10000156
330
10000155
100
AcDbDictionary
  3
BTDETID
360
10000157
1001
ACAD
1000
TREAT_AS_HARD
1070
     1
  0
DICTIONARY
  5
10000159
330
10000158
100
AcDbDictionary
  3
BTDETID
360
1000015A
1001
ACAD
1000
TREAT_AS_HARD
1070
     1
  0
DICTIONARY
  5
1000015C
330
1000015B
100
AcDbDictionary
  3
BTDETID
360
1000015D
1001
ACAD
1000
TREAT_AS_HARD
1070
     1
  0
DICTIONARY
  5
1000015F
330
1000015E
100
AcDbDictionary
  3
BTDETID
360
10000160
1001
ACAD
1000
TREAT_AS_HARD
1070
     1
  0
DICTIONARY
  5
10000162
330
10000161
100
AcDbDictionary
  3
BTDETID
360
10000163
1001
ACAD
1000
TREAT_AS_HARD
1070
     1
  0
DICTIONARY
  5
10000165
330
10000164
100
AcDbDictionary
  3
BTDETID
360
10000166
1001
ACAD
1000
TREAT_AS_HARD
1070
     1
  0
DICTIONARY
  5
10000168
330
10000167
100
AcDbDictionary
  3
BTDETID
360
10000169
1001
ACAD
1000
TREAT_AS_HARD
1070
     1
  0
DICTIONARY
  5
1000016B
330
1000016A
100
AcDbDictionary
  3
BTDETID
360
1000016C
1001
ACAD
1000
TREAT_AS_HARD
1070
     1
  0
DICTIONARY
  5
1000016E
330
1000016D
100
AcDbDictionary
  3
BTDETID
360
1000016F
1001
ACAD
1000
TREAT_AS_HARD
1070
     1
  0
DICTIONARY
  5
10000171
330
10000170
100
AcDbDictionary
  3
BTDETID
360
10000172
1001
ACAD
1000
TREAT_AS_HARD
1070
     1
  0
DICTIONARY
  5
10000174
330
10000173
100
AcDbDictionary
  3
BTDETID
360
10000175
1001
ACAD
1000
TREAT_AS_HARD
1070
     1
  0
DICTIONARY
  5
10000177
330
10000176
100
AcDbDictionary
  3
BTDETID
360
10000178
1001
ACAD
1000
TREAT_AS_HARD
1070
     1
  0
DICTIONARY
  5
1000017A
330
10000179
100
AcDbDictionary
  3
BTDETID
360
1000017B
1001
ACAD
1000
TREAT_AS_HARD
1070
     1
  0
DICTIONARY
  5
1000017D
330
1000017C
100
AcDbDictionary
  3
BTDETID
360
1000017E
1001
ACAD
1000
TREAT_AS_HARD
1070
     1
  0
DICTIONARY
  5
10000180
330
1000017F
100
AcDbDictionary
  3
BTDETID
360
10000181
1001
ACAD
1000
TREAT_AS_HARD
1070
     1
  0
DICTIONARY
  5
10000183
330
10000182
100
AcDbDictionary
  3
BTDETID
360
10000184
1001
ACAD
1000
TREAT_AS_HARD
1070
     1
  0
DICTIONARY
  5
10000186
330
10000185
100
AcDbDictionary
  3
BTDETID
360
10000187
1001
ACAD
1000
TREAT_AS_HARD
1070
     1
  0
DICTIONARY
  5
10000189
330
10000188
100
AcDbDictionary
  3
BTDETID
360
1000018A
1001
ACAD
1000
TREAT_AS_HARD
1070
     1
  0
DICTIONARY
  5
1000018C
330
1000018B
100
AcDbDictionary
  3
BTDETID
360
1000018D
1001
ACAD
1000
TREAT_AS_HARD
1070
     1
  0
DICTIONARY
  5
1000018F
330
1000018E
100
AcDbDictionary
  3
BTDETID
360
10000190
1001
ACAD
1000
TREAT_AS_HARD
1070
     1
  0
DICTIONARY
  5
10000192
330
10000191
100
AcDbDictionary
  3
BTDETID
360
10000193
1001
ACAD
1000
TREAT_AS_HARD
1070
     1
  0
DICTIONARY
  5
10000195
330
10000194
100
AcDbDictionary
  3
BTDETID
360
10000196
1001
ACAD
1000
TREAT_AS_HARD
1070
     1
  0
DICTIONARY
  5
10000198
330
10000197
100
AcDbDictionary
  3
BTDETID
360
10000199
1001
ACAD
1000
TREAT_AS_HARD
1070
     1
  0
DICTIONARY
  5
1000019B
330
1000019A
100
AcDbDictionary
  3
BTDETID
360
1000019C
1001
ACAD
1000
TREAT_AS_HARD
1070
     1
  0
DICTIONARY
  5
1000019E
330
1000019D
100
AcDbDictionary
  3
BTDETID
360
1000019F
1001
ACAD
1000
TREAT_AS_HARD
1070
     1
  0
DICTIONARY
  5
100001A1
330
100001A0
100
AcDbDictionary
  3
BTDETID
360
100001A2
1001
ACAD
1000
TREAT_AS_HARD
1070
     1
  0
DICTIONARY
  5
100001A4
330
100001A3
100
AcDbDictionary
  3
BTDETID
360
100001A5
1001
ACAD
1000
TREAT_AS_HARD
1070
     1
  0
DICTIONARY
  5
100001A7
330
100001A6
100
AcDbDictionary
  3
BTDETID
360
100001A8
1001
ACAD
1000
TREAT_AS_HARD
1070
     1
  0
DICTIONARY
  5
100001AA
330
100001A9
100
AcDbDictionary
  3
BTDETID
360
100001AB
1001
ACAD
1000
TREAT_AS_HARD
1070
     1
  0
DICTIONARY
  5
100001AD
330
100001AC
100
AcDbDictionary
  3
BTDETID
360
100001AE
1001
ACAD
1000
TREAT_AS_HARD
1070
     1
  0
DICTIONARY
  5
100001B0
330
100001AF
100
AcDbDictionary
  3
BTDETID
360
100001B1
1001
ACAD
1000
TREAT_AS_HARD
1070
     1
  0
DICTIONARY
  5
100001B3
330
100001B2
100
AcDbDictionary
  3
BTDETID
360
100001B4
1001
ACAD
1000
TREAT_AS_HARD
1070
     1
  0
DICTIONARY
  5
100001B6
330
100001B5
100
AcDbDictionary
  3
BTDETID
360
100001B7
1001
ACAD
1000
TREAT_AS_HARD
1070
     1
  0
DICTIONARY
  5
100001B9
330
100001B8
100
AcDbDictionary
  3
BTDETID
360
100001BA
1001
ACAD
1000
TREAT_AS_HARD
1070
     1
  0
DICTIONARY
  5
100001BC
330
100001BB
100
AcDbDictionary
  3
BTDETID
360
100001BD
1001
ACAD
1000
TREAT_AS_HARD
1070
     1
  0
DICTIONARY
  5
100001BF
330
100001BE
100
AcDbDictionary
  3
BTDETID
360
100001C0
1001
ACAD
1000
TREAT_AS_HARD
1070
     1
  0
DICTIONARY
  5
100001C2
330
100001C1
100
AcDbDictionary
  3
BTDETID
360
100001C3
1001
ACAD
1000
TREAT_AS_HARD
1070
     1
  0
DICTIONARY
  5
100001C5
330
100001C4
100
AcDbDictionary
  3
BTDETID
360
100001C6
1001
ACAD
1000
TREAT_AS_HARD
1070
     1
  0
DICTIONARY
  5
100001C8
330
100001C7
100
AcDbDictionary
  3
BTDETID
360
100001C9
1001
ACAD
1000
TREAT_AS_HARD
1070
     1
  0
DICTIONARY
  5
100001CB
330
100001CA
100
AcDbDictionary
  3
BTDETID
360
100001CC
1001
ACAD
1000
TREAT_AS_HARD
1070
     1
  0
DICTIONARY
  5
100001CE
330
100001CD
100
AcDbDictionary
  3
BTDETID
360
100001CF
1001
ACAD
1000
TREAT_AS_HARD
1070
     1
  0
DICTIONARY
  5
100001D1
330
100001D0
100
AcDbDictionary
  3
BTDETID
360
100001D2
1001
ACAD
1000
TREAT_AS_HARD
1070
     1
  0
DICTIONARY
  5
100001D4
330
100001D3
100
AcDbDictionary
  3
BTDETID
360
100001D5
1001
ACAD
1000
TREAT_AS_HARD
1070
     1
  0
DICTIONARY
  5
100001D7
330
100001D6
100
AcDbDictionary
  3
BTDETID
360
100001D8
1001
ACAD
1000
TREAT_AS_HARD
1070
     1
  0
DICTIONARY
  5
100001DA
330
100001D9
100
AcDbDictionary
  3
BTDETID
360
100001DB
1001
ACAD
1000
TREAT_AS_HARD
1070
     1
  0
DICTIONARY
  5
100001DD
330
100001DC
100
AcDbDictionary
  3
BTDETID
360
100001DE
1001
ACAD
1000
TREAT_AS_HARD
1070
     1
  0
DICTIONARY
  5
100001E0
330
100001DF
100
AcDbDictionary
  3
BTDETID
360
100001E1
1001
ACAD
1000
TREAT_AS_HARD
1070
     1
  0
DICTIONARY
  5
100001E3
330
100001E2
100
AcDbDictionary
  3
BTDETID
360
100001E4
1001
ACAD
1000
TREAT_AS_HARD
1070
     1
  0
DICTIONARY
  5
100001E6
330
100001E5
100
AcDbDictionary
  3
BTDETID
360
100001E7
1001
ACAD
1000
TREAT_AS_HARD
1070
     1
  0
DICTIONARY
  5
100001E9
330
100001E8
100
AcDbDictionary
  3
BTDETID
360
100001EA
1001
ACAD
1000
TREAT_AS_HARD
1070
     1
  0
DICTIONARY
  5
100001EC
330
100001EB
100
AcDbDictionary
  3
BTDETID
360
100001ED
1001
ACAD
1000
TREAT_AS_HARD
1070
     1
  0
DICTIONARY
  5
100001EF
330
100001EE
100
AcDbDictionary
  3
BTDETID
360
100001F0
1001
ACAD
1000
TREAT_AS_HARD
1070
     1
  0
DICTIONARY
  5
100001F2
330
100001F1
100
AcDbDictionary
  3
BTDETID
360
100001F3
1001
ACAD
1000
TREAT_AS_HARD
1070
     1
  0
DICTIONARY
  5
100001F5
330
100001F4
100
AcDbDictionary
  3
BTDETID
360
100001F6
1001
ACAD
1000
TREAT_AS_HARD
1070
     1
  0
DICTIONARY
  5
100001F8
330
100001F7
100
AcDbDictionary
  3
BTDETID
360
100001F9
1001
ACAD
1000
TREAT_AS_HARD
1070
     1
  0
DICTIONARY
  5
100001FB
330
100001FA
100
AcDbDictionary
  3
BTDETID
360
100001FC
1001
ACAD
1000
TREAT_AS_HARD
1070
     1
  0
DICTIONARY
  5
100001FE
330
100001FD
100
AcDbDictionary
  3
BTDETID
360
100001FF
1001
ACAD
1000
TREAT_AS_HARD
1070
     1
  0
DICTIONARY
  5
10000201
330
10000200
100
AcDbDictionary
  3
BTDETID
360
10000202
1001
ACAD
1000
TREAT_AS_HARD
1070
     1
  0
DICTIONARY
  5
10000204
330
10000203
100
AcDbDictionary
  3
BTDETID
360
10000205
1001
ACAD
1000
TREAT_AS_HARD
1070
     1
  0
DICTIONARY
  5
10000207
330
10000206
100
AcDbDictionary
  3
BTDETID
360
10000208
1001
ACAD
1000
TREAT_AS_HARD
1070
     1
  0
DICTIONARY
  5
1000020A
330
10000209
100
AcDbDictionary
  3
BTDETID
360
1000020B
1001
ACAD
1000
TREAT_AS_HARD
1070
     1
  0
DICTIONARY
  5
1000020D
330
1000020C
100
AcDbDictionary
  3
BTDETID
360
1000020E
1001
ACAD
1000
TREAT_AS_HARD
1070
     1
  0
DICTIONARY
  5
10000210
330
1000020F
100
AcDbDictionary
  3
BTDETID
360
10000211
1001
ACAD
1000
TREAT_AS_HARD
1070
     1
  0
DICTIONARY
  5
10000213
330
10000212
100
AcDbDictionary
  3
BTDETID
360
10000214
1001
ACAD
1000
TREAT_AS_HARD
1070
     1
  0
DICTIONARY
  5
10000216
330
10000215
100
AcDbDictionary
  3
BTDETID
360
10000217
1001
ACAD
1000
TREAT_AS_HARD
1070
     1
  0
DICTIONARY
  5
10000219
330
10000218
100
AcDbDictionary
  3
BTDETID
360
1000021A
1001
ACAD
1000
TREAT_AS_HARD
1070
     1
  0
DICTIONARY
  5
1000021C
330
1000021B
100
AcDbDictionary
  3
BTDETID
360
1000021D
1001
ACAD
1000
TREAT_AS_HARD
1070
     1
  0
DICTIONARY
  5
1000021F
330
1000021E
100
AcDbDictionary
  3
BTDETID
360
10000220
1001
ACAD
1000
TREAT_AS_HARD
1070
     1
  0
DICTIONARY
  5
10000222
330
10000221
100
AcDbDictionary
  3
BTDETID
360
10000223
1001
ACAD
1000
TREAT_AS_HARD
1070
     1
  0
DICTIONARY
  5
10000225
330
10000224
100
AcDbDictionary
  3
BTDETID
360
10000226
1001
ACAD
1000
TREAT_AS_HARD
1070
     1
  0
DICTIONARY
  5
10000228
330
10000227
100
AcDbDictionary
  3
BTDETID
360
10000229
1001
ACAD
1000
TREAT_AS_HARD
1070
     1
  0
DICTIONARY
  5
1000022B
330
1000022A
100
AcDbDictionary
  3
BTDETID
360
1000022C
1001
ACAD
1000
TREAT_AS_HARD
1070
     1
  0
DICTIONARY
  5
1000022E
330
1000022D
100
AcDbDictionary
  3
BTDETID
360
1000022F
1001
ACAD
1000
TREAT_AS_HARD
1070
     1
  0
DICTIONARY
  5
10000231
330
10000230
100
AcDbDictionary
  3
BTDETID
360
10000232
1001
ACAD
1000
TREAT_AS_HARD
1070
     1
  0
DICTIONARY
  5
10000234
330
10000233
100
AcDbDictionary
  3
BTDETID
360
10000235
1001
ACAD
1000
TREAT_AS_HARD
1070
     1
  0
DICTIONARY
  5
10000237
330
10000236
100
AcDbDictionary
  3
BTDETID
360
10000238
1001
ACAD
1000
TREAT_AS_HARD
1070
     1
  0
DICTIONARY
  5
1000023A
330
10000239
100
AcDbDictionary
  3
BTDETID
360
1000023B
1001
ACAD
1000
TREAT_AS_HARD
1070
     1
  0
DICTIONARY
  5
1000023D
330
1000023C
100
AcDbDictionary
  3
BTDETID
360
1000023E
1001
ACAD
1000
TREAT_AS_HARD
1070
     1
  0
DICTIONARY
  5
10000240
330
1000023F
100
AcDbDictionary
  3
BTDETID
360
10000241
1001
ACAD
1000
TREAT_AS_HARD
1070
     1
  0
DICTIONARY
  5
10000243
330
10000242
100
AcDbDictionary
  3
BTDETID
360
10000244
1001
ACAD
1000
TREAT_AS_HARD
1070
     1
  0
DICTIONARY
  5
10000246
330
10000245
100
AcDbDictionary
  3
BTDETID
360
10000247
1001
ACAD
1000
TREAT_AS_HARD
1070
     1
  0
DICTIONARY
  5
10000249
330
10000248
100
AcDbDictionary
  3
BTDETID
360
1000024A
1001
ACAD
1000
TREAT_AS_HARD
1070
     1
  0
DICTIONARY
  5
1000024C
330
1000024B
100
AcDbDictionary
  3
BTDETID
360
1000024D
1001
ACAD
1000
TREAT_AS_HARD
1070
     1
  0
DICTIONARY
  5
1000024F
330
1000024E
100
AcDbDictionary
  3
BTDETID
360
10000250
1001
ACAD
1000
TREAT_AS_HARD
1070
     1
  0
DICTIONARY
  5
10000252
330
10000251
100
AcDbDictionary
  3
BTDETID
360
10000253
1001
ACAD
1000
TREAT_AS_HARD
1070
     1
  0
DICTIONARY
  5
10000255
330
10000254
100
AcDbDictionary
  3
BTDETID
360
10000256
1001
ACAD
1000
TREAT_AS_HARD
1070
     1
  0
DICTIONARY
  5
10000258
330
10000257
100
AcDbDictionary
  3
BTDETID
360
10000259
1001
ACAD
1000
TREAT_AS_HARD
1070
     1
  0
DICTIONARY
  5
1000025B
330
1000025A
100
AcDbDictionary
  3
BTDETID
360
1000025C
1001
ACAD
1000
TREAT_AS_HARD
1070
     1
  0
DICTIONARY
  5
1000025E
330
1000025D
100
AcDbDictionary
  3
BTDETID
360
1000025F
1001
ACAD
1000
TREAT_AS_HARD
1070
     1
  0
DICTIONARY
  5
10000261
330
10000260
100
AcDbDictionary
  3
BTDETID
360
10000262
1001
ACAD
1000
TREAT_AS_HARD
1070
     1
  0
DICTIONARY
  5
10000264
330
10000263
100
AcDbDictionary
  3
BTDETID
360
10000265
1001
ACAD
1000
TREAT_AS_HARD
1070
     1
  0
DICTIONARY
  5
10000267
330
10000266
100
AcDbDictionary
  3
BTDETID
360
10000268
1001
ACAD
1000
TREAT_AS_HARD
1070
     1
  0
DICTIONARY
  5
1000026A
330
10000269
100
AcDbDictionary
  3
BTDETID
360
1000026B
1001
ACAD
1000
TREAT_AS_HARD
1070
     1
  0
DICTIONARY
  5
1000026D
330
1000026C
100
AcDbDictionary
  3
BTDETID
360
1000026E
1001
ACAD
1000
TREAT_AS_HARD
1070
     1
  0
DICTIONARY
  5
10000270
330
1000026F
100
AcDbDictionary
  3
BTDETID
360
10000271
1001
ACAD
1000
TREAT_AS_HARD
1070
     1
  0
DICTIONARY
  5
10000273
330
10000272
100
AcDbDictionary
  3
BTDETID
360
10000274
1001
ACAD
1000
TREAT_AS_HARD
1070
     1
  0
DICTIONARY
  5
10000276
330
10000275
100
AcDbDictionary
  3
BTDETID
360
10000277
1001
ACAD
1000
TREAT_AS_HARD
1070
     1
  0
DICTIONARY
  5
10000279
330
10000278
100
AcDbDictionary
  3
BTDETID
360
1000027A
1001
ACAD
1000
TREAT_AS_HARD
1070
     1
  0
DICTIONARY
  5
1000027C
330
1000027B
100
AcDbDictionary
  3
BTDETID
360
1000027D
1001
ACAD
1000
TREAT_AS_HARD
1070
     1
  0
DICTIONARY
  5
1000027F
330
1000027E
100
AcDbDictionary
  3
BTDETID
360
10000280
1001
ACAD
1000
TREAT_AS_HARD
1070
     1
  0
DICTIONARY
  5
10000282
330
10000281
100
AcDbDictionary
  3
BTDETID
360
10000283
1001
ACAD
1000
TREAT_AS_HARD
1070
     1
  0
DICTIONARY
  5
10000285
330
10000284
100
AcDbDictionary
  3
BTDETID
360
10000286
1001
ACAD
1000
TREAT_AS_HARD
1070
     1
  0
DICTIONARY
  5
10000288
330
10000287
100
AcDbDictionary
  3
BTDETID
360
10000289
1001
ACAD
1000
TREAT_AS_HARD
1070
     1
  0
DICTIONARY
  5
1000028B
330
1000028A
100
AcDbDictionary
  3
BTDETID
360
1000028C
1001
ACAD
1000
TREAT_AS_HARD
1070
     1
  0
DICTIONARY
  5
1000028E
330
1000028D
100
AcDbDictionary
  3
BTDETID
360
1000028F
1001
ACAD
1000
TREAT_AS_HARD
1070
     1
  0
DICTIONARY
  5
10000291
330
10000290
100
AcDbDictionary
  3
BTDETID
360
10000292
1001
ACAD
1000
TREAT_AS_HARD
1070
     1
  0
DICTIONARY
  5
10000294
330
10000293
100
AcDbDictionary
  3
BTDETID
360
10000295
1001
ACAD
1000
TREAT_AS_HARD
1070
     1
  0
DICTIONARY
  5
10000297
330
10000296
100
AcDbDictionary
  3
BTDETID
360
10000298
1001
ACAD
1000
TREAT_AS_HARD
1070
     1
  0
DICTIONARY
  5
1000029A
330
10000299
100
AcDbDictionary
  3
BTDETID
360
1000029B
1001
ACAD
1000
TREAT_AS_HARD
1070
     1
  0
DICTIONARY
  5
1000029D
330
1000029C
100
AcDbDictionary
  3
BTDETID
360
1000029E
1001
ACAD
1000
TREAT_AS_HARD
1070
     1
  0
DICTIONARY
  5
100002A0
330
1000029F
100
AcDbDictionary
  3
BTDETID
360
100002A1
1001
ACAD
1000
TREAT_AS_HARD
1070
     1
  0
DICTIONARY
  5
100002A3
330
100002A2
100
AcDbDictionary
  3
BTDETID
360
100002A4
1001
ACAD
1000
TREAT_AS_HARD
1070
     1
  0
DICTIONARY
  5
100002A6
330
100002A5
100
AcDbDictionary
  3
BTDETID
360
100002A7
1001
ACAD
1000
TREAT_AS_HARD
1070
     1
  0
DICTIONARY
  5
100002A9
330
100002A8
100
AcDbDictionary
  3
BTDETID
360
100002AA
1001
ACAD
1000
TREAT_AS_HARD
1070
     1
  0
DICTIONARY
  5
100002AC
330
100002AB
100
AcDbDictionary
  3
BTDETID
360
100002AD
1001
ACAD
1000
TREAT_AS_HARD
1070
     1
  0
DICTIONARY
  5
100002AF
330
100002AE
100
AcDbDictionary
  3
BTDETID
360
100002B0
1001
ACAD
1000
TREAT_AS_HARD
1070
     1
  0
DICTIONARY
  5
100002B2
330
100002B1
100
AcDbDictionary
  3
BTDETID
360
100002B3
1001
ACAD
1000
TREAT_AS_HARD
1070
     1
  0
DICTIONARY
  5
100002B5
330
100002B4
100
AcDbDictionary
  3
BTDETID
360
100002B6
1001
ACAD
1000
TREAT_AS_HARD
1070
     1
  0
DICTIONARY
  5
100002B8
330
100002B7
100
AcDbDictionary
  3
BTDETID
360
100002B9
1001
ACAD
1000
TREAT_AS_HARD
1070
     1
  0
DICTIONARY
  5
100002BB
330
100002BA
100
AcDbDictionary
  3
BTDETID
360
100002BC
1001
ACAD
1000
TREAT_AS_HARD
1070
     1
  0
DICTIONARY
  5
100002BE
330
100002BD
100
AcDbDictionary
  3
BTDETID
360
100002BF
1001
ACAD
1000
TREAT_AS_HARD
1070
     1
  0
DICTIONARY
  5
100002C1
330
100002C0
100
AcDbDictionary
  3
BTDETID
360
100002C2
1001
ACAD
1000
TREAT_AS_HARD
1070
     1
  0
DICTIONARY
  5
100002C4
330
100002C3
100
AcDbDictionary
  3
BTDETID
360
100002C5
1001
ACAD
1000
TREAT_AS_HARD
1070
     1
  0
DICTIONARY
  5
100002C7
330
100002C6
100
AcDbDictionary
  3
BTDETID
360
100002C8
1001
ACAD
1000
TREAT_AS_HARD
1070
     1
  0
DICTIONARY
  5
100002CA
330
100002C9
100
AcDbDictionary
  3
BTDETID
360
100002CB
1001
ACAD
1000
TREAT_AS_HARD
1070
     1
  0
DICTIONARY
  5
100002CD
330
100002CC
100
AcDbDictionary
  3
BTDETID
360
100002CE
1001
ACAD
1000
TREAT_AS_HARD
1070
     1
  0
DICTIONARY
  5
100002D0
330
100002CF
100
AcDbDictionary
  3
BTDETID
360
100002D1
1001
ACAD
1000
TREAT_AS_HARD
1070
     1
  0
DICTIONARY
  5
100002D3
330
100002D2
100
AcDbDictionary
  3
BTDETID
360
100002D4
1001
ACAD
1000
TREAT_AS_HARD
1070
     1
  0
DICTIONARY
  5
100002D6
330
100002D5
100
AcDbDictionary
  3
BTDETID
360
100002D7
1001
ACAD
1000
TREAT_AS_HARD
1070
     1
  0
DICTIONARY
  5
100002D9
330
100002D8
100
AcDbDictionary
  3
BTDETID
360
100002DA
1001
ACAD
1000
TREAT_AS_HARD
1070
     1
  0
DICTIONARY
  5
100002DC
330
100002DB
100
AcDbDictionary
  3
BTDETID
360
100002DD
1001
ACAD
1000
TREAT_AS_HARD
1070
     1
  0
DICTIONARY
  5
100002DF
330
100002DE
100
AcDbDictionary
  3
BTDETID
360
100002E0
1001
ACAD
1000
TREAT_AS_HARD
1070
     1
  0
DICTIONARY
  5
100002E2
330
100002E1
100
AcDbDictionary
  3
BTDETID
360
100002E3
1001
ACAD
1000
TREAT_AS_HARD
1070
     1
  0
DICTIONARY
  5
100002E5
330
100002E4
100
AcDbDictionary
  3
BTDETID
360
100002E6
1001
ACAD
1000
TREAT_AS_HARD
1070
     1
  0
DICTIONARY
  5
100002E8
330
100002E7
100
AcDbDictionary
  3
BTDETID
360
100002E9
1001
ACAD
1000
TREAT_AS_HARD
1070
     1
  0
DICTIONARY
  5
100002EB
330
100002EA
100
AcDbDictionary
  3
BTDETID
360
100002EC
1001
ACAD
1000
TREAT_AS_HARD
1070
     1
  0
DICTIONARY
  5
100002EE
330
100002ED
100
AcDbDictionary
  3
BTDETID
360
100002EF
1001
ACAD
1000
TREAT_AS_HARD
1070
     1
  0
DICTIONARY
  5
D
102
{ACAD_REACTORS
330
C
102
}
330
C
100
AcDbDictionary
1001
ACAD
1000
TREAT_AS_HARD
1070
     0
  0
DICTIONARY
  5
1A
102
{ACAD_REACTORS
330
C
102
}
330
C
100
AcDbDictionary
1001
ACAD
1000
TREAT_AS_HARD
1070
     0
  0
DICTIONARY
  5
43
102
{ACAD_REACTORS
330
C
102
}
330
C
100
AcDbDictionary
  3
BYBLOCK
350
45
  3
BYLAYER
350
44
  3
GLOBAL
350
46
1001
ACAD
1000
TREAT_AS_HARD
1070
     0
  0
DICTIONARY
  5
6B
102
{ACAD_REACTORS
330
C
102
}
330
C
100
AcDbDictionary
  3
STANDARD
350
6C
1001
ACAD
1000
TREAT_AS_HARD
1070
     0
  0
DICTIONARY
  5
17
102
{ACAD_REACTORS
330
C
102
}
330
C
100
AcDbDictionary
  3
STANDARD
350
18
1001
ACAD
1000
TREAT_AS_HARD
1070
     0
  0
DICTIONARY
  5
19
102
{ACAD_REACTORS
330
C
102
}
330
C
100
AcDbDictionary
1001
ACAD
1000
TREAT_AS_HARD
1070
     0
  0
DICTIONARY
  5
47
102
{ACAD_REACTORS
330
C
102
}
330
C
100
AcDbDictionary
  3
SCALE100_1
350
10000023
  3
SCALE10_1
350
1000001D
  3
SCALE12_1
350
1000001E
  3
SCALE16_1
350
1000001F
  3
SCALE1_1
350
10000006
  3
SCALE1_10
350
1000000D
  3
SCALE1_100
350
10000016
  3
SCALE1_12
350
1000000E
  3
SCALE1_16
350
1000000F
  3
SCALE1_2
350
10000007
  3
SCALE1_20
350
10000010
  3
SCALE1_25
350
10000011
  3
SCALE1_3
350
10000008
  3
SCALE1_32
350
10000012
  3
SCALE1_4
350
10000009
  3
SCALE1_40
350
10000013
  3
SCALE1_5
350
1000000A
  3
SCALE1_50
350
10000014
  3
SCALE1_6
350
1000000B
  3
SCALE1_8
350
1000000C
  3
SCALE1_80
350
10000015
  3
SCALE20_1
350
10000020
  3
SCALE2_1
350
10000017
  3
SCALE32_1
350
10000021
  3
SCALE3_1
350
10000018
  3
SCALE4_1
350
10000019
  3
SCALE50_1
350
10000022
  3
SCALE5_1
350
1000001A
  3
SCALE6_1
350
1000001B
  3
SCALE8_1
350
1000001C
1001
ACAD
1000
TREAT_AS_HARD
1070
     0
  0
DICTIONARY
  5
2A
102
{ACAD_REACTORS
330
C
102
}
330
C
100
AcDbDictionary
  3
2DWIREFRAME
350
2F
  3
BASIC
350
32
  3
BRIGHTEN
350
36
  3
COLORCHANGE
350
3A
  3
CONCEPTUAL
350
34
  3
DIM
350
35
  3
EDGECOLOROFF
350
3D
  3
FACEPATTERN
350
39
  3
FLAT
350
2B
  3
FLATWITHEDGES
350
2C
  3
GOURAUD
350
2D
  3
GOURAUDWITHEDGES
350
2E
  3
HIDDEN
350
31
  3
JITTEROFF
350
3B
  3
LINEPATTERN
350
38
  3
OVERHANGOFF
350
3C
  3
REALISTIC
350
33
  3
SHADED
350
42
  3
SHADED_WITH_EDGES
350
41
  3
SHADES_OF_GRAY
350
3E
  3
SKETCHY
350
3F
  3
THICKEN
350
37
  3
WIREFRAME
350
30
  3
X-RAY
350
40
1001
ACAD
1000
TREAT_AS_HARD
1070
     0
  0
DICTIONARY
  5
100002F2
102
{ACAD_REACTORS
330
C
102
}
330
C
100
AcDbDictionary
  3
CANNOSCALE
350
100002FA
  3
CMLEADERSTYLE
350
100002F4
  3
CTABLESTYLE
350
100002F3
  3
DIMASSOC
350
100002F7
  3
HIDETEXT
350
100002F8
  3
MSLTSCALE
350
100002FB
1001
ACAD
1000
TREAT_AS_HARD
1070
     0
  0
XRECORD
  5
100002F9
102
{ACAD_REACTORS
330
C
102
}
330
C
100
AcDbXrecord
  1
DWGPROPS COOKIE
  2

  3

  4

  6
File was created by BTDwgCreate
  7

  8

  9

300
=
301
=
302
=
303
=
304
=
305
=
306
=
307
=
308
=
309
=
 40
0.0
 41
2460483.47503213
 42
2460483.475032164
  1

 90
        0
  0
DICTIONARY
  5
10000001
102
{ACAD_REACTORS
330
C
102
}
330
C
100
AcDbDictionary
  3
DIM_UNITS
360
10000003
  3
DWGGEN_VERSION
360
10000002
  3
FIRST_ANGLE
360
10000005
1001
ACAD
1000
TREAT_AS_HARD
1070
     1
  0
SORTENTSTABLE
  5
100002F1
102
{ACAD_REACTORS
330
100002F0
102
}
330
100002F0
100
AcDbSortentsTable
330
1F
331
10000056
  5
10000065
331
1000005B
  5
10000056
331
10000060
  5
1000006A
331
10000065
  5
1000005B
331
1000006A
  5
1000006F
331
1000006F
  5
10000060
  0
XRECORD
  5
10000055
102
{ACAD_REACTORS
330
10000052
102
}
330
10000052
100
AcDbXrecord
 40
5.000000000000005
  0
XRECORD
  5
10000053
102
{ACAD_REACTORS
330
10000052
102
}
330
10000052
100
AcDbXrecord
1000
ShEJg
  0
XRECORD
  5
10000054
102
{ACAD_REACTORS
330
10000052
102
}
330
10000052
100
AcDbXrecord
1000
ShEGK
  0
XRECORD
  5
1000005A
102
{ACAD_REACTORS
330
10000057
102
}
330
10000057
100
AcDbXrecord
 40
5.000000000000005
  0
XRECORD
  5
10000058
102
{ACAD_REACTORS
330
10000057
102
}
330
10000057
100
AcDbXrecord
1000
ShE5f
  0
XRECORD
  5
10000059
102
{ACAD_REACTORS
330
10000057
102
}
330
10000057
100
AcDbXrecord
1000
ShEGK
  0
XRECORD
  5
1000005F
102
{ACAD_REACTORS
330
1000005C
102
}
330
1000005C
100
AcDbXrecord
 40
5.000000000000005
  0
XRECORD
  5
1000005D
102
{ACAD_REACTORS
330
1000005C
102
}
330
1000005C
100
AcDbXrecord
1000
ShENg
  0
XRECORD
  5
1000005E
102
{ACAD_REACTORS
330
1000005C
102
}
330
1000005C
100
AcDbXrecord
1000
ShEKK
  0
XRECORD
  5
10000064
102
{ACAD_REACTORS
330
10000061
102
}
330
10000061
100
AcDbXrecord
 40
5.000000000000005
  0
XRECORD
  5
10000062
102
{ACAD_REACTORS
330
10000061
102
}
330
10000061
100
AcDbXrecord
1000
ShE9f
  0
XRECORD
  5
10000063
102
{ACAD_REACTORS
330
10000061
102
}
330
10000061
100
AcDbXrecord
1000
ShEKK
  0
XRECORD
  5
10000069
102
{ACAD_REACTORS
330
10000066
102
}
330
10000066
100
AcDbXrecord
 40
5.000000000000005
  0
XRECORD
  5
10000067
102
{ACAD_REACTORS
330
10000066
102
}
330
10000066
100
AcDbXrecord
1000
ShERg
  0
XRECORD
  5
10000068
102
{ACAD_REACTORS
330
10000066
102
}
330
10000066
100
AcDbXrecord
1000
ShEOK
  0
XRECORD
  5
1000006E
102
{ACAD_REACTORS
330
1000006B
102
}
330
1000006B
100
AcDbXrecord
 40
5.000000000000005
  0
XRECORD
  5
1000006C
102
{ACAD_REACTORS
330
1000006B
102
}
330
1000006B
100
AcDbXrecord
1000
ShEBg
  0
XRECORD
  5
1000006D
102
{ACAD_REACTORS
330
1000006B
102
}
330
1000006B
100
AcDbXrecord
1000
ShEOK
  0
XRECORD
  5
10000073
102
{ACAD_REACTORS
330
10000070
102
}
330
10000070
100
AcDbXrecord
 40
5.000000000000005
  0
XRECORD
  5
10000071
102
{ACAD_REACTORS
330
10000070
102
}
330
10000070
100
AcDbXrecord
1000
ShEFg
  0
XRECORD
  5
10000072
102
{ACAD_REACTORS
330
10000070
102
}
330
10000070
100
AcDbXrecord
1000
ShECK
  0
XRECORD
  5
10000078
102
{ACAD_REACTORS
330
10000075
102
}
330
10000075
100
AcDbXrecord
 40
5.000000000000005
  0
XRECORD
  5
10000076
102
{ACAD_REACTORS
330
10000075
102
}
330
10000075
100
AcDbXrecord
1000
ShE1f
  0
XRECORD
  5
10000077
102
{ACAD_REACTORS
330
10000075
102
}
330
10000075
100
AcDbXrecord
1000
ShECK
  0
XRECORD
  5
1000007B
102
{ACAD_REACTORS
330
1000007A
102
}
330
1000007A
100
AcDbXrecord
1000
ShEpj
  0
XRECORD
  5
10000080
102
{ACAD_REACTORS
330
1000007D
102
}
330
1000007D
100
AcDbXrecord
 40
10.0
  0
XRECORD
  5
1000007E
102
{ACAD_REACTORS
330
1000007D
102
}
330
1000007D
100
AcDbXrecord
1000
ShEhh
  0
XRECORD
  5
1000007F
102
{ACAD_REACTORS
330
1000007D
102
}
330
1000007D
100
AcDbXrecord
1000
ShEuO
  0
XRECORD
  5
10000083
102
{ACAD_REACTORS
330
10000082
102
}
330
10000082
100
AcDbXrecord
1000
ShExj
  0
XRECORD
  5
10000086
102
{ACAD_REACTORS
330
10000085
102
}
330
10000085
100
AcDbXrecord
1000
SiEVC
  0
XRECORD
  5
10000089
102
{ACAD_REACTORS
330
10000088
102
}
330
10000088
100
AcDbXrecord
1000
ShE9m
  0
XRECORD
  5
1000008E
102
{ACAD_REACTORS
330
1000008B
102
}
330
1000008B
100
AcDbXrecord
 40
1.593750000000005
  0
XRECORD
  5
1000008C
102
{ACAD_REACTORS
330
1000008B
102
}
330
1000008B
100
AcDbXrecord
1000
ShEBn
  0
XRECORD
  5
1000008D
102
{ACAD_REACTORS
330
1000008B
102
}
330
1000008B
100
AcDbXrecord
1000
ShEuO
  0
XRECORD
  5
10000091
102
{ACAD_REACTORS
330
10000090
102
}
330
10000090
100
AcDbXrecord
1000
ShE5m
  0
XRECORD
  5
10000094
102
{ACAD_REACTORS
330
10000093
102
}
330
10000093
100
AcDbXrecord
1000
ShEpn
  0
XRECORD
  5
10000097
102
{ACAD_REACTORS
330
10000096
102
}
330
10000096
100
AcDbXrecord
1000
SiE1C
  0
XRECORD
  5
1000009A
102
{ACAD_REACTORS
330
10000099
102
}
330
10000099
100
AcDbXrecord
1000
ShE1n
  0
XRECORD
  5
1000009D
102
{ACAD_REACTORS
330
1000009C
102
}
330
1000009C
100
AcDbXrecord
1000
ShE1o
  0
XRECORD
  5
100000A2
102
{ACAD_REACTORS
330
1000009F
102
}
330
1000009F
100
AcDbXrecord
 40
10.0
  0
XRECORD
  5
100000A0
102
{ACAD_REACTORS
330
1000009F
102
}
330
1000009F
100
AcDbXrecord
1000
ShERi
  0
XRECORD
  5
100000A1
102
{ACAD_REACTORS
330
1000009F
102
}
330
1000009F
100
AcDbXrecord
1000
ShEuO
  0
XRECORD
  5
100000A5
102
{ACAD_REACTORS
330
100000A4
102
}
330
100000A4
100
AcDbXrecord
1000
ShEZk
  0
XRECORD
  5
100000AA
102
{ACAD_REACTORS
330
100000A7
102
}
330
100000A7
100
AcDbXrecord
 40
10.0
  0
XRECORD
  5
100000A8
102
{ACAD_REACTORS
330
100000A7
102
}
330
100000A7
100
AcDbXrecord
1000
ShEhi
  0
XRECORD
  5
100000A9
102
{ACAD_REACTORS
330
100000A7
102
}
330
100000A7
100
AcDbXrecord
1000
ShEuO
  0
XRECORD
  5
100000AD
102
{ACAD_REACTORS
330
100000AC
102
}
330
100000AC
100
AcDbXrecord
1000
ShEhk
  0
XRECORD
  5
100000B2
102
{ACAD_REACTORS
330
100000AF
102
}
330
100000AF
100
AcDbXrecord
 40
1.593749999999998
  0
XRECORD
  5
100000B0
102
{ACAD_REACTORS
330
100000AF
102
}
330
100000AF
100
AcDbXrecord
1000
ShEpl
  0
XRECORD
  5
100000B1
102
{ACAD_REACTORS
330
100000AF
102
}
330
100000AF
100
AcDbXrecord
1000
ShEuO
  0
XRECORD
  5
100000B5
102
{ACAD_REACTORS
330
100000B4
102
}
330
100000B4
100
AcDbXrecord
1000
ShEhl
  0
XRECORD
  5
100000B8
102
{ACAD_REACTORS
330
100000B7
102
}
330
100000B7
100
AcDbXrecord
1000
ShEJm
  0
XRECORD
  5
100000BD
102
{ACAD_REACTORS
330
100000BA
102
}
330
100000BA
100
AcDbXrecord
 40
120.0
  0
XRECORD
  5
100000BB
102
{ACAD_REACTORS
330
100000BA
102
}
330
100000BA
100
AcDbXrecord
1000
ShExi
  0
XRECORD
  5
100000BC
102
{ACAD_REACTORS
330
100000BA
102
}
330
100000BA
100
AcDbXrecord
1000
ShEuO
  0
XRECORD
  5
100000C0
102
{ACAD_REACTORS
330
100000BF
102
}
330
100000BF
100
AcDbXrecord
1000
ShEpk
  0
XRECORD
  5
100000C5
102
{ACAD_REACTORS
330
100000C2
102
}
330
100000C2
100
AcDbXrecord
 40
120.0
  0
XRECORD
  5
100000C3
102
{ACAD_REACTORS
330
100000C2
102
}
330
100000C2
100
AcDbXrecord
1000
ShEBj
  0
XRECORD
  5
100000C4
102
{ACAD_REACTORS
330
100000C2
102
}
330
100000C2
100
AcDbXrecord
1000
ShEuO
  0
XRECORD
  5
100000C8
102
{ACAD_REACTORS
330
100000C7
102
}
330
100000C7
100
AcDbXrecord
1000
ShEBm
  0
XRECORD
  5
100000CB
102
{ACAD_REACTORS
330
100000CA
102
}
330
100000CA
100
AcDbXrecord
1000
ShEVl
  0
XRECORD
  5
100000D0
102
{ACAD_REACTORS
330
100000CD
102
}
330
100000CD
100
AcDbXrecord
 40
1.593749999999998
  0
XRECORD
  5
100000CE
102
{ACAD_REACTORS
330
100000CD
102
}
330
100000CD
100
AcDbXrecord
1000
ShEdl
  0
XRECORD
  5
100000CF
102
{ACAD_REACTORS
330
100000CD
102
}
330
100000CD
100
AcDbXrecord
1000
ShEuO
  0
XRECORD
  5
100000D3
102
{ACAD_REACTORS
330
100000D2
102
}
330
100000D2
100
AcDbXrecord
1000
ShE5j
  0
XRECORD
  5
100000D8
102
{ACAD_REACTORS
330
100000D5
102
}
330
100000D5
100
AcDbXrecord
 40
10.0
  0
XRECORD
  5
100000D6
102
{ACAD_REACTORS
330
100000D5
102
}
330
100000D5
100
AcDbXrecord
1000
ShExh
  0
XRECORD
  5
100000D7
102
{ACAD_REACTORS
330
100000D5
102
}
330
100000D5
100
AcDbXrecord
1000
ShEuO
  0
XRECORD
  5
100000DB
102
{ACAD_REACTORS
330
100000DA
102
}
330
100000DA
100
AcDbXrecord
1000
ShEBk
  0
XRECORD
  5
100000E0
102
{ACAD_REACTORS
330
100000DD
102
}
330
100000DD
100
AcDbXrecord
 40
10.0
  0
XRECORD
  5
100000DE
102
{ACAD_REACTORS
330
100000DD
102
}
330
100000DD
100
AcDbXrecord
1000
ShEBi
  0
XRECORD
  5
100000DF
102
{ACAD_REACTORS
330
100000DD
102
}
330
100000DD
100
AcDbXrecord
1000
ShEuO
  0
XRECORD
  5
100000E3
102
{ACAD_REACTORS
330
100000E2
102
}
330
100000E2
100
AcDbXrecord
1000
ShEJk
  0
XRECORD
  5
100000E6
102
{ACAD_REACTORS
330
100000E5
102
}
330
100000E5
100
AcDbXrecord
1000
ShEtn
  0
XRECORD
  5
100000E9
102
{ACAD_REACTORS
330
100000E8
102
}
330
100000E8
100
AcDbXrecord
1000
SiExC
  0
XRECORD
  5
100000EC
102
{ACAD_REACTORS
330
100000EB
102
}
330
100000EB
100
AcDbXrecord
1000
ShEhn
  0
XRECORD
  5
100000EF
102
{ACAD_REACTORS
330
100000EE
102
}
330
100000EE
100
AcDbXrecord
1000
ShEtm
  0
XRECORD
  5
100000F4
102
{ACAD_REACTORS
330
100000F1
102
}
330
100000F1
100
AcDbXrecord
 40
1.593750000000005
  0
XRECORD
  5
100000F2
102
{ACAD_REACTORS
330
100000F1
102
}
330
100000F1
100
AcDbXrecord
1000
ShE1m
  0
XRECORD
  5
100000F3
102
{ACAD_REACTORS
330
100000F1
102
}
330
100000F1
100
AcDbXrecord
1000
ShEuO
  0
XRECORD
  5
100000F7
102
{ACAD_REACTORS
330
100000F6
102
}
330
100000F6
100
AcDbXrecord
1000
ShE9n
  0
XRECORD
  5
100000FA
102
{ACAD_REACTORS
330
100000F9
102
}
330
100000F9
100
AcDbXrecord
1000
SiENC
  0
XRECORD
  5
100000FD
102
{ACAD_REACTORS
330
100000FC
102
}
330
100000FC
100
AcDbXrecord
1000
ShEJj
  0
XRECORD
  5
10000102
102
{ACAD_REACTORS
330
100000FF
102
}
330
100000FF
100
AcDbXrecord
 40
10.0
  0
XRECORD
  5
10000100
102
{ACAD_REACTORS
330
100000FF
102
}
330
100000FF
100
AcDbXrecord
1000
ShExg
  0
XRECORD
  5
10000101
102
{ACAD_REACTORS
330
100000FF
102
}
330
100000FF
100
AcDbXrecord
1000
ShEuO
  0
XRECORD
  5
10000105
102
{ACAD_REACTORS
330
10000104
102
}
330
10000104
100
AcDbXrecord
1000
ShERj
  0
XRECORD
  5
1000010A
102
{ACAD_REACTORS
330
10000107
102
}
330
10000107
100
AcDbXrecord
 40
10.0
  0
XRECORD
  5
10000108
102
{ACAD_REACTORS
330
10000107
102
}
330
10000107
100
AcDbXrecord
1000
ShEBh
  0
XRECORD
  5
10000109
102
{ACAD_REACTORS
330
10000107
102
}
330
10000107
100
AcDbXrecord
1000
ShEuO
  0
XRECORD
  5
1000010D
102
{ACAD_REACTORS
330
1000010C
102
}
330
1000010C
100
AcDbXrecord
1000
ShEVo
  0
XRECORD
  5
10000112
102
{ACAD_REACTORS
330
1000010F
102
}
330
1000010F
100
AcDbXrecord
 40
10.0
  0
XRECORD
  5
10000110
102
{ACAD_REACTORS
330
1000010F
102
}
330
1000010F
100
AcDbXrecord
1000
ShERh
  0
XRECORD
  5
10000111
102
{ACAD_REACTORS
330
1000010F
102
}
330
1000010F
100
AcDbXrecord
1000
ShEuO
  0
XRECORD
  5
10000115
102
{ACAD_REACTORS
330
10000114
102
}
330
10000114
100
AcDbXrecord
1000
ShEJM
  0
XRECORD
  5
10000118
102
{ACAD_REACTORS
330
10000117
102
}
330
10000117
100
AcDbXrecord
1000
ShERM
  0
XRECORD
  5
1000011B
102
{ACAD_REACTORS
330
1000011A
102
}
330
1000011A
100
AcDbXrecord
1000
ShEZM
  0
XRECORD
  5
1000011E
102
{ACAD_REACTORS
330
1000011D
102
}
330
1000011D
100
AcDbXrecord
1000
ShEhM
  0
XRECORD
  5
10000121
102
{ACAD_REACTORS
330
10000120
102
}
330
10000120
100
AcDbXrecord
1000
ShEpM
  0
XRECORD
  5
10000124
102
{ACAD_REACTORS
330
10000123
102
}
330
10000123
100
AcDbXrecord
1000
ShExM
  0
XRECORD
  5
10000127
102
{ACAD_REACTORS
330
10000126
102
}
330
10000126
100
AcDbXrecord
1000
ShE5M
  0
XRECORD
  5
1000012A
102
{ACAD_REACTORS
330
10000129
102
}
330
10000129
100
AcDbXrecord
1000
ShEBN
  0
XRECORD
  5
1000012D
102
{ACAD_REACTORS
330
1000012C
102
}
330
1000012C
100
AcDbXrecord
1000
ShEJN
  0
XRECORD
  5
10000130
102
{ACAD_REACTORS
330
1000012F
102
}
330
1000012F
100
AcDbXrecord
1000
ShERN
  0
XRECORD
  5
10000133
102
{ACAD_REACTORS
330
10000132
102
}
330
10000132
100
AcDbXrecord
1000
ShEZN
  0
XRECORD
  5
10000136
102
{ACAD_REACTORS
330
10000135
102
}
330
10000135
100
AcDbXrecord
1000
ShEhN
  0
XRECORD
  5
10000139
102
{ACAD_REACTORS
330
10000138
102
}
330
10000138
100
AcDbXrecord
1000
ShEpN
  0
XRECORD
  5
1000013C
102
{ACAD_REACTORS
330
1000013B
102
}
330
1000013B
100
AcDbXrecord
1000
ShExN
  0
XRECORD
  5
1000013F
102
{ACAD_REACTORS
330
1000013E
102
}
330
1000013E
100
AcDbXrecord
1000
ShE5N
  0
XRECORD
  5
10000142
102
{ACAD_REACTORS
330
10000141
102
}
330
10000141
100
AcDbXrecord
1000
ShEBO
  0
XRECORD
  5
10000145
102
{ACAD_REACTORS
330
10000144
102
}
330
10000144
100
AcDbXrecord
1000
ShEJO
  0
XRECORD
  5
10000148
102
{ACAD_REACTORS
330
10000147
102
}
330
10000147
100
AcDbXrecord
1000
ShERO
  0
XRECORD
  5
1000014B
102
{ACAD_REACTORS
330
1000014A
102
}
330
1000014A
100
AcDbXrecord
1000
ShEZO
  0
XRECORD
  5
1000014E
102
{ACAD_REACTORS
330
1000014D
102
}
330
1000014D
100
AcDbXrecord
1000
ShEhO
  0
XRECORD
  5
10000151
102
{ACAD_REACTORS
330
10000150
102
}
330
10000150
100
AcDbXrecord
1000
ShEpO
  0
XRECORD
  5
10000154
102
{ACAD_REACTORS
330
10000153
102
}
330
10000153
100
AcDbXrecord
1000
ShExO
  0
XRECORD
  5
10000157
102
{ACAD_REACTORS
330
10000156
102
}
330
10000156
100
AcDbXrecord
1000
ShE5O
  0
XRECORD
  5
1000015A
102
{ACAD_REACTORS
330
10000159
102
}
330
10000159
100
AcDbXrecord
1000
ShEBP
  0
XRECORD
  5
1000015D
102
{ACAD_REACTORS
330
1000015C
102
}
330
1000015C
100
AcDbXrecord
1000
ShEJP
  0
XRECORD
  5
10000160
102
{ACAD_REACTORS
330
1000015F
102
}
330
1000015F
100
AcDbXrecord
1000
ShERP
  0
XRECORD
  5
10000163
102
{ACAD_REACTORS
330
10000162
102
}
330
10000162
100
AcDbXrecord
1000
ShEZP
  0
XRECORD
  5
10000166
102
{ACAD_REACTORS
330
10000165
102
}
330
10000165
100
AcDbXrecord
1000
ShEhP
  0
XRECORD
  5
10000169
102
{ACAD_REACTORS
330
10000168
102
}
330
10000168
100
AcDbXrecord
1000
ShEpP
  0
XRECORD
  5
1000016C
102
{ACAD_REACTORS
330
1000016B
102
}
330
1000016B
100
AcDbXrecord
1000
ShExP
  0
XRECORD
  5
1000016F
102
{ACAD_REACTORS
330
1000016E
102
}
330
1000016E
100
AcDbXrecord
1000
ShE5P
  0
XRECORD
  5
10000172
102
{ACAD_REACTORS
330
10000171
102
}
330
10000171
100
AcDbXrecord
1000
ShEBQ
  0
XRECORD
  5
10000175
102
{ACAD_REACTORS
330
10000174
102
}
330
10000174
100
AcDbXrecord
1000
ShEJQ
  0
XRECORD
  5
10000178
102
{ACAD_REACTORS
330
10000177
102
}
330
10000177
100
AcDbXrecord
1000
ShERQ
  0
XRECORD
  5
1000017B
102
{ACAD_REACTORS
330
1000017A
102
}
330
1000017A
100
AcDbXrecord
1000
ShEZQ
  0
XRECORD
  5
1000017E
102
{ACAD_REACTORS
330
1000017D
102
}
330
1000017D
100
AcDbXrecord
1000
ShEhQ
  0
XRECORD
  5
10000181
102
{ACAD_REACTORS
330
10000180
102
}
330
10000180
100
AcDbXrecord
1000
ShEpQ
  0
XRECORD
  5
10000184
102
{ACAD_REACTORS
330
10000183
102
}
330
10000183
100
AcDbXrecord
1000
ShExQ
  0
XRECORD
  5
10000187
102
{ACAD_REACTORS
330
10000186
102
}
330
10000186
100
AcDbXrecord
1000
ShEBM
  0
XRECORD
  5
1000018A
102
{ACAD_REACTORS
330
10000189
102
}
330
10000189
100
AcDbXrecord
1000
ShEJW
  0
XRECORD
  5
1000018D
102
{ACAD_REACTORS
330
1000018C
102
}
330
1000018C
100
AcDbXrecord
1000
ShERW
  0
XRECORD
  5
10000190
102
{ACAD_REACTORS
330
1000018F
102
}
330
1000018F
100
AcDbXrecord
1000
ShEZW
  0
XRECORD
  5
10000193
102
{ACAD_REACTORS
330
10000192
102
}
330
10000192
100
AcDbXrecord
1000
ShEhW
  0
XRECORD
  5
10000196
102
{ACAD_REACTORS
330
10000195
102
}
330
10000195
100
AcDbXrecord
1000
ShEpW
  0
XRECORD
  5
10000199
102
{ACAD_REACTORS
330
10000198
102
}
330
10000198
100
AcDbXrecord
1000
ShExW
  0
XRECORD
  5
1000019C
102
{ACAD_REACTORS
330
1000019B
102
}
330
1000019B
100
AcDbXrecord
1000
ShE5W
  0
XRECORD
  5
1000019F
102
{ACAD_REACTORS
330
1000019E
102
}
330
1000019E
100
AcDbXrecord
1000
ShEBX
  0
XRECORD
  5
100001A2
102
{ACAD_REACTORS
330
100001A1
102
}
330
100001A1
100
AcDbXrecord
1000
ShEJX
  0
XRECORD
  5
100001A5
102
{ACAD_REACTORS
330
100001A4
102
}
330
100001A4
100
AcDbXrecord
1000
ShERX
  0
XRECORD
  5
100001A8
102
{ACAD_REACTORS
330
100001A7
102
}
330
100001A7
100
AcDbXrecord
1000
ShEZX
  0
XRECORD
  5
100001AB
102
{ACAD_REACTORS
330
100001AA
102
}
330
100001AA
100
AcDbXrecord
1000
ShEhX
  0
XRECORD
  5
100001AE
102
{ACAD_REACTORS
330
100001AD
102
}
330
100001AD
100
AcDbXrecord
1000
ShEpX
  0
XRECORD
  5
100001B1
102
{ACAD_REACTORS
330
100001B0
102
}
330
100001B0
100
AcDbXrecord
1000
ShExX
  0
XRECORD
  5
100001B4
102
{ACAD_REACTORS
330
100001B3
102
}
330
100001B3
100
AcDbXrecord
1000
ShE5X
  0
XRECORD
  5
100001B7
102
{ACAD_REACTORS
330
100001B6
102
}
330
100001B6
100
AcDbXrecord
1000
ShEBY
  0
XRECORD
  5
100001BA
102
{ACAD_REACTORS
330
100001B9
102
}
330
100001B9
100
AcDbXrecord
1000
ShEJY
  0
XRECORD
  5
100001BD
102
{ACAD_REACTORS
330
100001BC
102
}
330
100001BC
100
AcDbXrecord
1000
ShERY
  0
XRECORD
  5
100001C0
102
{ACAD_REACTORS
330
100001BF
102
}
330
100001BF
100
AcDbXrecord
1000
ShEZY
  0
XRECORD
  5
100001C3
102
{ACAD_REACTORS
330
100001C2
102
}
330
100001C2
100
AcDbXrecord
1000
ShEhY
  0
XRECORD
  5
100001C6
102
{ACAD_REACTORS
330
100001C5
102
}
330
100001C5
100
AcDbXrecord
1000
ShEpY
  0
XRECORD
  5
100001C9
102
{ACAD_REACTORS
330
100001C8
102
}
330
100001C8
100
AcDbXrecord
1000
ShExY
  0
XRECORD
  5
100001CC
102
{ACAD_REACTORS
330
100001CB
102
}
330
100001CB
100
AcDbXrecord
1000
ShE5Y
  0
XRECORD
  5
100001CF
102
{ACAD_REACTORS
330
100001CE
102
}
330
100001CE
100
AcDbXrecord
1000
ShEBZ
  0
XRECORD
  5
100001D2
102
{ACAD_REACTORS
330
100001D1
102
}
330
100001D1
100
AcDbXrecord
1000
ShEBW
  0
XRECORD
  5
100001D5
102
{ACAD_REACTORS
330
100001D4
102
}
330
100001D4
100
AcDbXrecord
1000
ShEJT
  0
XRECORD
  5
100001D8
102
{ACAD_REACTORS
330
100001D7
102
}
330
100001D7
100
AcDbXrecord
1000
ShERT
  0
XRECORD
  5
100001DB
102
{ACAD_REACTORS
330
100001DA
102
}
330
100001DA
100
AcDbXrecord
1000
ShEZT
  0
XRECORD
  5
100001DE
102
{ACAD_REACTORS
330
100001DD
102
}
330
100001DD
100
AcDbXrecord
1000
ShEhT
  0
XRECORD
  5
100001E1
102
{ACAD_REACTORS
330
100001E0
102
}
330
100001E0
100
AcDbXrecord
1000
ShEpT
  0
XRECORD
  5
100001E4
102
{ACAD_REACTORS
330
100001E3
102
}
330
100001E3
100
AcDbXrecord
1000
ShExT
  0
XRECORD
  5
100001E7
102
{ACAD_REACTORS
330
100001E6
102
}
330
100001E6
100
AcDbXrecord
1000
ShE5T
  0
XRECORD
  5
100001EA
102
{ACAD_REACTORS
330
100001E9
102
}
330
100001E9
100
AcDbXrecord
1000
ShEBU
  0
XRECORD
  5
100001ED
102
{ACAD_REACTORS
330
100001EC
102
}
330
100001EC
100
AcDbXrecord
1000
ShEJU
  0
XRECORD
  5
100001F0
102
{ACAD_REACTORS
330
100001EF
102
}
330
100001EF
100
AcDbXrecord
1000
ShERU
  0
XRECORD
  5
100001F3
102
{ACAD_REACTORS
330
100001F2
102
}
330
100001F2
100
AcDbXrecord
1000
ShEZU
  0
XRECORD
  5
100001F6
102
{ACAD_REACTORS
330
100001F5
102
}
330
100001F5
100
AcDbXrecord
1000
ShEhU
  0
XRECORD
  5
100001F9
102
{ACAD_REACTORS
330
100001F8
102
}
330
100001F8
100
AcDbXrecord
1000
ShEpU
  0
XRECORD
  5
100001FC
102
{ACAD_REACTORS
330
100001FB
102
}
330
100001FB
100
AcDbXrecord
1000
ShExU
  0
XRECORD
  5
100001FF
102
{ACAD_REACTORS
330
100001FE
102
}
330
100001FE
100
AcDbXrecord
1000
ShE5U
  0
XRECORD
  5
10000202
102
{ACAD_REACTORS
330
10000201
102
}
330
10000201
100
AcDbXrecord
1000
ShEBV
  0
XRECORD
  5
10000205
102
{ACAD_REACTORS
330
10000204
102
}
330
10000204
100
AcDbXrecord
1000
ShEJV
  0
XRECORD
  5
10000208
102
{ACAD_REACTORS
330
10000207
102
}
330
10000207
100
AcDbXrecord
1000
ShERV
  0
XRECORD
  5
1000020B
102
{ACAD_REACTORS
330
1000020A
102
}
330
1000020A
100
AcDbXrecord
1000
ShEZV
  0
XRECORD
  5
1000020E
102
{ACAD_REACTORS
330
1000020D
102
}
330
1000020D
100
AcDbXrecord
1000
ShEhV
  0
XRECORD
  5
10000211
102
{ACAD_REACTORS
330
10000210
102
}
330
10000210
100
AcDbXrecord
1000
ShEpV
  0
XRECORD
  5
10000214
102
{ACAD_REACTORS
330
10000213
102
}
330
10000213
100
AcDbXrecord
1000
ShExV
  0
XRECORD
  5
10000217
102
{ACAD_REACTORS
330
10000216
102
}
330
10000216
100
AcDbXrecord
1000
ShE5V
  0
XRECORD
  5
1000021A
102
{ACAD_REACTORS
330
10000219
102
}
330
10000219
100
AcDbXrecord
1000
ShEBT
  0
XRECORD
  5
1000021D
102
{ACAD_REACTORS
330
1000021C
102
}
330
1000021C
100
AcDbXrecord
1000
ShEhR
  0
XRECORD
  5
10000220
102
{ACAD_REACTORS
330
1000021F
102
}
330
1000021F
100
AcDbXrecord
1000
ShEpR
  0
XRECORD
  5
10000223
102
{ACAD_REACTORS
330
10000222
102
}
330
10000222
100
AcDbXrecord
1000
ShExR
  0
XRECORD
  5
10000226
102
{ACAD_REACTORS
330
10000225
102
}
330
10000225
100
AcDbXrecord
1000
ShE5R
  0
XRECORD
  5
10000229
102
{ACAD_REACTORS
330
10000228
102
}
330
10000228
100
AcDbXrecord
1000
ShEBS
  0
XRECORD
  5
1000022C
102
{ACAD_REACTORS
330
1000022B
102
}
330
1000022B
100
AcDbXrecord
1000
ShEJS
  0
XRECORD
  5
1000022F
102
{ACAD_REACTORS
330
1000022E
102
}
330
1000022E
100
AcDbXrecord
1000
ShERS
  0
XRECORD
  5
10000232
102
{ACAD_REACTORS
330
10000231
102
}
330
10000231
100
AcDbXrecord
1000
ShEZS
  0
XRECORD
  5
10000235
102
{ACAD_REACTORS
330
10000234
102
}
330
10000234
100
AcDbXrecord
1000
ShEhS
  0
XRECORD
  5
10000238
102
{ACAD_REACTORS
330
10000237
102
}
330
10000237
100
AcDbXrecord
1000
ShEpS
  0
XRECORD
  5
1000023B
102
{ACAD_REACTORS
330
1000023A
102
}
330
1000023A
100
AcDbXrecord
1000
ShExS
  0
XRECORD
  5
1000023E
102
{ACAD_REACTORS
330
1000023D
102
}
330
1000023D
100
AcDbXrecord
1000
ShE5S
  0
XRECORD
  5
10000241
102
{ACAD_REACTORS
330
10000240
102
}
330
10000240
100
AcDbXrecord
1000
ShEZR
  0
XRECORD
  5
10000244
102
{ACAD_REACTORS
330
10000243
102
}
330
10000243
100
AcDbXrecord
1000
ShEBR
  0
XRECORD
  5
10000247
102
{ACAD_REACTORS
330
10000246
102
}
330
10000246
100
AcDbXrecord
1000
ShEJR
  0
XRECORD
  5
1000024A
102
{ACAD_REACTORS
330
10000249
102
}
330
10000249
100
AcDbXrecord
1000
ShERR
  0
XRECORD
  5
1000024D
102
{ACAD_REACTORS
330
1000024C
102
}
330
1000024C
100
AcDbXrecord
1000
ShE5Q
  0
XRECORD
  5
10000250
102
{ACAD_REACTORS
330
1000024F
102
}
330
1000024F
100
AcDbXrecord
1000
ShEZf
  0
XRECORD
  5
10000253
102
{ACAD_REACTORS
330
10000252
102
}
330
10000252
100
AcDbXrecord
1000
ShEhf
  0
XRECORD
  5
10000256
102
{ACAD_REACTORS
330
10000255
102
}
330
10000255
100
AcDbXrecord
1000
ShEpf
  0
XRECORD
  5
10000259
102
{ACAD_REACTORS
330
10000258
102
}
330
10000258
100
AcDbXrecord
1000
ShExf
  0
XRECORD
  5
1000025C
102
{ACAD_REACTORS
330
1000025B
102
}
330
1000025B
100
AcDbXrecord
1000
ShERf
  0
XRECORD
  5
1000025F
102
{ACAD_REACTORS
330
1000025E
102
}
330
1000025E
100
AcDbXrecord
1000
ShEZc
  0
XRECORD
  5
10000262
102
{ACAD_REACTORS
330
10000261
102
}
330
10000261
100
AcDbXrecord
1000
ShEhc
  0
XRECORD
  5
10000265
102
{ACAD_REACTORS
330
10000264
102
}
330
10000264
100
AcDbXrecord
1000
ShEpc
  0
XRECORD
  5
10000268
102
{ACAD_REACTORS
330
10000267
102
}
330
10000267
100
AcDbXrecord
1000
ShExc
  0
XRECORD
  5
1000026B
102
{ACAD_REACTORS
330
1000026A
102
}
330
1000026A
100
AcDbXrecord
1000
ShE5c
  0
XRECORD
  5
1000026E
102
{ACAD_REACTORS
330
1000026D
102
}
330
1000026D
100
AcDbXrecord
1000
ShEBd
  0
XRECORD
  5
10000271
102
{ACAD_REACTORS
330
10000270
102
}
330
10000270
100
AcDbXrecord
1000
ShEJd
  0
XRECORD
  5
10000274
102
{ACAD_REACTORS
330
10000273
102
}
330
10000273
100
AcDbXrecord
1000
ShERd
  0
XRECORD
  5
10000277
102
{ACAD_REACTORS
330
10000276
102
}
330
10000276
100
AcDbXrecord
1000
ShEZd
  0
XRECORD
  5
1000027A
102
{ACAD_REACTORS
330
10000279
102
}
330
10000279
100
AcDbXrecord
1000
ShEhd
  0
XRECORD
  5
1000027D
102
{ACAD_REACTORS
330
1000027C
102
}
330
1000027C
100
AcDbXrecord
1000
ShEpd
  0
XRECORD
  5
10000280
102
{ACAD_REACTORS
330
1000027F
102
}
330
1000027F
100
AcDbXrecord
1000
ShExd
  0
XRECORD
  5
10000283
102
{ACAD_REACTORS
330
10000282
102
}
330
10000282
100
AcDbXrecord
1000
ShE5d
  0
XRECORD
  5
10000286
102
{ACAD_REACTORS
330
10000285
102
}
330
10000285
100
AcDbXrecord
1000
ShEBe
  0
XRECORD
  5
10000289
102
{ACAD_REACTORS
330
10000288
102
}
330
10000288
100
AcDbXrecord
1000
ShEJe
  0
XRECORD
  5
1000028C
102
{ACAD_REACTORS
330
1000028B
102
}
330
1000028B
100
AcDbXrecord
1000
ShERe
  0
XRECORD
  5
1000028F
102
{ACAD_REACTORS
330
1000028E
102
}
330
1000028E
100
AcDbXrecord
1000
ShEZe
  0
XRECORD
  5
10000292
102
{ACAD_REACTORS
330
10000291
102
}
330
10000291
100
AcDbXrecord
1000
ShEhe
  0
XRECORD
  5
10000295
102
{ACAD_REACTORS
330
10000294
102
}
330
10000294
100
AcDbXrecord
1000
ShEpe
  0
XRECORD
  5
10000298
102
{ACAD_REACTORS
330
10000297
102
}
330
10000297
100
AcDbXrecord
1000
ShExe
  0
XRECORD
  5
1000029B
102
{ACAD_REACTORS
330
1000029A
102
}
330
1000029A
100
AcDbXrecord
1000
ShE5e
  0
XRECORD
  5
1000029E
102
{ACAD_REACTORS
330
1000029D
102
}
330
1000029D
100
AcDbXrecord
1000
ShEBf
  0
XRECORD
  5
100002A1
102
{ACAD_REACTORS
330
100002A0
102
}
330
100002A0
100
AcDbXrecord
1000
ShEJf
  0
XRECORD
  5
100002A4
102
{ACAD_REACTORS
330
100002A3
102
}
330
100002A3
100
AcDbXrecord
1000
ShERc
  0
XRECORD
  5
100002A7
102
{ACAD_REACTORS
330
100002A6
102
}
330
100002A6
100
AcDbXrecord
1000
ShERZ
  0
XRECORD
  5
100002AA
102
{ACAD_REACTORS
330
100002A9
102
}
330
100002A9
100
AcDbXrecord
1000
ShEZZ
  0
XRECORD
  5
100002AD
102
{ACAD_REACTORS
330
100002AC
102
}
330
100002AC
100
AcDbXrecord
1000
ShEhZ
  0
XRECORD
  5
100002B0
102
{ACAD_REACTORS
330
100002AF
102
}
330
100002AF
100
AcDbXrecord
1000
ShEpZ
  0
XRECORD
  5
100002B3
102
{ACAD_REACTORS
330
100002B2
102
}
330
100002B2
100
AcDbXrecord
1000
ShExZ
  0
XRECORD
  5
100002B6
102
{ACAD_REACTORS
330
100002B5
102
}
330
100002B5
100
AcDbXrecord
1000
ShE5Z
  0
XRECORD
  5
100002B9
102
{ACAD_REACTORS
330
100002B8
102
}
330
100002B8
100
AcDbXrecord
1000
ShEBa
  0
XRECORD
  5
100002BC
102
{ACAD_REACTORS
330
100002BB
102
}
330
100002BB
100
AcDbXrecord
1000
ShEJa
  0
XRECORD
  5
100002BF
102
{ACAD_REACTORS
330
100002BE
102
}
330
100002BE
100
AcDbXrecord
1000
ShERa
  0
XRECORD
  5
100002C2
102
{ACAD_REACTORS
330
100002C1
102
}
330
100002C1
100
AcDbXrecord
1000
ShEZa
  0
XRECORD
  5
100002C5
102
{ACAD_REACTORS
330
100002C4
102
}
330
100002C4
100
AcDbXrecord
1000
ShEha
  0
XRECORD
  5
100002C8
102
{ACAD_REACTORS
330
100002C7
102
}
330
100002C7
100
AcDbXrecord
1000
ShEpa
  0
XRECORD
  5
100002CB
102
{ACAD_REACTORS
330
100002CA
102
}
330
100002CA
100
AcDbXrecord
1000
ShExa
  0
XRECORD
  5
100002CE
102
{ACAD_REACTORS
330
100002CD
102
}
330
100002CD
100
AcDbXrecord
1000
ShE5a
  0
XRECORD
  5
100002D1
102
{ACAD_REACTORS
330
100002D0
102
}
330
100002D0
100
AcDbXrecord
1000
ShEBb
  0
XRECORD
  5
100002D4
102
{ACAD_REACTORS
330
100002D3
102
}
330
100002D3
100
AcDbXrecord
1000
ShEJb
  0
XRECORD
  5
100002D7
102
{ACAD_REACTORS
330
100002D6
102
}
330
100002D6
100
AcDbXrecord
1000
ShERb
  0
XRECORD
  5
100002DA
102
{ACAD_REACTORS
330
100002D9
102
}
330
100002D9
100
AcDbXrecord
1000
ShEZb
  0
XRECORD
  5
100002DD
102
{ACAD_REACTORS
330
100002DC
102
}
330
100002DC
100
AcDbXrecord
1000
ShEhb
  0
XRECORD
  5
100002E0
102
{ACAD_REACTORS
330
100002DF
102
}
330
100002DF
100
AcDbXrecord
1000
ShEpb
  0
XRECORD
  5
100002E3
102
{ACAD_REACTORS
330
100002E2
102
}
330
100002E2
100
AcDbXrecord
1000
ShExb
  0
XRECORD
  5
100002E6
102
{ACAD_REACTORS
330
100002E5
102
}
330
100002E5
100
AcDbXrecord
1000
ShE5b
  0
XRECORD
  5
100002E9
102
{ACAD_REACTORS
330
100002E8
102
}
330
100002E8
100
AcDbXrecord
1000
ShEBc
  0
XRECORD
  5
100002EC
102
{ACAD_REACTORS
330
100002EB
102
}
330
100002EB
100
AcDbXrecord
1000
ShEJc
  0
XRECORD
  5
100002EF
102
{ACAD_REACTORS
330
100002EE
102
}
330
100002EE
100
AcDbXrecord
1000
ShEJZ
  0
MATERIAL
  5
45
102
{ACAD_REACTORS
330
43
102
}
102
{ACAD_XDICTIONARY
360
100002FE
102
}
330
43
100
AcDbMaterial
  1
BYBLOCK
  0
MATERIAL
  5
44
102
{ACAD_REACTORS
330
43
102
}
102
{ACAD_XDICTIONARY
360
100002FC
102
}
330
43
100
AcDbMaterial
  1
BYLAYER
  0
MATERIAL
  5
46
102
{ACAD_REACTORS
330
43
102
}
102
{ACAD_XDICTIONARY
360
10000300
102
}
330
43
100
AcDbMaterial
  1
GLOBAL
  0
ACAD_PROXY_OBJECT
  5
6C
102
{ACAD_REACTORS
330
6B
102
}
330
6B
100
AcDbZombieObject
 90
      499
 91
      505
 93
      610
310
40901902A4063FBFFFFFE056BD1B81E855B9FC0AD7A3703D0AD73F4214DD185B99185C9900AD7A3703D0AC73F90141901A02B5E8DC0F42B1CFC02B5E8DC0F42B1CFE5764000000000000300FC0
340
14
340
0
340
11
340
0
 94
        0
1001
ACAD_MLEADERVER
1070
     2
  0
MLINESTYLE
  5
18
102
{ACAD_REACTORS
330
17
102
}
330
17
100
AcDbMlineStyle
  2
Standard
 70
     0
  3

 62
   256
 51
90.0
 52
90.0
 71
     2
 49
0.5
 62
   256
  6
BYLAYER
 49
-0.5
 62
   256
  6
BYLAYER
  0
ACAD_PROXY_OBJECT
  5
10000023
102
{ACAD_REACTORS
330
47
102
}
330
47
100
AcDbZombieObject
 90
      499
 91
      503
 93
      121
310
9053130303A310000000000001650100
  0
ACAD_PROXY_OBJECT
  5
1000001D
102
{ACAD_REACTORS
330
47
102
}
330
47
100
AcDbZombieObject
 90
      499
 91
      503
 93
      113
310
90431303A310000000000000910100
  0
ACAD_PROXY_OBJECT
  5
1000001E
102
{ACAD_REACTORS
330
47
102
}
330
47
100
AcDbZombieObject
 90
      499
 91
      503
 93
      113
310
90431323A310000000000000A10100
  0
ACAD_PROXY_OBJECT
  5
1000001F
102
{ACAD_REACTORS
330
47
102
}
330
47
100
AcDbZombieObject
 90
      499
 91
      503
 93
      113
310
90431363A310000000000000C10100
  0
ACAD_PROXY_OBJECT
  5
10000006
102
{ACAD_REACTORS
330
47
102
}
330
47
100
AcDbZombieObject
 90
      499
 91
      503
 93
       41
310
903313A31500
  0
ACAD_PROXY_OBJECT
  5
1000000D
102
{ACAD_REACTORS
330
47
102
}
330
47
100
AcDbZombieObject
 90
      499
 91
      503
 93
      113
310
904313A31304000000000000244000
  0
ACAD_PROXY_OBJECT
  5
10000016
102
{ACAD_REACTORS
330
47
102
}
330
47
100
AcDbZombieObject
 90
      499
 91
      503
 93
      121
310
905313A3130304000000000000594000
  0
ACAD_PROXY_OBJECT
  5
1000000E
102
{ACAD_REACTORS
330
47
102
}
330
47
100
AcDbZombieObject
 90
      499
 91
      503
 93
      113
310
904313A31324000000000000284000
  0
ACAD_PROXY_OBJECT
  5
1000000F
102
{ACAD_REACTORS
330
47
102
}
330
47
100
AcDbZombieObject
 90
      499
 91
      503
 93
      113
310
904313A31364000000000000304000
  0
ACAD_PROXY_OBJECT
  5
10000007
102
{ACAD_REACTORS
330
47
102
}
330
47
100
AcDbZombieObject
 90
      499
 91
      503
 93
      105
310
903313A324000000000000004000
  0
ACAD_PROXY_OBJECT
  5
10000010
102
{ACAD_REACTORS
330
47
102
}
330
47
100
AcDbZombieObject
 90
      499
 91
      503
 93
      113
310
904313A32304000000000000344000
  0
ACAD_PROXY_OBJECT
  5
10000011
102
{ACAD_REACTORS
330
47
102
}
330
47
100
AcDbZombieObject
 90
      499
 91
      503
 93
      113
310
904313A32354000000000000394000
  0
ACAD_PROXY_OBJECT
  5
10000008
102
{ACAD_REACTORS
330
47
102
}
330
47
100
AcDbZombieObject
 90
      499
 91
      503
 93
      105
310
903313A334000000000000084000
  0
ACAD_PROXY_OBJECT
  5
10000012
102
{ACAD_REACTORS
330
47
102
}
330
47
100
AcDbZombieObject
 90
      499
 91
      503
 93
      113
310
904313A33324000000000000404000
  0
ACAD_PROXY_OBJECT
  5
10000009
102
{ACAD_REACTORS
330
47
102
}
330
47
100
AcDbZombieObject
 90
      499
 91
      503
 93
      105
310
903313A344000000000000104000
  0
ACAD_PROXY_OBJECT
  5
10000013
102
{ACAD_REACTORS
330
47
102
}
330
47
100
AcDbZombieObject
 90
      499
 91
      503
 93
      113
310
904313A34304000000000000444000
  0
ACAD_PROXY_OBJECT
  5
1000000A
102
{ACAD_REACTORS
330
47
102
}
330
47
100
AcDbZombieObject
 90
      499
 91
      503
 93
      105
310
903313A354000000000000144000
  0
ACAD_PROXY_OBJECT
  5
10000014
102
{ACAD_REACTORS
330
47
102
}
330
47
100
AcDbZombieObject
 90
      499
 91
      503
 93
      113
310
904313A35304000000000000494000
  0
ACAD_PROXY_OBJECT
  5
1000000B
102
{ACAD_REACTORS
330
47
102
}
330
47
100
AcDbZombieObject
 90
      499
 91
      503
 93
      105
310
903313A364000000000000184000
  0
ACAD_PROXY_OBJECT
  5
1000000C
102
{ACAD_REACTORS
330
47
102
}
330
47
100
AcDbZombieObject
 90
      499
 91
      503
 93
      105
310
903313A384000000000000204000
  0
ACAD_PROXY_OBJECT
  5
10000015
102
{ACAD_REACTORS
330
47
102
}
330
47
100
AcDbZombieObject
 90
      499
 91
      503
 93
      113
310
904313A38304000000000000544000
  0
ACAD_PROXY_OBJECT
  5
10000020
102
{ACAD_REACTORS
330
47
102
}
330
47
100
AcDbZombieObject
 90
      499
 91
      503
 93
      113
310
90432303A310000000000000D10100
  0
ACAD_PROXY_OBJECT
  5
10000017
102
{ACAD_REACTORS
330
47
102
}
330
47
100
AcDbZombieObject
 90
      499
 91
      503
 93
      105
310
903323A310000000000000010100
  0
ACAD_PROXY_OBJECT
  5
10000021
102
{ACAD_REACTORS
330
47
102
}
330
47
100
AcDbZombieObject
 90
      499
 91
      503
 93
      113
310
90433323A310000000000001010100
  0
ACAD_PROXY_OBJECT
  5
10000018
102
{ACAD_REACTORS
330
47
102
}
330
47
100
AcDbZombieObject
 90
      499
 91
      503
 93
      105
310
903333A310000000000000210100
  0
ACAD_PROXY_OBJECT
  5
10000019
102
{ACAD_REACTORS
330
47
102
}
330
47
100
AcDbZombieObject
 90
      499
 91
      503
 93
      105
310
903343A310000000000000410100
  0
ACAD_PROXY_OBJECT
  5
10000022
102
{ACAD_REACTORS
330
47
102
}
330
47
100
AcDbZombieObject
 90
      499
 91
      503
 93
      113
310
90435303A310000000000001250100
  0
ACAD_PROXY_OBJECT
  5
1000001A
102
{ACAD_REACTORS
330
47
102
}
330
47
100
AcDbZombieObject
 90
      499
 91
      503
 93
      105
310
903353A310000000000000510100
  0
ACAD_PROXY_OBJECT
  5
1000001B
102
{ACAD_REACTORS
330
47
102
}
330
47
100
AcDbZombieObject
 90
      499
 91
      503
 93
      105
310
903363A310000000000000610100
  0
ACAD_PROXY_OBJECT
  5
1000001C
102
{ACAD_REACTORS
330
47
102
}
330
47
100
AcDbZombieObject
 90
      499
 91
      503
 93
      105
310
903383A310000000000000810100
  0
ACAD_PROXY_OBJECT
  5
2F
102
{ACAD_REACTORS
330
2A
102
}
330
2A
100
AcDbZombieObject
 90
      499
 91
      501
 93
      436
310
42CC9915DA5C99599C985B595049028333333333333E33F0000000000000F90107901411070040501600405405064090741402480A0340
1001
ACAD
1000
AcDbSavedByObjectVersion
1070
     0
  0
ACAD_PROXY_OBJECT
  5
32
102
{ACAD_REACTORS
330
2A
102
}
330
2A
100
AcDbZombieObject
 90
      499
 91
      501
 93
      388
310
4150985CDA58D07406404333333333333E33F0000000000000F90107A41107004050150841D405064090741402480A0350
1001
ACAD
1000
AcDbSavedByObjectVersion
1070
     0
  0
ACAD_PROXY_OBJECT
  5
36
102
{ACAD_REACTORS
330
2A
102
}
330
2A
100
AcDbZombieObject
 90
      499
 91
      501
 93
      428
310
42109C9A59DA1D195B90C409028333333333333E33F0000000000000F9010790141107004050150841D405064090741402480A029950
1001
ACAD
1000
AcDbSavedByObjectVersion
1070
     0
  0
ACAD_PROXY_OBJECT
  5
3A
102
{ACAD_REACTORS
330
2A
102
}
330
2A
100
AcDbZombieObject
 90
      499
 91
      501
 93
      452
310
42D0DBDB1BDC90DA185B99D95104090240C333333333333E33F0000000000000F90108901411070040501508421405064090741402480A0350
1001
ACAD
1000
AcDbSavedByObjectVersion
1070
     0
  0
ACAD_PROXY_OBJECT
  5
34
102
{ACAD_REACTORS
330
2A
102
}
330
2A
100
AcDbZombieObject
 90
      499
 91
      501
 93
      500
310
4290DBDB98D95C1D1D585B10940D028333333333333E33F0000000000000F90107902409070040501000000000018199010841D405064090740C02480A0340
1001
ACAD
1000
AcDbSavedByObjectVersion
1070
     0
  0
ACAD_PROXY_OBJECT
  5
35
102
{ACAD_REACTORS
330
2A
102
}
330
2A
100
AcDbZombieObject
 90
      499
 91
      501
 93
      412
310
40D11A5B50B409028333333333333E33F0000000000000F9010790141107004050150841D405064090741402480A02677FFFFFD0
1001
ACAD
1000
AcDbSavedByObjectVersion
1070
     0
  0
ACAD_PROXY_OBJECT
  5
3D
102
{ACAD_REACTORS
330
2A
102
}
330
2A
100
AcDbZombieObject
 90
      499
 91
      501
 93
      452
310
43115919D950DBDB1BDC93D999916409028333333333333E33F0000000000000F9010790141107004050150841D405064090741402480A0350
1001
ACAD
1000
AcDbSavedByObjectVersion
1070
     0
  0
ACAD_PROXY_OBJECT
  5
39
102
{ACAD_REACTORS
330
2A
102
}
330
2A
100
AcDbZombieObject
 90
      499
 91
      501
 93
      444
310
42D19858D95C185D1D195C9B90F409028333333333333E33F0000000000000F9010790141107004050150841D405064090741402480A0350
1001
ACAD
1000
AcDbSavedByObjectVersion
1070
     0
  0
ACAD_PROXY_OBJECT
  5
2B
102
{ACAD_REACTORS
330
2A
102
}
330
2A
100
AcDbZombieObject
 90
      499
 91
      501
 93
      380
310
41119B185D240901404333333333333E33F0000000000000F9010740A907004050150841D405064090741402480A1B50
1001
ACAD
1000
AcDbSavedByObjectVersion
1070
     0
  0
ACAD_PROXY_OBJECT
  5
2C
102
{ACAD_REACTORS
330
2A
102
}
330
2A
100
AcDbZombieObject
 90
      499
 91
      501
 93
      468
310
43519B185D15DA5D1A115919D95CD0140901404333333333333E33F0000000000000F90107409019070040501600405405064090741402480A1B50
1001
ACAD
1000
AcDbSavedByObjectVersion
1070
     0
  0
ACAD_PROXY_OBJECT
  5
2D
102
{ACAD_REACTORS
330
2A
102
}
330
2A
100
AcDbZombieObject
 90
      499
 91
      501
 93
      404
310
41D1DBDD5C985D5910240902404333333333333E33F0000000000000F9010740A9070040501641D405064090741402480A1B50
1001
ACAD
1000
AcDbSavedByObjectVersion
1070
     0
  0
ACAD_PROXY_OBJECT
  5
2E
102
{ACAD_REACTORS
330
2A
102
}
330
2A
100
AcDbZombieObject
 90
      499
 91
      501
 93
      492
310
4411DBDD5C985D5915DA5D1A115919D95CD0340902404333333333333E33F0000000000000F90107409019070040501600405405064090741402480A1B50
1001
ACAD
1000
AcDbSavedByObjectVersion
1070
     0
  0
ACAD_PROXY_OBJECT
  5
31
102
{ACAD_REACTORS
330
2A
102
}
330
2A
100
AcDbZombieObject
 90
      499
 91
      501
 93
      476
310
41921A5919195B90640502408333333333333E33F0000000000000F901079024090700405020000000000001110200405405064090740C02480A0340
1001
ACAD
1000
AcDbSavedByObjectVersion
1070
     0
  0
ACAD_PROXY_OBJECT
  5
3B
102
{ACAD_REACTORS
330
2A
102
}
330
2A
100
AcDbZombieObject
 90
      499
 91
      501
 93
      428
310
42529A5D1D195C93D999914409028333333333333E33F0000000000000F9010790141107004050150A41D405064090741402480A0350
1001
ACAD
1000
AcDbSavedByObjectVersion
1070
     0
  0
ACAD_PROXY_OBJECT
  5
38
102
{ACAD_REACTORS
330
2A
102
}
330
2A
100
AcDbZombieObject
 90
      499
 91
      501
 93
      444
310
42D31A5B995C185D1D195C9B90E409028333333333333E33F0000000000000F9010790141107004050750841D405064090741402483A0350
1001
ACAD
1000
AcDbSavedByObjectVersion
1070
     0
  0
ACAD_PROXY_OBJECT
  5
3C
102
{ACAD_REACTORS
330
2A
102
}
330
2A
100
AcDbZombieObject
 90
      499
 91
      501
 93
      444
310
42D3DD995C9A185B99D3D999915409028333333333333E33F0000000000000F9010790141107004050150941D405064090741402480A0350
1001
ACAD
1000
AcDbSavedByObjectVersion
1070
     0
  0
ACAD_PROXY_OBJECT
  5
33
102
{ACAD_REACTORS
330
2A
102
}
330
2A
100
AcDbZombieObject
 90
      499
 91
      501
 93
      428
310
425499585B1A5CDD1A58D08409038333333333333E33F0000000000000F9010740A907004050150800405405064090740C02480A1B40
1001
ACAD
1000
AcDbSavedByObjectVersion
1070
     0
  0
ACAD_PROXY_OBJECT
  5
42
102
{ACAD_REACTORS
330
2A
102
}
330
2A
100
AcDbZombieObject
 90
      499
 91
      501
 93
      420
310
4194DA1859195911B40902404333333333333E33F0000000000000F9010740A41107004050150800405405064090840C02480A0B40
1001
ACAD
1000
AcDbSavedByObjectVersion
1070
     0
  0
ACAD_PROXY_OBJECT
  5
41
102
{ACAD_REACTORS
330
2A
102
}
330
2A
100
AcDbZombieObject
 90
      499
 91
      501
 93
      516
310
4454DA18591959081DDA5D1A08195919D95CD1A40902404333333333333E33F0000000000000F901074090142907004050250800405405064090740C02480A0B40
1001
ACAD
1000
AcDbSavedByObjectVersion
1070
     0
  0
ACAD_PROXY_OBJECT
  5
3E
102
{ACAD_REACTORS
330
2A
102
}
330
2A
100
AcDbZombieObject
 90
      499
 91
      501
 93
      532
310
4394DA1859195CC81BD98811DC985E5174090240C333333333333E33F0000000000000F901079024090741D01000000000000111010841D405064090740C02480A0340
1001
ACAD
1000
AcDbSavedByObjectVersion
1070
     0
  0
ACAD_PROXY_OBJECT
  5
3F
102
{ACAD_REACTORS
330
2A
102
}
330
2A
100
AcDbZombieObject
 90
      499
 91
      501
 93
      476
310
41D4DAD95D18DA1E51840502408333333333333E33F0000000000000F901079024090741D01000000000000111010B41D405064090741802480A0340
1001
ACAD
1000
AcDbSavedByObjectVersion
1070
     0
  0
ACAD_PROXY_OBJECT
  5
37
102
{ACAD_REACTORS
330
2A
102
}
330
2A
100
AcDbZombieObject
 90
      499
 91
      501
 93
      412
310
41D51A1A58DAD95B90D409028333333333333E33F0000000000000F9010790141107004050150C41D405064090741402480A0350
1001
ACAD
1000
AcDbSavedByObjectVersion
1070
     0
  0
ACAD_PROXY_OBJECT
  5
30
102
{ACAD_REACTORS
330
2A
102
}
330
2A
100
AcDbZombieObject
 90
      499
 91
      501
 93
      420
310
4255DA5C99599C985B595059028333333333333E33F0000000000000F90107901411070040501600405405064090740C02480A0340
1001
ACAD
1000
AcDbSavedByObjectVersion
1070
     0
  0
ACAD_PROXY_OBJECT
  5
40
102
{ACAD_REACTORS
330
2A
102
}
330
2A
100
AcDbZombieObject
 90
      499
 91
      501
 93
      404
310
41560B54985E51940902404000000000000E03F0000000000000F9010740501907004050150841D405064090740C02480A1B40
1001
ACAD
1000
AcDbSavedByObjectVersion
1070
     0
  0
DICTIONARYVAR
  5
100002FA
102
{ACAD_REACTORS
330
100002F2
102
}
330
100002F2
100
DictionaryVariables
280
     0
  1
1:1
  0
DICTIONARYVAR
  5
100002F4
102
{ACAD_REACTORS
330
100002F2
102
}
330
100002F2
100
DictionaryVariables
280
     0
  1
Standard
  0
DICTIONARYVAR
  5
100002F3
102
{ACAD_REACTORS
330
100002F2
102
}
330
100002F2
100
DictionaryVariables
280
     0
  1
Standard
  0
DICTIONARYVAR
  5
100002F7
102
{ACAD_REACTORS
330
100002F2
102
}
330
100002F2
100
DictionaryVariables
280
     0
  1
2
  0
DICTIONARYVAR
  5
100002F8
102
{ACAD_REACTORS
330
100002F2
102
}
330
100002F2
100
DictionaryVariables
280
     0
  1
1
  0
DICTIONARYVAR
  5
100002FB
102
{ACAD_REACTORS
330
100002F2
102
}
330
100002F2
100
DictionaryVariables
280
     0
  1
1
  0
XRECORD
  5
10000003
102
{ACAD_REACTORS
330
10000001
102
}
330
10000001
100
AcDbXrecord
 70
     4
  0
XRECORD
  5
10000002
102
{ACAD_REACTORS
330
10000001
102
}
330
10000001
100
AcDbXrecord
1040
89.0
  0
ACAD_PROXY_OBJECT
  5
10000005
102
{ACAD_REACTORS
330
10000001
102
}
330
10000001
100
AcDbZombieObject
 90
      499
 91
      509
 93
       34
310
40C8804000
  0
DICTIONARY
  5
100002FE
330
45
100
AcDbDictionary
  3
ACAD_XREC_ROUNDTRIP
360
100002FF
1001
ACAD
1000
TREAT_AS_HARD
1070
     1
  0
DICTIONARY
  5
100002FC
330
44
100
AcDbDictionary
  3
ACAD_XREC_ROUNDTRIP
360
100002FD
1001
ACAD
1000
TREAT_AS_HARD
1070
     1
  0
DICTIONARY
  5
10000300
330
46
100
AcDbDictionary
  3
ACAD_XREC_ROUNDTRIP
360
10000301
1001
ACAD
1000
TREAT_AS_HARD
1070
     1
  0
XRECORD
  5
100002FF
102
{ACAD_REACTORS
330
100002FE
102
}
330
100002FE
100
AcDbXrecord
102
MATERIAL
148
0.0
149
0.0
149
0.0
 93
        0
 94
      127
282
     0
 72
     1
 77
     1
171
     1
175
     1
179
     1
273
     0
  0
XRECORD
  5
100002FD
102
{ACAD_REACTORS
330
100002FC
102
}
330
100002FC
100
AcDbXrecord
102
MATERIAL
148
0.0
149
0.0
149
0.0
 93
        0
 94
      127
282
     0
 72
     1
 77
     1
171
     1
175
     1
179
     1
273
     0
  0
XRECORD
  5
10000301
102
{ACAD_REACTORS
330
10000300
102
}
330
10000300
100
AcDbXrecord
102
MATERIAL
148
0.0
149
0.0
149
0.0
 93
        0
 94
      127
282
     0
 72
     1
 77
     1
171
     1
175
     1
179
     1
273
     0
  0
ENDSEC
  0
EOF
